solid CATIA STL
  facet normal -9.510565e-001 -3.090169e-001 -4.730302e-018
    outer loop
      vertex  3.000000e+000  7.347638e-016  2.000000e+000
      vertex  3.000000e+000  0.000000e+000  5.000000e+001
      vertex  2.427051e+000  1.763356e+000  2.000000e+000
    endloop
  endfacet
  facet normal -9.510565e-001 -3.090169e-001  0.000000e+000
    outer loop
      vertex  2.427051e+000  1.763356e+000  2.000000e+000
      vertex  3.000000e+000  0.000000e+000  5.000000e+001
      vertex  2.427051e+000  1.763356e+000  5.000000e+001
    endloop
  endfacet
  facet normal -5.877852e-001 -8.090170e-001  -0.000000e+000
    outer loop
      vertex  2.427051e+000  1.763356e+000  2.000000e+000
      vertex  2.427051e+000  1.763356e+000  5.000000e+001
      vertex  9.270510e-001  2.853169e+000  2.000000e+000
    endloop
  endfacet
  facet normal -5.877852e-001 -8.090170e-001  0.000000e+000
    outer loop
      vertex  9.270510e-001  2.853169e+000  2.000000e+000
      vertex  2.427051e+000  1.763356e+000  5.000000e+001
      vertex  9.270510e-001  2.853169e+000  5.000000e+001
    endloop
  endfacet
  facet normal  0.000000e+000 -1.000000e+000  -0.000000e+000
    outer loop
      vertex  9.270510e-001  2.853169e+000  2.000000e+000
      vertex  9.270510e-001  2.853169e+000  5.000000e+001
      vertex -9.270510e-001  2.853169e+000  2.000000e+000
    endloop
  endfacet
  facet normal  0.000000e+000 -1.000000e+000  0.000000e+000
    outer loop
      vertex -9.270510e-001  2.853169e+000  2.000000e+000
      vertex  9.270510e-001  2.853169e+000  5.000000e+001
      vertex -9.270510e-001  2.853169e+000  5.000000e+001
    endloop
  endfacet
  facet normal  5.877852e-001 -8.090170e-001  0.000000e+000
    outer loop
      vertex -9.270510e-001  2.853169e+000  2.000000e+000
      vertex -9.270510e-001  2.853169e+000  5.000000e+001
      vertex -2.427051e+000  1.763356e+000  2.000000e+000
    endloop
  endfacet
  facet normal  5.877852e-001 -8.090170e-001  0.000000e+000
    outer loop
      vertex -2.427051e+000  1.763356e+000  2.000000e+000
      vertex -9.270510e-001  2.853169e+000  5.000000e+001
      vertex -2.427051e+000  1.763356e+000  5.000000e+001
    endloop
  endfacet
  facet normal  9.510565e-001 -3.090169e-001  0.000000e+000
    outer loop
      vertex -2.427051e+000  1.763356e+000  2.000000e+000
      vertex -2.427051e+000  1.763356e+000  5.000000e+001
      vertex -3.000000e+000 -3.673819e-016  2.000000e+000
    endloop
  endfacet
  facet normal  9.510565e-001 -3.090169e-001  0.000000e+000
    outer loop
      vertex -3.000000e+000 -3.673819e-016  2.000000e+000
      vertex -2.427051e+000  1.763356e+000  5.000000e+001
      vertex -3.000000e+000 -3.673819e-016  5.000000e+001
    endloop
  endfacet
  facet normal  9.510565e-001  3.090169e-001  0.000000e+000
    outer loop
      vertex -3.000000e+000 -3.673819e-016  2.000000e+000
      vertex -3.000000e+000 -3.673819e-016  5.000000e+001
      vertex -2.427051e+000 -1.763356e+000  2.000000e+000
    endloop
  endfacet
  facet normal  9.510565e-001  3.090169e-001  -0.000000e+000
    outer loop
      vertex -2.427051e+000 -1.763356e+000  2.000000e+000
      vertex -3.000000e+000 -3.673819e-016  5.000000e+001
      vertex -2.427051e+000 -1.763356e+000  5.000000e+001
    endloop
  endfacet
  facet normal  5.877852e-001  8.090170e-001  0.000000e+000
    outer loop
      vertex -2.427051e+000 -1.763356e+000  2.000000e+000
      vertex -2.427051e+000 -1.763356e+000  5.000000e+001
      vertex -9.270510e-001 -2.853169e+000  2.000000e+000
    endloop
  endfacet
  facet normal  5.877852e-001  8.090170e-001  -0.000000e+000
    outer loop
      vertex -9.270510e-001 -2.853169e+000  2.000000e+000
      vertex -2.427051e+000 -1.763356e+000  5.000000e+001
      vertex -9.270510e-001 -2.853169e+000  5.000000e+001
    endloop
  endfacet
  facet normal  0.000000e+000  1.000000e+000  0.000000e+000
    outer loop
      vertex -9.270510e-001 -2.853169e+000  2.000000e+000
      vertex -9.270510e-001 -2.853169e+000  5.000000e+001
      vertex  9.270510e-001 -2.853169e+000  2.000000e+000
    endloop
  endfacet
  facet normal  0.000000e+000  1.000000e+000  -0.000000e+000
    outer loop
      vertex  9.270510e-001 -2.853169e+000  2.000000e+000
      vertex -9.270510e-001 -2.853169e+000  5.000000e+001
      vertex  9.270510e-001 -2.853169e+000  5.000000e+001
    endloop
  endfacet
  facet normal -5.877852e-001  8.090170e-001  0.000000e+000
    outer loop
      vertex  9.270510e-001 -2.853169e+000  2.000000e+000
      vertex  9.270510e-001 -2.853169e+000  5.000000e+001
      vertex  2.427051e+000 -1.763356e+000  2.000000e+000
    endloop
  endfacet
  facet normal -5.877852e-001  8.090170e-001  0.000000e+000
    outer loop
      vertex  2.427051e+000 -1.763356e+000  2.000000e+000
      vertex  9.270510e-001 -2.853169e+000  5.000000e+001
      vertex  2.427051e+000 -1.763356e+000  5.000000e+001
    endloop
  endfacet
  facet normal -9.510565e-001  3.090169e-001  0.000000e+000
    outer loop
      vertex  2.427051e+000 -1.763356e+000  2.000000e+000
      vertex  2.427051e+000 -1.763356e+000  5.000000e+001
      vertex  3.000000e+000  7.347638e-016  2.000000e+000
    endloop
  endfacet
  facet normal -9.510565e-001  3.090169e-001  4.730302e-018
    outer loop
      vertex  3.000000e+000  7.347638e-016  2.000000e+000
      vertex  2.427051e+000 -1.763356e+000  5.000000e+001
      vertex  3.000000e+000  0.000000e+000  5.000000e+001
    endloop
  endfacet
  facet normal  0.000000e+000  -0.000000e+000 -9.999999e-001
    outer loop
      vertex -8.181053e+000  1.065814e-014  0.000000e+000
      vertex -4.090527e+000  7.085000e+000  0.000000e+000
      vertex -2.500000e+000  4.330127e+000  0.000000e+000
    endloop
  endfacet
  facet normal  0.000000e+000  0.000000e+000 -1.000000e+000
    outer loop
      vertex -8.181053e+000  1.065814e-014  0.000000e+000
      vertex -2.500000e+000  4.330127e+000  0.000000e+000
      vertex -4.330127e+000  2.500000e+000  0.000000e+000
    endloop
  endfacet
  facet normal  0.000000e+000  0.000000e+000 -1.000000e+000
    outer loop
      vertex -8.181053e+000  1.065814e-014  0.000000e+000
      vertex -4.330127e+000  2.500000e+000  0.000000e+000
      vertex -5.000000e+000 -2.312895e-007  0.000000e+000
    endloop
  endfacet
  facet normal  0.000000e+000  0.000000e+000 -1.000000e+000
    outer loop
      vertex  4.090527e+000 -7.085000e+000  0.000000e+000
      vertex -4.090527e+000 -7.085000e+000  0.000000e+000
      vertex  1.156447e-007 -5.000000e+000  0.000000e+000
    endloop
  endfacet
  facet normal  0.000000e+000  0.000000e+000 -9.999999e-001
    outer loop
      vertex  4.090527e+000 -7.085000e+000  0.000000e+000
      vertex  1.156447e-007 -5.000000e+000  0.000000e+000
      vertex  2.500000e+000 -4.330127e+000  0.000000e+000
    endloop
  endfacet
  facet normal  0.000000e+000  0.000000e+000 -1.000000e+000
    outer loop
      vertex  4.090527e+000 -7.085000e+000  0.000000e+000
      vertex  2.500000e+000 -4.330127e+000  0.000000e+000
      vertex  4.330127e+000 -2.500000e+000  0.000000e+000
    endloop
  endfacet
  facet normal  0.000000e+000  -0.000000e+000 -1.000000e+000
    outer loop
      vertex  4.090527e+000 -7.085000e+000  0.000000e+000
      vertex  4.330127e+000 -2.500000e+000  0.000000e+000
      vertex  5.000000e+000  1.406861e-015  0.000000e+000
    endloop
  endfacet
  facet normal  0.000000e+000  -0.000000e+000 -9.999999e-001
    outer loop
      vertex  4.090527e+000 -7.085000e+000  0.000000e+000
      vertex  5.000000e+000  1.406861e-015  0.000000e+000
      vertex  8.181053e+000  3.907985e-014  0.000000e+000
    endloop
  endfacet
  facet normal  0.000000e+000  0.000000e+000 -9.999999e-001
    outer loop
      vertex -4.090527e+000 -7.085000e+000  0.000000e+000
      vertex -8.181053e+000  1.065814e-014  0.000000e+000
      vertex -5.000000e+000 -2.312895e-007  0.000000e+000
    endloop
  endfacet
  facet normal  0.000000e+000  0.000000e+000 -1.000000e+000
    outer loop
      vertex -4.090527e+000 -7.085000e+000  0.000000e+000
      vertex -5.000000e+000 -2.312895e-007  0.000000e+000
      vertex -4.330127e+000 -2.500000e+000  0.000000e+000
    endloop
  endfacet
  facet normal  0.000000e+000  0.000000e+000 -9.999999e-001
    outer loop
      vertex -4.090527e+000 -7.085000e+000  0.000000e+000
      vertex -4.330127e+000 -2.500000e+000  0.000000e+000
      vertex -2.500000e+000 -4.330127e+000  0.000000e+000
    endloop
  endfacet
  facet normal  0.000000e+000  -0.000000e+000 -1.000000e+000
    outer loop
      vertex -4.090527e+000 -7.085000e+000  0.000000e+000
      vertex -2.500000e+000 -4.330127e+000  0.000000e+000
      vertex  1.156447e-007 -5.000000e+000  0.000000e+000
    endloop
  endfacet
  facet normal  0.000000e+000  0.000000e+000 -9.999999e-001
    outer loop
      vertex -2.500000e+000  4.330127e+000  0.000000e+000
      vertex -4.090527e+000  7.085000e+000  0.000000e+000
      vertex  6.879241e-008  5.000000e+000  0.000000e+000
    endloop
  endfacet
  facet normal  0.000000e+000  0.000000e+000 -1.000000e+000
    outer loop
      vertex  6.879241e-008  5.000000e+000  0.000000e+000
      vertex -4.090527e+000  7.085000e+000  0.000000e+000
      vertex  4.090527e+000  7.085000e+000  0.000000e+000
    endloop
  endfacet
  facet normal  0.000000e+000  0.000000e+000 -9.999999e-001
    outer loop
      vertex  6.879241e-008  5.000000e+000  0.000000e+000
      vertex  4.090527e+000  7.085000e+000  0.000000e+000
      vertex  2.500000e+000  4.330127e+000  0.000000e+000
    endloop
  endfacet
  facet normal  0.000000e+000  -0.000000e+000 -1.000000e+000
    outer loop
      vertex  2.500000e+000  4.330127e+000  0.000000e+000
      vertex  4.090527e+000  7.085000e+000  0.000000e+000
      vertex  4.330127e+000  2.500000e+000  0.000000e+000
    endloop
  endfacet
  facet normal  0.000000e+000  0.000000e+000 -1.000000e+000
    outer loop
      vertex  4.330127e+000  2.500000e+000  0.000000e+000
      vertex  4.090527e+000  7.085000e+000  0.000000e+000
      vertex  8.181053e+000  3.907985e-014  0.000000e+000
    endloop
  endfacet
  facet normal  -0.000000e+000  0.000000e+000 -1.000000e+000
    outer loop
      vertex  4.330127e+000  2.500000e+000  0.000000e+000
      vertex  8.181053e+000  3.907985e-014  0.000000e+000
      vertex  5.000000e+000  1.406861e-015  0.000000e+000
    endloop
  endfacet
  facet normal -3.952180e-001  1.058983e-001 -9.124628e-001
    outer loop
      vertex  5.000000e+000  1.406861e-015  0.000000e+000
      vertex  4.330127e+000 -2.500000e+000  0.000000e+000
      vertex  3.230682e+000 -1.555814e+000  5.857865e-001
    endloop
  endfacet
  facet normal -3.812319e-001  8.701370e-002 -9.203753e-001
    outer loop
      vertex  5.000000e+000  1.406861e-015  0.000000e+000
      vertex  3.230682e+000 -1.555814e+000  5.857865e-001
      vertex  3.585786e+000 -1.687539e-014  5.857865e-001
    endloop
  endfacet
  facet normal  3.812320e-001  8.701368e-002 -9.203754e-001
    outer loop
      vertex -5.000000e+000 -2.312895e-007  0.000000e+000
      vertex -3.585786e+000  9.867000e-008  5.857865e-001
      vertex -3.230682e+000 -1.555815e+000  5.857865e-001
    endloop
  endfacet
  facet normal  3.952181e-001  1.058984e-001 -9.124627e-001
    outer loop
      vertex -5.000000e+000 -2.312895e-007  0.000000e+000
      vertex -3.230682e+000 -1.555815e+000  5.857865e-001
      vertex -4.330127e+000 -2.500000e+000  0.000000e+000
    endloop
  endfacet
  facet normal  8.523178e-001  2.769348e-001 -4.436908e-001
    outer loop
      vertex -3.000000e+000 -3.673819e-016  2.000000e+000
      vertex -2.427051e+000 -1.763356e+000  2.000000e+000
      vertex -3.230682e+000 -1.555815e+000  5.857865e-001
    endloop
  endfacet
  facet normal  9.039996e-001  2.063319e-001 -3.744488e-001
    outer loop
      vertex -3.000000e+000 -3.673819e-016  2.000000e+000
      vertex -3.230682e+000 -1.555815e+000  5.857865e-001
      vertex -3.585786e+000  9.867000e-008  5.857865e-001
    endloop
  endfacet
  facet normal -9.039996e-001  2.063320e-001 -3.744488e-001
    outer loop
      vertex  3.000000e+000  7.347638e-016  2.000000e+000
      vertex  3.585786e+000 -1.687539e-014  5.857865e-001
      vertex  3.230682e+000 -1.555814e+000  5.857865e-001
    endloop
  endfacet
  facet normal -8.523178e-001  2.769348e-001 -4.436907e-001
    outer loop
      vertex  3.000000e+000  7.347638e-016  2.000000e+000
      vertex  3.230682e+000 -1.555814e+000  5.857865e-001
      vertex  2.427051e+000 -1.763356e+000  2.000000e+000
    endloop
  endfacet
  facet normal  7.372971e-001  5.879749e-001 -3.326836e-001
    outer loop
      vertex -2.427051e+000 -1.763356e+000  2.000000e+000
      vertex -2.235701e+000 -2.803481e+000  5.857865e-001
      vertex -3.230682e+000 -1.555815e+000  5.857865e-001
    endloop
  endfacet
  facet normal  4.069440e-001  8.450281e-001 -3.468776e-001
    outer loop
      vertex -9.270510e-001 -2.853169e+000  2.000000e+000
      vertex -7.979125e-001 -3.495883e+000  5.857865e-001
      vertex -2.235701e+000 -2.803481e+000  5.857865e-001
    endloop
  endfacet
  facet normal  5.224551e-001  7.190978e-001 -4.581910e-001
    outer loop
      vertex -9.270510e-001 -2.853169e+000  2.000000e+000
      vertex -2.235701e+000 -2.803481e+000  5.857865e-001
      vertex -2.427051e+000 -1.763356e+000  2.000000e+000
    endloop
  endfacet
  facet normal  2.968615e-001  2.968615e-001 -9.076048e-001
    outer loop
      vertex -2.235701e+000 -2.803481e+000  5.857865e-001
      vertex -2.500000e+000 -4.330127e+000  0.000000e+000
      vertex -4.330127e+000 -2.500000e+000  0.000000e+000
    endloop
  endfacet
  facet normal  2.931576e-001  2.337854e-001 -9.270399e-001
    outer loop
      vertex -2.235701e+000 -2.803481e+000  5.857865e-001
      vertex -4.330127e+000 -2.500000e+000  0.000000e+000
      vertex -3.230682e+000 -1.555815e+000  5.857865e-001
    endloop
  endfacet
  facet normal  1.100918e-001  4.108683e-001 -9.050232e-001
    outer loop
      vertex -7.979125e-001 -3.495883e+000  5.857865e-001
      vertex  1.156447e-007 -5.000000e+000  0.000000e+000
      vertex -2.500000e+000 -4.330127e+000  0.000000e+000
    endloop
  endfacet
  facet normal  1.587389e-001  3.296247e-001 -9.306716e-001
    outer loop
      vertex -7.979125e-001 -3.495883e+000  5.857865e-001
      vertex -2.500000e+000 -4.330127e+000  0.000000e+000
      vertex -2.235701e+000 -2.803481e+000  5.857865e-001
    endloop
  endfacet
  facet normal -4.069441e-001  8.450280e-001 -3.468776e-001
    outer loop
      vertex  9.270510e-001 -2.853169e+000  2.000000e+000
      vertex  2.235701e+000 -2.803481e+000  5.857865e-001
      vertex  7.979126e-001 -3.495883e+000  5.857865e-001
    endloop
  endfacet
  facet normal  0.000000e+000  9.103934e-001 -4.137440e-001
    outer loop
      vertex  9.270510e-001 -2.853169e+000  2.000000e+000
      vertex  7.979126e-001 -3.495883e+000  5.857865e-001
      vertex -9.270510e-001 -2.853169e+000  2.000000e+000
    endloop
  endfacet
  facet normal  0.000000e+000  9.103933e-001 -4.137439e-001
    outer loop
      vertex -9.270510e-001 -2.853169e+000  2.000000e+000
      vertex  7.979126e-001 -3.495883e+000  5.857865e-001
      vertex -7.979125e-001 -3.495883e+000  5.857865e-001
    endloop
  endfacet
  facet normal -1.100919e-001  4.108684e-001 -9.050232e-001
    outer loop
      vertex  7.979126e-001 -3.495883e+000  5.857865e-001
      vertex  2.500000e+000 -4.330127e+000  0.000000e+000
      vertex  1.156447e-007 -5.000000e+000  0.000000e+000
    endloop
  endfacet
  facet normal  0.000000e+000  3.629048e-001 -9.318262e-001
    outer loop
      vertex  7.979126e-001 -3.495883e+000  5.857865e-001
      vertex  1.156447e-007 -5.000000e+000  0.000000e+000
      vertex -7.979125e-001 -3.495883e+000  5.857865e-001
    endloop
  endfacet
  facet normal -7.372972e-001  5.879748e-001 -3.326836e-001
    outer loop
      vertex  2.427051e+000 -1.763356e+000  2.000000e+000
      vertex  3.230682e+000 -1.555814e+000  5.857865e-001
      vertex  2.235701e+000 -2.803481e+000  5.857865e-001
    endloop
  endfacet
  facet normal -5.224551e-001  7.190978e-001 -4.581910e-001
    outer loop
      vertex  2.427051e+000 -1.763356e+000  2.000000e+000
      vertex  2.235701e+000 -2.803481e+000  5.857865e-001
      vertex  9.270510e-001 -2.853169e+000  2.000000e+000
    endloop
  endfacet
  facet normal -2.968614e-001  2.968616e-001 -9.076048e-001
    outer loop
      vertex  2.235701e+000 -2.803481e+000  5.857865e-001
      vertex  4.330127e+000 -2.500000e+000  0.000000e+000
      vertex  2.500000e+000 -4.330127e+000  0.000000e+000
    endloop
  endfacet
  facet normal -1.587389e-001  3.296247e-001 -9.306716e-001
    outer loop
      vertex  2.235701e+000 -2.803481e+000  5.857865e-001
      vertex  2.500000e+000 -4.330127e+000  0.000000e+000
      vertex  7.979126e-001 -3.495883e+000  5.857865e-001
    endloop
  endfacet
  facet normal -2.931575e-001  2.337853e-001 -9.270399e-001
    outer loop
      vertex  3.230682e+000 -1.555814e+000  5.857865e-001
      vertex  4.330127e+000 -2.500000e+000  0.000000e+000
      vertex  2.235701e+000 -2.803481e+000  5.857865e-001
    endloop
  endfacet
  facet normal  3.952181e-001 -1.058984e-001 -9.124627e-001
    outer loop
      vertex -5.000000e+000 -2.312895e-007  0.000000e+000
      vertex -4.330127e+000  2.500000e+000  0.000000e+000
      vertex -3.230682e+000  1.555815e+000  5.857865e-001
    endloop
  endfacet
  facet normal  3.812320e-001 -8.701371e-002 -9.203754e-001
    outer loop
      vertex -5.000000e+000 -2.312895e-007  0.000000e+000
      vertex -3.230682e+000  1.555815e+000  5.857865e-001
      vertex -3.585786e+000  9.867000e-008  5.857865e-001
    endloop
  endfacet
  facet normal -3.812319e-001 -8.701370e-002 -9.203753e-001
    outer loop
      vertex  5.000000e+000  1.406861e-015  0.000000e+000
      vertex  3.585786e+000 -1.687539e-014  5.857865e-001
      vertex  3.230682e+000  1.555814e+000  5.857865e-001
    endloop
  endfacet
  facet normal -3.952180e-001 -1.058983e-001 -9.124628e-001
    outer loop
      vertex  5.000000e+000  1.406861e-015  0.000000e+000
      vertex  3.230682e+000  1.555814e+000  5.857865e-001
      vertex  4.330127e+000  2.500000e+000  0.000000e+000
    endloop
  endfacet
  facet normal -8.523178e-001 -2.769348e-001 -4.436907e-001
    outer loop
      vertex  3.000000e+000  7.347638e-016  2.000000e+000
      vertex  2.427051e+000  1.763356e+000  2.000000e+000
      vertex  3.230682e+000  1.555814e+000  5.857865e-001
    endloop
  endfacet
  facet normal -9.039996e-001 -2.063320e-001 -3.744488e-001
    outer loop
      vertex  3.000000e+000  7.347638e-016  2.000000e+000
      vertex  3.230682e+000  1.555814e+000  5.857865e-001
      vertex  3.585786e+000 -1.687539e-014  5.857865e-001
    endloop
  endfacet
  facet normal  9.039996e-001 -2.063320e-001 -3.744489e-001
    outer loop
      vertex -3.000000e+000 -3.673819e-016  2.000000e+000
      vertex -3.585786e+000  9.867000e-008  5.857865e-001
      vertex -3.230682e+000  1.555815e+000  5.857865e-001
    endloop
  endfacet
  facet normal  8.523178e-001 -2.769348e-001 -4.436908e-001
    outer loop
      vertex -3.000000e+000 -3.673819e-016  2.000000e+000
      vertex -3.230682e+000  1.555815e+000  5.857865e-001
      vertex -2.427051e+000  1.763356e+000  2.000000e+000
    endloop
  endfacet
  facet normal -7.372972e-001 -5.879748e-001 -3.326836e-001
    outer loop
      vertex  2.427051e+000  1.763356e+000  2.000000e+000
      vertex  2.235701e+000  2.803481e+000  5.857865e-001
      vertex  3.230682e+000  1.555814e+000  5.857865e-001
    endloop
  endfacet
  facet normal -4.069441e-001 -8.450280e-001 -3.468776e-001
    outer loop
      vertex  9.270510e-001  2.853169e+000  2.000000e+000
      vertex  7.979126e-001  3.495883e+000  5.857865e-001
      vertex  2.235701e+000  2.803481e+000  5.857865e-001
    endloop
  endfacet
  facet normal -5.224551e-001 -7.190978e-001 -4.581910e-001
    outer loop
      vertex  9.270510e-001  2.853169e+000  2.000000e+000
      vertex  2.235701e+000  2.803481e+000  5.857865e-001
      vertex  2.427051e+000  1.763356e+000  2.000000e+000
    endloop
  endfacet
  facet normal -2.968614e-001 -2.968616e-001 -9.076048e-001
    outer loop
      vertex  2.235701e+000  2.803481e+000  5.857865e-001
      vertex  2.500000e+000  4.330127e+000  0.000000e+000
      vertex  4.330127e+000  2.500000e+000  0.000000e+000
    endloop
  endfacet
  facet normal -2.931575e-001 -2.337853e-001 -9.270399e-001
    outer loop
      vertex  2.235701e+000  2.803481e+000  5.857865e-001
      vertex  4.330127e+000  2.500000e+000  0.000000e+000
      vertex  3.230682e+000  1.555814e+000  5.857865e-001
    endloop
  endfacet
  facet normal -1.100919e-001 -4.108684e-001 -9.050232e-001
    outer loop
      vertex  7.979126e-001  3.495883e+000  5.857865e-001
      vertex  6.879241e-008  5.000000e+000  0.000000e+000
      vertex  2.500000e+000  4.330127e+000  0.000000e+000
    endloop
  endfacet
  facet normal -1.587389e-001 -3.296247e-001 -9.306716e-001
    outer loop
      vertex  7.979126e-001  3.495883e+000  5.857865e-001
      vertex  2.500000e+000  4.330127e+000  0.000000e+000
      vertex  2.235701e+000  2.803481e+000  5.857865e-001
    endloop
  endfacet
  facet normal  4.069439e-001 -8.450281e-001 -3.468776e-001
    outer loop
      vertex -9.270510e-001  2.853169e+000  2.000000e+000
      vertex -2.235701e+000  2.803481e+000  5.857865e-001
      vertex -7.979125e-001  3.495883e+000  5.857865e-001
    endloop
  endfacet
  facet normal  0.000000e+000 -9.103934e-001 -4.137440e-001
    outer loop
      vertex -9.270510e-001  2.853169e+000  2.000000e+000
      vertex -7.979125e-001  3.495883e+000  5.857865e-001
      vertex  9.270510e-001  2.853169e+000  2.000000e+000
    endloop
  endfacet
  facet normal  0.000000e+000 -9.103933e-001 -4.137439e-001
    outer loop
      vertex  9.270510e-001  2.853169e+000  2.000000e+000
      vertex -7.979125e-001  3.495883e+000  5.857865e-001
      vertex  7.979126e-001  3.495883e+000  5.857865e-001
    endloop
  endfacet
  facet normal  1.100918e-001 -4.108683e-001 -9.050232e-001
    outer loop
      vertex -7.979125e-001  3.495883e+000  5.857865e-001
      vertex -2.500000e+000  4.330127e+000  0.000000e+000
      vertex  6.879241e-008  5.000000e+000  0.000000e+000
    endloop
  endfacet
  facet normal  0.000000e+000 -3.629048e-001 -9.318262e-001
    outer loop
      vertex -7.979125e-001  3.495883e+000  5.857865e-001
      vertex  6.879241e-008  5.000000e+000  0.000000e+000
      vertex  7.979126e-001  3.495883e+000  5.857865e-001
    endloop
  endfacet
  facet normal  7.372971e-001 -5.879748e-001 -3.326837e-001
    outer loop
      vertex -2.427051e+000  1.763356e+000  2.000000e+000
      vertex -3.230682e+000  1.555815e+000  5.857865e-001
      vertex -2.235701e+000  2.803481e+000  5.857865e-001
    endloop
  endfacet
  facet normal  5.224550e-001 -7.190977e-001 -4.581911e-001
    outer loop
      vertex -2.427051e+000  1.763356e+000  2.000000e+000
      vertex -2.235701e+000  2.803481e+000  5.857865e-001
      vertex -9.270510e-001  2.853169e+000  2.000000e+000
    endloop
  endfacet
  facet normal  2.968616e-001 -2.968614e-001 -9.076048e-001
    outer loop
      vertex -2.235701e+000  2.803481e+000  5.857865e-001
      vertex -4.330127e+000  2.500000e+000  0.000000e+000
      vertex -2.500000e+000  4.330127e+000  0.000000e+000
    endloop
  endfacet
  facet normal  1.587388e-001 -3.296247e-001 -9.306716e-001
    outer loop
      vertex -2.235701e+000  2.803481e+000  5.857865e-001
      vertex -2.500000e+000  4.330127e+000  0.000000e+000
      vertex -7.979125e-001  3.495883e+000  5.857865e-001
    endloop
  endfacet
  facet normal  2.931576e-001 -2.337854e-001 -9.270399e-001
    outer loop
      vertex -3.230682e+000  1.555815e+000  5.857865e-001
      vertex -4.330127e+000  2.500000e+000  0.000000e+000
      vertex -2.235701e+000  2.803481e+000  5.857865e-001
    endloop
  endfacet
  facet normal  0.000000e+000  0.000000e+000 -1.000000e+000
    outer loop
      vertex  9.270510e-001 -2.853169e+000  5.000000e+001
      vertex -9.270510e-001 -2.853169e+000  5.000000e+001
      vertex  2.427051e+000 -1.763356e+000  5.000000e+001
    endloop
  endfacet
  facet normal  -0.000000e+000  0.000000e+000 -9.999999e-001
    outer loop
      vertex  2.427051e+000 -1.763356e+000  5.000000e+001
      vertex -9.270510e-001 -2.853169e+000  5.000000e+001
      vertex -2.427051e+000 -1.763356e+000  5.000000e+001
    endloop
  endfacet
  facet normal  0.000000e+000  0.000000e+000 -1.000000e+000
    outer loop
      vertex  2.427051e+000 -1.763356e+000  5.000000e+001
      vertex -2.427051e+000 -1.763356e+000  5.000000e+001
      vertex  3.000000e+000  0.000000e+000  5.000000e+001
    endloop
  endfacet
  facet normal  0.000000e+000  0.000000e+000 -9.999999e-001
    outer loop
      vertex  3.000000e+000  0.000000e+000  5.000000e+001
      vertex -2.427051e+000 -1.763356e+000  5.000000e+001
      vertex -3.000000e+000 -3.673819e-016  5.000000e+001
    endloop
  endfacet
  facet normal  0.000000e+000  0.000000e+000 -9.999999e-001
    outer loop
      vertex  3.000000e+000  0.000000e+000  5.000000e+001
      vertex -3.000000e+000 -3.673819e-016  5.000000e+001
      vertex  2.427051e+000  1.763356e+000  5.000000e+001
    endloop
  endfacet
  facet normal  -0.000000e+000  0.000000e+000 -1.000000e+000
    outer loop
      vertex  2.427051e+000  1.763356e+000  5.000000e+001
      vertex -3.000000e+000 -3.673819e-016  5.000000e+001
      vertex -2.427051e+000  1.763356e+000  5.000000e+001
    endloop
  endfacet
  facet normal  0.000000e+000  0.000000e+000 -9.999999e-001
    outer loop
      vertex  2.427051e+000  1.763356e+000  5.000000e+001
      vertex -2.427051e+000  1.763356e+000  5.000000e+001
      vertex  9.270510e-001  2.853169e+000  5.000000e+001
    endloop
  endfacet
  facet normal  -0.000000e+000  0.000000e+000 -1.000000e+000
    outer loop
      vertex  9.270510e-001  2.853169e+000  5.000000e+001
      vertex -2.427051e+000  1.763356e+000  5.000000e+001
      vertex -9.270510e-001  2.853169e+000  5.000000e+001
    endloop
  endfacet
  facet normal  -0.000000e+000  0.000000e+000  1.000000e+000
    outer loop
      vertex  4.090527e+000  7.085000e+000  5.500000e+001
      vertex -4.090527e+000  7.085000e+000  5.500000e+001
      vertex  8.181053e+000  3.907985e-014  5.500000e+001
    endloop
  endfacet
  facet normal  0.000000e+000  0.000000e+000  1.000000e+000
    outer loop
      vertex  8.181053e+000  3.907985e-014  5.500000e+001
      vertex -4.090527e+000  7.085000e+000  5.500000e+001
      vertex -8.181053e+000  1.065814e-014  5.500000e+001
    endloop
  endfacet
  facet normal  -0.000000e+000  0.000000e+000  1.000000e+000
    outer loop
      vertex  8.181053e+000  3.907985e-014  5.500000e+001
      vertex -8.181053e+000  1.065814e-014  5.500000e+001
      vertex  4.090527e+000 -7.085000e+000  5.500000e+001
    endloop
  endfacet
  facet normal  0.000000e+000  0.000000e+000  1.000000e+000
    outer loop
      vertex  4.090527e+000 -7.085000e+000  5.500000e+001
      vertex -8.181053e+000  1.065814e-014  5.500000e+001
      vertex -4.090527e+000 -7.085000e+000  5.500000e+001
    endloop
  endfacet
  facet normal -8.660254e-001 -5.000000e-001  0.000000e+000
    outer loop
      vertex -8.181053e+000  1.065814e-014  0.000000e+000
      vertex -4.090527e+000 -7.085000e+000  0.000000e+000
      vertex -8.181053e+000  1.065814e-014  5.500000e+001
    endloop
  endfacet
  facet normal -8.660254e-001 -5.000000e-001  0.000000e+000
    outer loop
      vertex -8.181053e+000  1.065814e-014  5.500000e+001
      vertex -4.090527e+000 -7.085000e+000  0.000000e+000
      vertex -4.090527e+000 -7.085000e+000  5.500000e+001
    endloop
  endfacet
  facet normal -8.660254e-001  5.000000e-001  0.000000e+000
    outer loop
      vertex -4.090527e+000  7.085000e+000  0.000000e+000
      vertex -8.181053e+000  1.065814e-014  0.000000e+000
      vertex -4.090527e+000  7.085000e+000  5.500000e+001
    endloop
  endfacet
  facet normal -8.660254e-001  5.000000e-001  0.000000e+000
    outer loop
      vertex -4.090527e+000  7.085000e+000  5.500000e+001
      vertex -8.181053e+000  1.065814e-014  0.000000e+000
      vertex -8.181053e+000  1.065814e-014  5.500000e+001
    endloop
  endfacet
  facet normal  0.000000e+000  9.999999e-001  0.000000e+000
    outer loop
      vertex  4.090527e+000  7.085000e+000  0.000000e+000
      vertex -4.090527e+000  7.085000e+000  0.000000e+000
      vertex  4.090527e+000  7.085000e+000  5.500000e+001
    endloop
  endfacet
  facet normal  0.000000e+000  9.999999e-001  0.000000e+000
    outer loop
      vertex  4.090527e+000  7.085000e+000  5.500000e+001
      vertex -4.090527e+000  7.085000e+000  0.000000e+000
      vertex -4.090527e+000  7.085000e+000  5.500000e+001
    endloop
  endfacet
  facet normal  8.660254e-001  5.000000e-001  0.000000e+000
    outer loop
      vertex  8.181053e+000  3.907985e-014  0.000000e+000
      vertex  4.090527e+000  7.085000e+000  0.000000e+000
      vertex  8.181053e+000  3.907985e-014  5.500000e+001
    endloop
  endfacet
  facet normal  8.660254e-001  5.000000e-001  0.000000e+000
    outer loop
      vertex  8.181053e+000  3.907985e-014  5.500000e+001
      vertex  4.090527e+000  7.085000e+000  0.000000e+000
      vertex  4.090527e+000  7.085000e+000  5.500000e+001
    endloop
  endfacet
  facet normal  8.660254e-001 -5.000000e-001  0.000000e+000
    outer loop
      vertex  4.090527e+000 -7.085000e+000  0.000000e+000
      vertex  8.181053e+000  3.907985e-014  0.000000e+000
      vertex  4.090527e+000 -7.085000e+000  5.500000e+001
    endloop
  endfacet
  facet normal  8.660254e-001 -5.000000e-001  0.000000e+000
    outer loop
      vertex  4.090527e+000 -7.085000e+000  5.500000e+001
      vertex  8.181053e+000  3.907985e-014  0.000000e+000
      vertex  8.181053e+000  3.907985e-014  5.500000e+001
    endloop
  endfacet
  facet normal  0.000000e+000 -9.999999e-001  0.000000e+000
    outer loop
      vertex -4.090527e+000 -7.085000e+000  0.000000e+000
      vertex  4.090527e+000 -7.085000e+000  0.000000e+000
      vertex -4.090527e+000 -7.085000e+000  5.500000e+001
    endloop
  endfacet
  facet normal  0.000000e+000 -9.999999e-001  0.000000e+000
    outer loop
      vertex -4.090527e+000 -7.085000e+000  5.500000e+001
      vertex  4.090527e+000 -7.085000e+000  0.000000e+000
      vertex  4.090527e+000 -7.085000e+000  5.500000e+001
    endloop
  endfacet
endsolid CATIA STL
