solid CATIA STL
  facet normal  0.000000e+000 -1.000000e+000  0.000000e+000
    outer loop
      vertex -4.500000e+000  3.690000e+001  1.800000e+001
      vertex -4.500000e+000  3.690000e+001  9.000000e+000
      vertex -1.060660e+000  3.690000e+001  1.456066e+001
    endloop
  endfacet
  facet normal  0.000000e+000 -1.000000e+000  0.000000e+000
    outer loop
      vertex -4.500000e+000  3.690000e+001  1.800000e+001
      vertex -1.060660e+000  3.690000e+001  1.456066e+001
      vertex  9.184548e-017  3.690000e+001  1.500000e+001
    endloop
  endfacet
  facet normal  0.000000e+000 -9.999999e-001  0.000000e+000
    outer loop
      vertex -4.500000e+000  3.690000e+001  1.800000e+001
      vertex  9.184548e-017  3.690000e+001  1.500000e+001
      vertex  1.060660e+000  3.690000e+001  1.456066e+001
    endloop
  endfacet
  facet normal  0.000000e+000 -9.999999e-001  0.000000e+000
    outer loop
      vertex -4.500000e+000  3.690000e+001  1.800000e+001
      vertex  1.060660e+000  3.690000e+001  1.456066e+001
      vertex  4.500000e+000  3.690000e+001  1.800000e+001
    endloop
  endfacet
  facet normal  0.000000e+000 -1.000000e+000  -0.000000e+000
    outer loop
      vertex  4.500000e+000  3.690000e+001  9.000000e+000
      vertex  4.500000e+000  3.690000e+001  1.800000e+001
      vertex  1.060660e+000  3.690000e+001  1.456066e+001
    endloop
  endfacet
  facet normal  0.000000e+000 -1.000000e+000  0.000000e+000
    outer loop
      vertex  4.500000e+000  3.690000e+001  9.000000e+000
      vertex  1.060660e+000  3.690000e+001  1.456066e+001
      vertex  1.500000e+000  3.690000e+001  1.350000e+001
    endloop
  endfacet
  facet normal  0.000000e+000 -1.000000e+000  -0.000000e+000
    outer loop
      vertex  4.500000e+000  3.690000e+001  9.000000e+000
      vertex  1.500000e+000  3.690000e+001  1.350000e+001
      vertex  1.060660e+000  3.690000e+001  1.243934e+001
    endloop
  endfacet
  facet normal  0.000000e+000 -1.000000e+000  -0.000000e+000
    outer loop
      vertex  4.500000e+000  3.690000e+001  9.000000e+000
      vertex  1.060660e+000  3.690000e+001  1.243934e+001
      vertex -2.755364e-016  3.690000e+001  1.200000e+001
    endloop
  endfacet
  facet normal  0.000000e+000 -1.000000e+000  -0.000000e+000
    outer loop
      vertex  4.500000e+000  3.690000e+001  9.000000e+000
      vertex -2.755364e-016  3.690000e+001  1.200000e+001
      vertex -4.500000e+000  3.690000e+001  9.000000e+000
    endloop
  endfacet
  facet normal  -0.000000e+000 -1.000000e+000  0.000000e+000
    outer loop
      vertex -4.500000e+000  3.690000e+001  9.000000e+000
      vertex -2.755364e-016  3.690000e+001  1.200000e+001
      vertex -1.060660e+000  3.690000e+001  1.243934e+001
    endloop
  endfacet
  facet normal  -0.000000e+000 -1.000000e+000  0.000000e+000
    outer loop
      vertex -4.500000e+000  3.690000e+001  9.000000e+000
      vertex -1.060660e+000  3.690000e+001  1.243934e+001
      vertex -1.500000e+000  3.690000e+001  1.350000e+001
    endloop
  endfacet
  facet normal  -0.000000e+000 -1.000000e+000  0.000000e+000
    outer loop
      vertex -4.500000e+000  3.690000e+001  9.000000e+000
      vertex -1.500000e+000  3.690000e+001  1.350000e+001
      vertex -1.060660e+000  3.690000e+001  1.456066e+001
    endloop
  endfacet
  facet normal  0.000000e+000  1.000000e+000  0.000000e+000
    outer loop
      vertex -2.755364e-016  4.390000e+001  1.200000e+001
      vertex  9.184548e-017  4.390000e+001  6.000000e+000
      vertex -1.060660e+000  4.390000e+001  5.560660e+000
    endloop
  endfacet
  facet normal  0.000000e+000  1.000000e+000  0.000000e+000
    outer loop
      vertex  9.184548e-017  4.390000e+001  6.000000e+000
      vertex -2.755364e-016  4.390000e+001  1.200000e+001
      vertex  1.060660e+000  4.390000e+001  5.560660e+000
    endloop
  endfacet
  facet normal  0.000000e+000  1.000000e+000  0.000000e+000
    outer loop
      vertex -4.500000e+000  4.390000e+001  1.800000e+001
      vertex  4.500000e+000  4.390000e+001  1.800000e+001
      vertex  9.184548e-017  4.390000e+001  1.500000e+001
    endloop
  endfacet
  facet normal  0.000000e+000  1.000000e+000  0.000000e+000
    outer loop
      vertex -4.500000e+000  4.390000e+001  1.800000e+001
      vertex  9.184548e-017  4.390000e+001  1.500000e+001
      vertex -1.060660e+000  4.390000e+001  1.456066e+001
    endloop
  endfacet
  facet normal  0.000000e+000  1.000000e+000  0.000000e+000
    outer loop
      vertex -4.500000e+000  4.390000e+001  1.800000e+001
      vertex -1.060660e+000  4.390000e+001  1.456066e+001
      vertex -1.500000e+000  4.390000e+001  1.350000e+001
    endloop
  endfacet
  facet normal  0.000000e+000  1.000000e+000  0.000000e+000
    outer loop
      vertex -4.500000e+000  4.390000e+001  1.800000e+001
      vertex -1.500000e+000  4.390000e+001  1.350000e+001
      vertex -4.500000e+000  4.390000e+001  0.000000e+000
    endloop
  endfacet
  facet normal  0.000000e+000  1.000000e+000  0.000000e+000
    outer loop
      vertex -4.500000e+000  4.390000e+001  0.000000e+000
      vertex -1.500000e+000  4.390000e+001  1.350000e+001
      vertex -1.060660e+000  4.390000e+001  1.243934e+001
    endloop
  endfacet
  facet normal  0.000000e+000  1.000000e+000  0.000000e+000
    outer loop
      vertex -4.500000e+000  4.390000e+001  0.000000e+000
      vertex -1.060660e+000  4.390000e+001  1.243934e+001
      vertex -2.755364e-016  4.390000e+001  1.200000e+001
    endloop
  endfacet
  facet normal  0.000000e+000  1.000000e+000  0.000000e+000
    outer loop
      vertex -4.500000e+000  4.390000e+001  0.000000e+000
      vertex -2.755364e-016  4.390000e+001  1.200000e+001
      vertex -1.060660e+000  4.390000e+001  5.560660e+000
    endloop
  endfacet
  facet normal  0.000000e+000  1.000000e+000  0.000000e+000
    outer loop
      vertex -4.500000e+000  4.390000e+001  0.000000e+000
      vertex -1.060660e+000  4.390000e+001  5.560660e+000
      vertex -1.500000e+000  4.390000e+001  4.500000e+000
    endloop
  endfacet
  facet normal  0.000000e+000  1.000000e+000  0.000000e+000
    outer loop
      vertex -4.500000e+000  4.390000e+001  0.000000e+000
      vertex -1.500000e+000  4.390000e+001  4.500000e+000
      vertex -1.060660e+000  4.390000e+001  3.439340e+000
    endloop
  endfacet
  facet normal  0.000000e+000  1.000000e+000  0.000000e+000
    outer loop
      vertex -4.500000e+000  4.390000e+001  0.000000e+000
      vertex -1.060660e+000  4.390000e+001  3.439340e+000
      vertex -2.755364e-016  4.390000e+001  3.000000e+000
    endloop
  endfacet
  facet normal  0.000000e+000  1.000000e+000  0.000000e+000
    outer loop
      vertex -4.500000e+000  4.390000e+001  0.000000e+000
      vertex -2.755364e-016  4.390000e+001  3.000000e+000
      vertex  4.500000e+000  4.390000e+001  0.000000e+000
    endloop
  endfacet
  facet normal  -0.000000e+000  1.000000e+000  0.000000e+000
    outer loop
      vertex  4.500000e+000  4.390000e+001  0.000000e+000
      vertex -2.755364e-016  4.390000e+001  3.000000e+000
      vertex  1.060660e+000  4.390000e+001  3.439340e+000
    endloop
  endfacet
  facet normal  -0.000000e+000  1.000000e+000  0.000000e+000
    outer loop
      vertex  4.500000e+000  4.390000e+001  0.000000e+000
      vertex  1.060660e+000  4.390000e+001  3.439340e+000
      vertex  1.500000e+000  4.390000e+001  4.500000e+000
    endloop
  endfacet
  facet normal  -0.000000e+000  1.000000e+000  -0.000000e+000
    outer loop
      vertex  4.500000e+000  4.390000e+001  0.000000e+000
      vertex  1.500000e+000  4.390000e+001  4.500000e+000
      vertex  1.060660e+000  4.390000e+001  5.560660e+000
    endloop
  endfacet
  facet normal  -0.000000e+000  1.000000e+000  -0.000000e+000
    outer loop
      vertex  4.500000e+000  4.390000e+001  0.000000e+000
      vertex  1.060660e+000  4.390000e+001  5.560660e+000
      vertex -2.755364e-016  4.390000e+001  1.200000e+001
    endloop
  endfacet
  facet normal  -0.000000e+000  1.000000e+000  0.000000e+000
    outer loop
      vertex  4.500000e+000  4.390000e+001  0.000000e+000
      vertex -2.755364e-016  4.390000e+001  1.200000e+001
      vertex  1.060660e+000  4.390000e+001  1.243934e+001
    endloop
  endfacet
  facet normal  -0.000000e+000  1.000000e+000  0.000000e+000
    outer loop
      vertex  4.500000e+000  4.390000e+001  0.000000e+000
      vertex  1.060660e+000  4.390000e+001  1.243934e+001
      vertex  1.500000e+000  4.390000e+001  1.350000e+001
    endloop
  endfacet
  facet normal  0.000000e+000  1.000000e+000  -0.000000e+000
    outer loop
      vertex  4.500000e+000  4.390000e+001  1.800000e+001
      vertex  4.500000e+000  4.390000e+001  0.000000e+000
      vertex  1.500000e+000  4.390000e+001  1.350000e+001
    endloop
  endfacet
  facet normal  0.000000e+000  1.000000e+000  -0.000000e+000
    outer loop
      vertex  4.500000e+000  4.390000e+001  1.800000e+001
      vertex  1.500000e+000  4.390000e+001  1.350000e+001
      vertex  1.060660e+000  4.390000e+001  1.456066e+001
    endloop
  endfacet
  facet normal  0.000000e+000  1.000000e+000  -0.000000e+000
    outer loop
      vertex  4.500000e+000  4.390000e+001  1.800000e+001
      vertex  1.060660e+000  4.390000e+001  1.456066e+001
      vertex  9.184548e-017  4.390000e+001  1.500000e+001
    endloop
  endfacet
  facet normal -3.826833e-001  0.000000e+000  9.238796e-001
    outer loop
      vertex -2.755364e-016  4.390000e+001  1.200000e+001
      vertex  1.060660e+000  3.690000e+001  1.243934e+001
      vertex  1.060660e+000  4.390000e+001  1.243934e+001
    endloop
  endfacet
  facet normal -9.238796e-001  0.000000e+000  3.826834e-001
    outer loop
      vertex  1.060660e+000  4.390000e+001  1.243934e+001
      vertex  1.060660e+000  3.690000e+001  1.243934e+001
      vertex  1.500000e+000  3.690000e+001  1.350000e+001
    endloop
  endfacet
  facet normal -9.238796e-001  0.000000e+000  3.826834e-001
    outer loop
      vertex  1.060660e+000  4.390000e+001  1.243934e+001
      vertex  1.500000e+000  3.690000e+001  1.350000e+001
      vertex  1.500000e+000  4.390000e+001  1.350000e+001
    endloop
  endfacet
  facet normal -3.826833e-001  0.000000e+000  9.238796e-001
    outer loop
      vertex  1.060660e+000  3.690000e+001  1.243934e+001
      vertex -2.755364e-016  4.390000e+001  1.200000e+001
      vertex -2.755364e-016  3.690000e+001  1.200000e+001
    endloop
  endfacet
  facet normal  3.826833e-001  -0.000000e+000  9.238796e-001
    outer loop
      vertex -2.755364e-016  3.690000e+001  1.200000e+001
      vertex -2.755364e-016  4.390000e+001  1.200000e+001
      vertex -1.060660e+000  4.390000e+001  1.243934e+001
    endloop
  endfacet
  facet normal  3.826833e-001  0.000000e+000  9.238796e-001
    outer loop
      vertex -2.755364e-016  3.690000e+001  1.200000e+001
      vertex -1.060660e+000  4.390000e+001  1.243934e+001
      vertex -1.060660e+000  3.690000e+001  1.243934e+001
    endloop
  endfacet
  facet normal  9.238796e-001  -0.000000e+000  3.826834e-001
    outer loop
      vertex -1.060660e+000  3.690000e+001  1.243934e+001
      vertex -1.060660e+000  4.390000e+001  1.243934e+001
      vertex -1.500000e+000  4.390000e+001  1.350000e+001
    endloop
  endfacet
  facet normal  9.238796e-001  0.000000e+000  3.826834e-001
    outer loop
      vertex -1.060660e+000  3.690000e+001  1.243934e+001
      vertex -1.500000e+000  4.390000e+001  1.350000e+001
      vertex -1.500000e+000  3.690000e+001  1.350000e+001
    endloop
  endfacet
  facet normal  3.826833e-001  0.000000e+000 -9.238796e-001
    outer loop
      vertex  9.184548e-017  4.390000e+001  1.500000e+001
      vertex -1.060660e+000  3.690000e+001  1.456066e+001
      vertex -1.060660e+000  4.390000e+001  1.456066e+001
    endloop
  endfacet
  facet normal  9.238796e-001  0.000000e+000 -3.826834e-001
    outer loop
      vertex -1.060660e+000  4.390000e+001  1.456066e+001
      vertex -1.060660e+000  3.690000e+001  1.456066e+001
      vertex -1.500000e+000  3.690000e+001  1.350000e+001
    endloop
  endfacet
  facet normal  9.238796e-001  0.000000e+000 -3.826834e-001
    outer loop
      vertex -1.060660e+000  4.390000e+001  1.456066e+001
      vertex -1.500000e+000  3.690000e+001  1.350000e+001
      vertex -1.500000e+000  4.390000e+001  1.350000e+001
    endloop
  endfacet
  facet normal  3.826833e-001  0.000000e+000 -9.238796e-001
    outer loop
      vertex -1.060660e+000  3.690000e+001  1.456066e+001
      vertex  9.184548e-017  4.390000e+001  1.500000e+001
      vertex  9.184548e-017  3.690000e+001  1.500000e+001
    endloop
  endfacet
  facet normal -3.826833e-001  0.000000e+000 -9.238796e-001
    outer loop
      vertex  9.184548e-017  3.690000e+001  1.500000e+001
      vertex  9.184548e-017  4.390000e+001  1.500000e+001
      vertex  1.060660e+000  4.390000e+001  1.456066e+001
    endloop
  endfacet
  facet normal -3.826833e-001  -0.000000e+000 -9.238796e-001
    outer loop
      vertex  9.184548e-017  3.690000e+001  1.500000e+001
      vertex  1.060660e+000  4.390000e+001  1.456066e+001
      vertex  1.060660e+000  3.690000e+001  1.456066e+001
    endloop
  endfacet
  facet normal -9.238796e-001  0.000000e+000 -3.826834e-001
    outer loop
      vertex  1.060660e+000  3.690000e+001  1.456066e+001
      vertex  1.060660e+000  4.390000e+001  1.456066e+001
      vertex  1.500000e+000  4.390000e+001  1.350000e+001
    endloop
  endfacet
  facet normal -9.238796e-001  -0.000000e+000 -3.826834e-001
    outer loop
      vertex  1.060660e+000  3.690000e+001  1.456066e+001
      vertex  1.500000e+000  4.390000e+001  1.350000e+001
      vertex  1.500000e+000  3.690000e+001  1.350000e+001
    endloop
  endfacet
  facet normal  0.000000e+000 -1.000000e+000  0.000000e+000
    outer loop
      vertex -4.500000e+000 -4.390000e+001  9.000000e+000
      vertex -4.500000e+000 -4.390000e+001  0.000000e+000
      vertex -1.060660e+000 -4.390000e+001  5.560660e+000
    endloop
  endfacet
  facet normal  0.000000e+000 -1.000000e+000  0.000000e+000
    outer loop
      vertex -4.500000e+000 -4.390000e+001  9.000000e+000
      vertex -1.060660e+000 -4.390000e+001  5.560660e+000
      vertex  9.184548e-017 -4.390000e+001  6.000000e+000
    endloop
  endfacet
  facet normal  0.000000e+000 -9.999999e-001  0.000000e+000
    outer loop
      vertex -4.500000e+000 -4.390000e+001  9.000000e+000
      vertex  9.184548e-017 -4.390000e+001  6.000000e+000
      vertex  1.060660e+000 -4.390000e+001  5.560660e+000
    endloop
  endfacet
  facet normal  0.000000e+000 -9.999999e-001  0.000000e+000
    outer loop
      vertex -4.500000e+000 -4.390000e+001  9.000000e+000
      vertex  1.060660e+000 -4.390000e+001  5.560660e+000
      vertex  4.500000e+000 -4.390000e+001  9.000000e+000
    endloop
  endfacet
  facet normal  0.000000e+000 -1.000000e+000  -0.000000e+000
    outer loop
      vertex  4.500000e+000 -4.390000e+001  0.000000e+000
      vertex  4.500000e+000 -4.390000e+001  9.000000e+000
      vertex  1.060660e+000 -4.390000e+001  5.560660e+000
    endloop
  endfacet
  facet normal  0.000000e+000 -1.000000e+000  0.000000e+000
    outer loop
      vertex  4.500000e+000 -4.390000e+001  0.000000e+000
      vertex  1.060660e+000 -4.390000e+001  5.560660e+000
      vertex  1.500000e+000 -4.390000e+001  4.500000e+000
    endloop
  endfacet
  facet normal  0.000000e+000 -1.000000e+000  -0.000000e+000
    outer loop
      vertex  4.500000e+000 -4.390000e+001  0.000000e+000
      vertex  1.500000e+000 -4.390000e+001  4.500000e+000
      vertex  1.060660e+000 -4.390000e+001  3.439340e+000
    endloop
  endfacet
  facet normal  0.000000e+000 -1.000000e+000  -0.000000e+000
    outer loop
      vertex  4.500000e+000 -4.390000e+001  0.000000e+000
      vertex  1.060660e+000 -4.390000e+001  3.439340e+000
      vertex -2.755364e-016 -4.390000e+001  3.000000e+000
    endloop
  endfacet
  facet normal  0.000000e+000 -1.000000e+000  -0.000000e+000
    outer loop
      vertex  4.500000e+000 -4.390000e+001  0.000000e+000
      vertex -2.755364e-016 -4.390000e+001  3.000000e+000
      vertex -4.500000e+000 -4.390000e+001  0.000000e+000
    endloop
  endfacet
  facet normal  -0.000000e+000 -1.000000e+000  0.000000e+000
    outer loop
      vertex -4.500000e+000 -4.390000e+001  0.000000e+000
      vertex -2.755364e-016 -4.390000e+001  3.000000e+000
      vertex -1.060660e+000 -4.390000e+001  3.439340e+000
    endloop
  endfacet
  facet normal  -0.000000e+000 -1.000000e+000  0.000000e+000
    outer loop
      vertex -4.500000e+000 -4.390000e+001  0.000000e+000
      vertex -1.060660e+000 -4.390000e+001  3.439340e+000
      vertex -1.500000e+000 -4.390000e+001  4.500000e+000
    endloop
  endfacet
  facet normal  -0.000000e+000 -1.000000e+000  0.000000e+000
    outer loop
      vertex -4.500000e+000 -4.390000e+001  0.000000e+000
      vertex -1.500000e+000 -4.390000e+001  4.500000e+000
      vertex -1.060660e+000 -4.390000e+001  5.560660e+000
    endloop
  endfacet
  facet normal -3.826835e-001  0.000000e+000  9.238796e-001
    outer loop
      vertex -2.755364e-016  4.390000e+001  3.000000e+000
      vertex  1.060660e+000 -4.390000e+001  3.439340e+000
      vertex  1.060660e+000  4.390000e+001  3.439340e+000
    endloop
  endfacet
  facet normal -9.238796e-001  0.000000e+000  3.826835e-001
    outer loop
      vertex  1.060660e+000  4.390000e+001  3.439340e+000
      vertex  1.060660e+000 -4.390000e+001  3.439340e+000
      vertex  1.500000e+000 -4.390000e+001  4.500000e+000
    endloop
  endfacet
  facet normal -9.238796e-001  0.000000e+000  3.826835e-001
    outer loop
      vertex  1.060660e+000  4.390000e+001  3.439340e+000
      vertex  1.500000e+000 -4.390000e+001  4.500000e+000
      vertex  1.500000e+000  4.390000e+001  4.500000e+000
    endloop
  endfacet
  facet normal -3.826835e-001  0.000000e+000  9.238796e-001
    outer loop
      vertex  1.060660e+000 -4.390000e+001  3.439340e+000
      vertex -2.755364e-016  4.390000e+001  3.000000e+000
      vertex -2.755364e-016 -4.390000e+001  3.000000e+000
    endloop
  endfacet
  facet normal  3.826835e-001  -0.000000e+000  9.238796e-001
    outer loop
      vertex -2.755364e-016 -4.390000e+001  3.000000e+000
      vertex -2.755364e-016  4.390000e+001  3.000000e+000
      vertex -1.060660e+000  4.390000e+001  3.439340e+000
    endloop
  endfacet
  facet normal  3.826835e-001  0.000000e+000  9.238796e-001
    outer loop
      vertex -2.755364e-016 -4.390000e+001  3.000000e+000
      vertex -1.060660e+000  4.390000e+001  3.439340e+000
      vertex -1.060660e+000 -4.390000e+001  3.439340e+000
    endloop
  endfacet
  facet normal  9.238796e-001  -0.000000e+000  3.826835e-001
    outer loop
      vertex -1.060660e+000 -4.390000e+001  3.439340e+000
      vertex -1.060660e+000  4.390000e+001  3.439340e+000
      vertex -1.500000e+000  4.390000e+001  4.500000e+000
    endloop
  endfacet
  facet normal  9.238796e-001  0.000000e+000  3.826835e-001
    outer loop
      vertex -1.060660e+000 -4.390000e+001  3.439340e+000
      vertex -1.500000e+000  4.390000e+001  4.500000e+000
      vertex -1.500000e+000 -4.390000e+001  4.500000e+000
    endloop
  endfacet
  facet normal  3.826833e-001  0.000000e+000 -9.238796e-001
    outer loop
      vertex  9.184548e-017  4.390000e+001  6.000000e+000
      vertex -1.060660e+000 -4.390000e+001  5.560660e+000
      vertex -1.060660e+000  4.390000e+001  5.560660e+000
    endloop
  endfacet
  facet normal  9.238796e-001  0.000000e+000 -3.826834e-001
    outer loop
      vertex -1.060660e+000  4.390000e+001  5.560660e+000
      vertex -1.060660e+000 -4.390000e+001  5.560660e+000
      vertex -1.500000e+000 -4.390000e+001  4.500000e+000
    endloop
  endfacet
  facet normal  9.238796e-001  0.000000e+000 -3.826834e-001
    outer loop
      vertex -1.060660e+000  4.390000e+001  5.560660e+000
      vertex -1.500000e+000 -4.390000e+001  4.500000e+000
      vertex -1.500000e+000  4.390000e+001  4.500000e+000
    endloop
  endfacet
  facet normal  3.826833e-001  0.000000e+000 -9.238796e-001
    outer loop
      vertex -1.060660e+000 -4.390000e+001  5.560660e+000
      vertex  9.184548e-017  4.390000e+001  6.000000e+000
      vertex  9.184548e-017 -4.390000e+001  6.000000e+000
    endloop
  endfacet
  facet normal -3.826833e-001  0.000000e+000 -9.238796e-001
    outer loop
      vertex  9.184548e-017 -4.390000e+001  6.000000e+000
      vertex  9.184548e-017  4.390000e+001  6.000000e+000
      vertex  1.060660e+000  4.390000e+001  5.560660e+000
    endloop
  endfacet
  facet normal -3.826833e-001  -0.000000e+000 -9.238796e-001
    outer loop
      vertex  9.184548e-017 -4.390000e+001  6.000000e+000
      vertex  1.060660e+000  4.390000e+001  5.560660e+000
      vertex  1.060660e+000 -4.390000e+001  5.560660e+000
    endloop
  endfacet
  facet normal -9.238796e-001  0.000000e+000 -3.826834e-001
    outer loop
      vertex  1.060660e+000 -4.390000e+001  5.560660e+000
      vertex  1.060660e+000  4.390000e+001  5.560660e+000
      vertex  1.500000e+000  4.390000e+001  4.500000e+000
    endloop
  endfacet
  facet normal -9.238796e-001  -0.000000e+000 -3.826834e-001
    outer loop
      vertex  1.060660e+000 -4.390000e+001  5.560660e+000
      vertex  1.500000e+000  4.390000e+001  4.500000e+000
      vertex  1.500000e+000 -4.390000e+001  4.500000e+000
    endloop
  endfacet
  facet normal  0.000000e+000  0.000000e+000 -1.000000e+000
    outer loop
      vertex -4.500000e+000 -4.390000e+001  0.000000e+000
      vertex -4.500000e+000  4.390000e+001  0.000000e+000
      vertex  4.500000e+000 -4.390000e+001  0.000000e+000
    endloop
  endfacet
  facet normal  0.000000e+000  0.000000e+000 -1.000000e+000
    outer loop
      vertex  4.500000e+000 -4.390000e+001  0.000000e+000
      vertex -4.500000e+000  4.390000e+001  0.000000e+000
      vertex  4.500000e+000  4.390000e+001  0.000000e+000
    endloop
  endfacet
  facet normal  0.000000e+000  0.000000e+000  1.000000e+000
    outer loop
      vertex -4.500000e+000  3.690000e+001  1.800000e+001
      vertex  4.500000e+000  3.690000e+001  1.800000e+001
      vertex -4.500000e+000  4.390000e+001  1.800000e+001
    endloop
  endfacet
  facet normal  -0.000000e+000  0.000000e+000  1.000000e+000
    outer loop
      vertex -4.500000e+000  4.390000e+001  1.800000e+001
      vertex  4.500000e+000  3.690000e+001  1.800000e+001
      vertex  4.500000e+000  4.390000e+001  1.800000e+001
    endloop
  endfacet
  facet normal -1.000000e+000  0.000000e+000  0.000000e+000
    outer loop
      vertex -4.500000e+000  4.390000e+001  1.800000e+001
      vertex -4.500000e+000  4.390000e+001  0.000000e+000
      vertex -4.500000e+000  3.690000e+001  1.800000e+001
    endloop
  endfacet
  facet normal -1.000000e+000  0.000000e+000  0.000000e+000
    outer loop
      vertex -4.500000e+000  3.690000e+001  1.800000e+001
      vertex -4.500000e+000  4.390000e+001  0.000000e+000
      vertex -4.500000e+000  3.690000e+001  9.000000e+000
    endloop
  endfacet
  facet normal -1.000000e+000  0.000000e+000  0.000000e+000
    outer loop
      vertex -4.500000e+000  4.390000e+001  0.000000e+000
      vertex -4.500000e+000 -4.390000e+001  0.000000e+000
      vertex -4.500000e+000  3.690000e+001  9.000000e+000
    endloop
  endfacet
  facet normal -1.000000e+000  -0.000000e+000  0.000000e+000
    outer loop
      vertex -4.500000e+000  3.690000e+001  9.000000e+000
      vertex -4.500000e+000 -4.390000e+001  0.000000e+000
      vertex -4.500000e+000 -4.390000e+001  9.000000e+000
    endloop
  endfacet
  facet normal  1.000000e+000  0.000000e+000  0.000000e+000
    outer loop
      vertex  4.500000e+000 -4.390000e+001  0.000000e+000
      vertex  4.500000e+000  4.390000e+001  0.000000e+000
      vertex  4.500000e+000 -4.390000e+001  9.000000e+000
    endloop
  endfacet
  facet normal  1.000000e+000  -0.000000e+000  0.000000e+000
    outer loop
      vertex  4.500000e+000 -4.390000e+001  9.000000e+000
      vertex  4.500000e+000  4.390000e+001  0.000000e+000
      vertex  4.500000e+000  3.690000e+001  9.000000e+000
    endloop
  endfacet
  facet normal  1.000000e+000  0.000000e+000  0.000000e+000
    outer loop
      vertex  4.500000e+000  4.390000e+001  0.000000e+000
      vertex  4.500000e+000  4.390000e+001  1.800000e+001
      vertex  4.500000e+000  3.690000e+001  9.000000e+000
    endloop
  endfacet
  facet normal  1.000000e+000  0.000000e+000  0.000000e+000
    outer loop
      vertex  4.500000e+000  3.690000e+001  9.000000e+000
      vertex  4.500000e+000  4.390000e+001  1.800000e+001
      vertex  4.500000e+000  3.690000e+001  1.800000e+001
    endloop
  endfacet
  facet normal  0.000000e+000  0.000000e+000  1.000000e+000
    outer loop
      vertex -4.500000e+000 -4.390000e+001  9.000000e+000
      vertex  4.500000e+000 -4.390000e+001  9.000000e+000
      vertex -4.500000e+000  3.690000e+001  9.000000e+000
    endloop
  endfacet
  facet normal  -0.000000e+000  0.000000e+000  1.000000e+000
    outer loop
      vertex -4.500000e+000  3.690000e+001  9.000000e+000
      vertex  4.500000e+000 -4.390000e+001  9.000000e+000
      vertex  4.500000e+000  3.690000e+001  9.000000e+000
    endloop
  endfacet
endsolid CATIA STL
