solid CATIA STL
  facet normal  0.000000e+000  -0.000000e+000  1.000000e+000
    outer loop
      vertex -1.500000e+001 -1.000000e+001  7.000000e+000
      vertex -1.106066e+001 -1.193934e+001  7.000000e+000
      vertex -1.000000e+001 -1.150000e+001  7.000000e+000
    endloop
  endfacet
  facet normal  -0.000000e+000  0.000000e+000  1.000000e+000
    outer loop
      vertex -9.000000e+000 -1.000000e+001  7.000000e+000
      vertex -1.500000e+001 -1.000000e+001  7.000000e+000
      vertex -1.000000e+001 -1.150000e+001  7.000000e+000
    endloop
  endfacet
  facet normal  -0.000000e+000  0.000000e+000  1.000000e+000
    outer loop
      vertex -9.000000e+000 -1.000000e+001  7.000000e+000
      vertex -1.000000e+001 -1.150000e+001  7.000000e+000
      vertex -8.939340e+000 -1.193934e+001  7.000000e+000
    endloop
  endfacet
  facet normal  -0.000000e+000  -0.000000e+000  9.999999e-001
    outer loop
      vertex -9.000000e+000 -1.000000e+001  7.000000e+000
      vertex -8.939340e+000 -1.193934e+001  7.000000e+000
      vertex -8.500000e+000 -1.300000e+001  7.000000e+000
    endloop
  endfacet
  facet normal  0.000000e+000  -0.000000e+000  9.999999e-001
    outer loop
      vertex -9.000000e+000 -1.000000e+001  7.000000e+000
      vertex -8.500000e+000 -1.300000e+001  7.000000e+000
      vertex -2.755364e-016 -6.500000e+000  7.000000e+000
    endloop
  endfacet
  facet normal  0.000000e+000  0.000000e+000  1.000000e+000
    outer loop
      vertex -9.000000e+000 -1.000000e+001  7.000000e+000
      vertex -2.755364e-016 -6.500000e+000  7.000000e+000
      vertex -1.060660e+000 -6.060660e+000  7.000000e+000
    endloop
  endfacet
  facet normal  0.000000e+000  0.000000e+000  9.999999e-001
    outer loop
      vertex -9.000000e+000 -1.000000e+001  7.000000e+000
      vertex -1.060660e+000 -6.060660e+000  7.000000e+000
      vertex -1.500000e+000 -5.000000e+000  7.000000e+000
    endloop
  endfacet
  facet normal  0.000000e+000  -0.000000e+000  1.000000e+000
    outer loop
      vertex -9.000000e+000 -1.000000e+001  7.000000e+000
      vertex -1.500000e+000 -5.000000e+000  7.000000e+000
      vertex -1.060660e+000 -3.939340e+000  7.000000e+000
    endloop
  endfacet
  facet normal  0.000000e+000  0.000000e+000  1.000000e+000
    outer loop
      vertex -9.000000e+000  0.000000e+000  7.000000e+000
      vertex -9.000000e+000 -1.000000e+001  7.000000e+000
      vertex -1.060660e+000 -3.939340e+000  7.000000e+000
    endloop
  endfacet
  facet normal  0.000000e+000  -0.000000e+000  9.999999e-001
    outer loop
      vertex -9.000000e+000  0.000000e+000  7.000000e+000
      vertex -1.060660e+000 -3.939340e+000  7.000000e+000
      vertex  9.184548e-017 -3.500000e+000  7.000000e+000
    endloop
  endfacet
  facet normal  0.000000e+000  0.000000e+000  1.000000e+000
    outer loop
      vertex -9.000000e+000  0.000000e+000  7.000000e+000
      vertex  9.184548e-017 -3.500000e+000  7.000000e+000
      vertex -4.000000e+000  0.000000e+000  7.000000e+000
    endloop
  endfacet
  facet normal  -0.000000e+000  0.000000e+000  1.000000e+000
    outer loop
      vertex  9.000000e+000  1.776357e-015  7.000000e+000
      vertex  4.000000e+000 -1.776357e-015  7.000000e+000
      vertex  9.184548e-017 -3.500000e+000  7.000000e+000
    endloop
  endfacet
  facet normal  -0.000000e+000  0.000000e+000  9.999999e-001
    outer loop
      vertex  9.000000e+000  1.776357e-015  7.000000e+000
      vertex  9.184548e-017 -3.500000e+000  7.000000e+000
      vertex  1.060660e+000 -3.939340e+000  7.000000e+000
    endloop
  endfacet
  facet normal  -0.000000e+000  0.000000e+000  1.000000e+000
    outer loop
      vertex  9.000000e+000  1.776357e-015  7.000000e+000
      vertex  1.060660e+000 -3.939340e+000  7.000000e+000
      vertex  9.000000e+000 -1.000000e+001  7.000000e+000
    endloop
  endfacet
  facet normal  -0.000000e+000  0.000000e+000  1.000000e+000
    outer loop
      vertex  1.500000e+001 -1.000000e+001  7.000000e+000
      vertex  9.000000e+000 -1.000000e+001  7.000000e+000
      vertex  1.000000e+001 -1.150000e+001  7.000000e+000
    endloop
  endfacet
  facet normal  -0.000000e+000  0.000000e+000  1.000000e+000
    outer loop
      vertex  1.500000e+001 -1.000000e+001  7.000000e+000
      vertex  1.000000e+001 -1.150000e+001  7.000000e+000
      vertex  1.106066e+001 -1.193934e+001  7.000000e+000
    endloop
  endfacet
  facet normal  -0.000000e+000  0.000000e+000  1.000000e+000
    outer loop
      vertex  1.500000e+001 -1.000000e+001  7.000000e+000
      vertex  1.106066e+001 -1.193934e+001  7.000000e+000
      vertex  1.500000e+001 -1.500000e+001  7.000000e+000
    endloop
  endfacet
  facet normal  0.000000e+000  -0.000000e+000  9.999999e-001
    outer loop
      vertex -1.000000e+001 -2.000000e+001  7.000000e+000
      vertex  1.000000e+001 -2.000000e+001  7.000000e+000
      vertex  1.000000e+001 -1.450000e+001  7.000000e+000
    endloop
  endfacet
  facet normal  0.000000e+000  0.000000e+000  1.000000e+000
    outer loop
      vertex -1.000000e+001 -2.000000e+001  7.000000e+000
      vertex  1.000000e+001 -1.450000e+001  7.000000e+000
      vertex  8.939340e+000 -1.406066e+001  7.000000e+000
    endloop
  endfacet
  facet normal  0.000000e+000  0.000000e+000  1.000000e+000
    outer loop
      vertex -1.000000e+001 -2.000000e+001  7.000000e+000
      vertex  8.939340e+000 -1.406066e+001  7.000000e+000
      vertex  8.500000e+000 -1.300000e+001  7.000000e+000
    endloop
  endfacet
  facet normal  0.000000e+000  0.000000e+000  1.000000e+000
    outer loop
      vertex -1.000000e+001 -2.000000e+001  7.000000e+000
      vertex  8.500000e+000 -1.300000e+001  7.000000e+000
      vertex -2.755364e-016 -6.500000e+000  7.000000e+000
    endloop
  endfacet
  facet normal  0.000000e+000  0.000000e+000  1.000000e+000
    outer loop
      vertex -1.000000e+001 -2.000000e+001  7.000000e+000
      vertex -2.755364e-016 -6.500000e+000  7.000000e+000
      vertex -8.500000e+000 -1.300000e+001  7.000000e+000
    endloop
  endfacet
  facet normal  0.000000e+000  0.000000e+000  1.000000e+000
    outer loop
      vertex -1.000000e+001 -2.000000e+001  7.000000e+000
      vertex -8.500000e+000 -1.300000e+001  7.000000e+000
      vertex -8.939340e+000 -1.406066e+001  7.000000e+000
    endloop
  endfacet
  facet normal  0.000000e+000  0.000000e+000  1.000000e+000
    outer loop
      vertex -1.000000e+001 -2.000000e+001  7.000000e+000
      vertex -8.939340e+000 -1.406066e+001  7.000000e+000
      vertex -1.000000e+001 -1.450000e+001  7.000000e+000
    endloop
  endfacet
  facet normal  0.000000e+000  0.000000e+000  9.999999e-001
    outer loop
      vertex -1.000000e+001 -2.000000e+001  7.000000e+000
      vertex -1.000000e+001 -1.450000e+001  7.000000e+000
      vertex -1.500000e+001 -1.500000e+001  7.000000e+000
    endloop
  endfacet
  facet normal  0.000000e+000  0.000000e+000  1.000000e+000
    outer loop
      vertex -1.000000e+001 -2.000000e+001  7.000000e+000
      vertex -1.500000e+001 -1.500000e+001  7.000000e+000
      vertex -1.433013e+001 -1.750000e+001  7.000000e+000
    endloop
  endfacet
  facet normal  0.000000e+000  0.000000e+000  1.000000e+000
    outer loop
      vertex -1.000000e+001 -2.000000e+001  7.000000e+000
      vertex -1.433013e+001 -1.750000e+001  7.000000e+000
      vertex -1.250000e+001 -1.933013e+001  7.000000e+000
    endloop
  endfacet
  facet normal  0.000000e+000  0.000000e+000  1.000000e+000
    outer loop
      vertex -1.500000e+001 -1.500000e+001  7.000000e+000
      vertex -1.000000e+001 -1.450000e+001  7.000000e+000
      vertex -1.106066e+001 -1.406066e+001  7.000000e+000
    endloop
  endfacet
  facet normal  0.000000e+000  0.000000e+000  1.000000e+000
    outer loop
      vertex -1.500000e+001 -1.500000e+001  7.000000e+000
      vertex -1.106066e+001 -1.406066e+001  7.000000e+000
      vertex -1.150000e+001 -1.300000e+001  7.000000e+000
    endloop
  endfacet
  facet normal  0.000000e+000  -0.000000e+000  1.000000e+000
    outer loop
      vertex -1.500000e+001 -1.500000e+001  7.000000e+000
      vertex -1.150000e+001 -1.300000e+001  7.000000e+000
      vertex -1.106066e+001 -1.193934e+001  7.000000e+000
    endloop
  endfacet
  facet normal  0.000000e+000  0.000000e+000  1.000000e+000
    outer loop
      vertex -1.500000e+001 -1.500000e+001  7.000000e+000
      vertex -1.106066e+001 -1.193934e+001  7.000000e+000
      vertex -1.500000e+001 -1.000000e+001  7.000000e+000
    endloop
  endfacet
  facet normal  0.000000e+000  0.000000e+000  1.000000e+000
    outer loop
      vertex  9.000000e+000 -1.000000e+001  7.000000e+000
      vertex  1.060660e+000 -3.939340e+000  7.000000e+000
      vertex  1.500000e+000 -5.000000e+000  7.000000e+000
    endloop
  endfacet
  facet normal  0.000000e+000  0.000000e+000  1.000000e+000
    outer loop
      vertex  9.000000e+000 -1.000000e+001  7.000000e+000
      vertex  1.500000e+000 -5.000000e+000  7.000000e+000
      vertex  1.060660e+000 -6.060660e+000  7.000000e+000
    endloop
  endfacet
  facet normal  0.000000e+000  0.000000e+000  1.000000e+000
    outer loop
      vertex  9.000000e+000 -1.000000e+001  7.000000e+000
      vertex  1.060660e+000 -6.060660e+000  7.000000e+000
      vertex -2.755364e-016 -6.500000e+000  7.000000e+000
    endloop
  endfacet
  facet normal  0.000000e+000  0.000000e+000  9.999999e-001
    outer loop
      vertex  9.000000e+000 -1.000000e+001  7.000000e+000
      vertex -2.755364e-016 -6.500000e+000  7.000000e+000
      vertex  8.500000e+000 -1.300000e+001  7.000000e+000
    endloop
  endfacet
  facet normal  0.000000e+000  0.000000e+000  9.999999e-001
    outer loop
      vertex  9.000000e+000 -1.000000e+001  7.000000e+000
      vertex  8.500000e+000 -1.300000e+001  7.000000e+000
      vertex  8.939340e+000 -1.193934e+001  7.000000e+000
    endloop
  endfacet
  facet normal  0.000000e+000  0.000000e+000  1.000000e+000
    outer loop
      vertex  9.000000e+000 -1.000000e+001  7.000000e+000
      vertex  8.939340e+000 -1.193934e+001  7.000000e+000
      vertex  1.000000e+001 -1.150000e+001  7.000000e+000
    endloop
  endfacet
  facet normal  0.000000e+000  0.000000e+000  1.000000e+000
    outer loop
      vertex  1.500000e+001 -1.500000e+001  7.000000e+000
      vertex  1.106066e+001 -1.193934e+001  7.000000e+000
      vertex  1.150000e+001 -1.300000e+001  7.000000e+000
    endloop
  endfacet
  facet normal  0.000000e+000  0.000000e+000  1.000000e+000
    outer loop
      vertex  1.500000e+001 -1.500000e+001  7.000000e+000
      vertex  1.150000e+001 -1.300000e+001  7.000000e+000
      vertex  1.106066e+001 -1.406066e+001  7.000000e+000
    endloop
  endfacet
  facet normal  0.000000e+000  0.000000e+000  1.000000e+000
    outer loop
      vertex  1.500000e+001 -1.500000e+001  7.000000e+000
      vertex  1.106066e+001 -1.406066e+001  7.000000e+000
      vertex  1.000000e+001 -1.450000e+001  7.000000e+000
    endloop
  endfacet
  facet normal  0.000000e+000  -0.000000e+000  1.000000e+000
    outer loop
      vertex  1.000000e+001 -2.000000e+001  7.000000e+000
      vertex  1.250000e+001 -1.933013e+001  7.000000e+000
      vertex  1.433013e+001 -1.750000e+001  7.000000e+000
    endloop
  endfacet
  facet normal  0.000000e+000  -0.000000e+000  1.000000e+000
    outer loop
      vertex  1.000000e+001 -2.000000e+001  7.000000e+000
      vertex  1.433013e+001 -1.750000e+001  7.000000e+000
      vertex  1.500000e+001 -1.500000e+001  7.000000e+000
    endloop
  endfacet
  facet normal  0.000000e+000  0.000000e+000  9.999999e-001
    outer loop
      vertex  1.000000e+001 -2.000000e+001  7.000000e+000
      vertex  1.500000e+001 -1.500000e+001  7.000000e+000
      vertex  1.000000e+001 -1.450000e+001  7.000000e+000
    endloop
  endfacet
  facet normal  0.000000e+000  0.000000e+000  1.000000e+000
    outer loop
      vertex -4.000000e+000  1.500000e+001  7.000000e+000
      vertex -4.000000e+000  0.000000e+000  7.000000e+000
      vertex  4.000000e+000  1.500000e+001  7.000000e+000
    endloop
  endfacet
  facet normal  0.000000e+000  0.000000e+000  1.000000e+000
    outer loop
      vertex  4.000000e+000  1.500000e+001  7.000000e+000
      vertex -4.000000e+000  0.000000e+000  7.000000e+000
      vertex  9.184548e-017 -3.500000e+000  7.000000e+000
    endloop
  endfacet
  facet normal  0.000000e+000  0.000000e+000  1.000000e+000
    outer loop
      vertex  4.000000e+000  1.500000e+001  7.000000e+000
      vertex  9.184548e-017 -3.500000e+000  7.000000e+000
      vertex  4.000000e+000 -1.776357e-015  7.000000e+000
    endloop
  endfacet
  facet normal  0.000000e+000  0.000000e+000 -1.000000e+000
    outer loop
      vertex  1.106066e+001 -1.193934e+001  0.000000e+000
      vertex  1.000000e+001 -1.150000e+001  0.000000e+000
      vertex  1.500000e+001  2.000000e+001  0.000000e+000
    endloop
  endfacet
  facet normal  0.000000e+000  0.000000e+000 -1.000000e+000
    outer loop
      vertex -8.939340e+000 -1.193934e+001  0.000000e+000
      vertex -2.755364e-016 -6.500000e+000  0.000000e+000
      vertex -8.500000e+000 -1.300000e+001  0.000000e+000
    endloop
  endfacet
  facet normal  -0.000000e+000  0.000000e+000 -1.000000e+000
    outer loop
      vertex -2.755364e-016 -6.500000e+000  0.000000e+000
      vertex  8.939340e+000 -1.193934e+001  0.000000e+000
      vertex  8.500000e+000 -1.300000e+001  0.000000e+000
    endloop
  endfacet
  facet normal  0.000000e+000  0.000000e+000 -1.000000e+000
    outer loop
      vertex -1.000000e+001 -2.000000e+001  0.000000e+000
      vertex -1.250000e+001 -1.933013e+001  0.000000e+000
      vertex -1.433013e+001 -1.750000e+001  0.000000e+000
    endloop
  endfacet
  facet normal  0.000000e+000  0.000000e+000 -1.000000e+000
    outer loop
      vertex -1.000000e+001 -2.000000e+001  0.000000e+000
      vertex -1.433013e+001 -1.750000e+001  0.000000e+000
      vertex -1.500000e+001 -1.500000e+001  0.000000e+000
    endloop
  endfacet
  facet normal  0.000000e+000  0.000000e+000 -9.999999e-001
    outer loop
      vertex -1.000000e+001 -2.000000e+001  0.000000e+000
      vertex -1.500000e+001 -1.500000e+001  0.000000e+000
      vertex -1.000000e+001 -1.450000e+001  0.000000e+000
    endloop
  endfacet
  facet normal  0.000000e+000  0.000000e+000 -1.000000e+000
    outer loop
      vertex -1.000000e+001 -2.000000e+001  0.000000e+000
      vertex -1.000000e+001 -1.450000e+001  0.000000e+000
      vertex -8.939340e+000 -1.406066e+001  0.000000e+000
    endloop
  endfacet
  facet normal  0.000000e+000  -0.000000e+000 -1.000000e+000
    outer loop
      vertex -1.000000e+001 -2.000000e+001  0.000000e+000
      vertex -8.939340e+000 -1.406066e+001  0.000000e+000
      vertex -8.500000e+000 -1.300000e+001  0.000000e+000
    endloop
  endfacet
  facet normal  0.000000e+000  -0.000000e+000 -1.000000e+000
    outer loop
      vertex -1.000000e+001 -2.000000e+001  0.000000e+000
      vertex -8.500000e+000 -1.300000e+001  0.000000e+000
      vertex -2.755364e-016 -6.500000e+000  0.000000e+000
    endloop
  endfacet
  facet normal  0.000000e+000  -0.000000e+000 -1.000000e+000
    outer loop
      vertex -1.000000e+001 -2.000000e+001  0.000000e+000
      vertex -2.755364e-016 -6.500000e+000  0.000000e+000
      vertex  8.500000e+000 -1.300000e+001  0.000000e+000
    endloop
  endfacet
  facet normal  0.000000e+000  -0.000000e+000 -1.000000e+000
    outer loop
      vertex -1.000000e+001 -2.000000e+001  0.000000e+000
      vertex  8.500000e+000 -1.300000e+001  0.000000e+000
      vertex  8.939340e+000 -1.406066e+001  0.000000e+000
    endloop
  endfacet
  facet normal  0.000000e+000  -0.000000e+000 -1.000000e+000
    outer loop
      vertex -1.000000e+001 -2.000000e+001  0.000000e+000
      vertex  8.939340e+000 -1.406066e+001  0.000000e+000
      vertex  1.000000e+001 -1.450000e+001  0.000000e+000
    endloop
  endfacet
  facet normal  0.000000e+000  -0.000000e+000 -9.999999e-001
    outer loop
      vertex -1.000000e+001 -2.000000e+001  0.000000e+000
      vertex  1.000000e+001 -1.450000e+001  0.000000e+000
      vertex  1.000000e+001 -2.000000e+001  0.000000e+000
    endloop
  endfacet
  facet normal  -0.000000e+000  0.000000e+000 -1.000000e+000
    outer loop
      vertex -1.500000e+001  2.000000e+001  0.000000e+000
      vertex  1.500000e+001  2.000000e+001  0.000000e+000
      vertex  1.000000e+001 -1.150000e+001  0.000000e+000
    endloop
  endfacet
  facet normal  0.000000e+000  0.000000e+000 -1.000000e+000
    outer loop
      vertex -1.500000e+001  2.000000e+001  0.000000e+000
      vertex  1.000000e+001 -1.150000e+001  0.000000e+000
      vertex  1.060660e+000 -3.939340e+000  0.000000e+000
    endloop
  endfacet
  facet normal  0.000000e+000  0.000000e+000 -1.000000e+000
    outer loop
      vertex -1.500000e+001  2.000000e+001  0.000000e+000
      vertex  1.060660e+000 -3.939340e+000  0.000000e+000
      vertex  9.184548e-017 -3.500000e+000  0.000000e+000
    endloop
  endfacet
  facet normal  -0.000000e+000  0.000000e+000 -1.000000e+000
    outer loop
      vertex -1.500000e+001  2.000000e+001  0.000000e+000
      vertex  9.184548e-017 -3.500000e+000  0.000000e+000
      vertex -1.060660e+000 -3.939340e+000  0.000000e+000
    endloop
  endfacet
  facet normal  -0.000000e+000  0.000000e+000 -1.000000e+000
    outer loop
      vertex -1.500000e+001  2.000000e+001  0.000000e+000
      vertex -1.060660e+000 -3.939340e+000  0.000000e+000
      vertex -1.000000e+001 -1.150000e+001  0.000000e+000
    endloop
  endfacet
  facet normal  -0.000000e+000  0.000000e+000 -1.000000e+000
    outer loop
      vertex -1.500000e+001  2.000000e+001  0.000000e+000
      vertex -1.000000e+001 -1.150000e+001  0.000000e+000
      vertex -1.106066e+001 -1.193934e+001  0.000000e+000
    endloop
  endfacet
  facet normal  -0.000000e+000  0.000000e+000 -1.000000e+000
    outer loop
      vertex -1.500000e+001  2.000000e+001  0.000000e+000
      vertex -1.106066e+001 -1.193934e+001  0.000000e+000
      vertex -1.500000e+001 -1.500000e+001  0.000000e+000
    endloop
  endfacet
  facet normal  0.000000e+000  0.000000e+000 -1.000000e+000
    outer loop
      vertex -1.500000e+001 -1.500000e+001  0.000000e+000
      vertex -1.106066e+001 -1.193934e+001  0.000000e+000
      vertex -1.150000e+001 -1.300000e+001  0.000000e+000
    endloop
  endfacet
  facet normal  0.000000e+000  -0.000000e+000 -1.000000e+000
    outer loop
      vertex -1.500000e+001 -1.500000e+001  0.000000e+000
      vertex -1.150000e+001 -1.300000e+001  0.000000e+000
      vertex -1.106066e+001 -1.406066e+001  0.000000e+000
    endloop
  endfacet
  facet normal  0.000000e+000  -0.000000e+000 -1.000000e+000
    outer loop
      vertex -1.500000e+001 -1.500000e+001  0.000000e+000
      vertex -1.106066e+001 -1.406066e+001  0.000000e+000
      vertex -1.000000e+001 -1.450000e+001  0.000000e+000
    endloop
  endfacet
  facet normal  0.000000e+000  0.000000e+000 -1.000000e+000
    outer loop
      vertex -1.000000e+001 -1.150000e+001  0.000000e+000
      vertex -1.060660e+000 -3.939340e+000  0.000000e+000
      vertex -1.500000e+000 -5.000000e+000  0.000000e+000
    endloop
  endfacet
  facet normal  0.000000e+000  -0.000000e+000 -1.000000e+000
    outer loop
      vertex -1.000000e+001 -1.150000e+001  0.000000e+000
      vertex -1.500000e+000 -5.000000e+000  0.000000e+000
      vertex -1.060660e+000 -6.060660e+000  0.000000e+000
    endloop
  endfacet
  facet normal  0.000000e+000  -0.000000e+000 -1.000000e+000
    outer loop
      vertex -1.000000e+001 -1.150000e+001  0.000000e+000
      vertex -1.060660e+000 -6.060660e+000  0.000000e+000
      vertex -2.755364e-016 -6.500000e+000  0.000000e+000
    endloop
  endfacet
  facet normal  0.000000e+000  0.000000e+000 -1.000000e+000
    outer loop
      vertex -1.000000e+001 -1.150000e+001  0.000000e+000
      vertex -2.755364e-016 -6.500000e+000  0.000000e+000
      vertex -8.939340e+000 -1.193934e+001  0.000000e+000
    endloop
  endfacet
  facet normal  0.000000e+000  0.000000e+000 -1.000000e+000
    outer loop
      vertex  1.000000e+001 -1.150000e+001  0.000000e+000
      vertex  8.939340e+000 -1.193934e+001  0.000000e+000
      vertex -2.755364e-016 -6.500000e+000  0.000000e+000
    endloop
  endfacet
  facet normal  0.000000e+000  0.000000e+000 -1.000000e+000
    outer loop
      vertex  1.000000e+001 -1.150000e+001  0.000000e+000
      vertex -2.755364e-016 -6.500000e+000  0.000000e+000
      vertex  1.060660e+000 -6.060660e+000  0.000000e+000
    endloop
  endfacet
  facet normal  0.000000e+000  0.000000e+000 -1.000000e+000
    outer loop
      vertex  1.000000e+001 -1.150000e+001  0.000000e+000
      vertex  1.060660e+000 -6.060660e+000  0.000000e+000
      vertex  1.500000e+000 -5.000000e+000  0.000000e+000
    endloop
  endfacet
  facet normal  0.000000e+000  0.000000e+000 -1.000000e+000
    outer loop
      vertex  1.000000e+001 -1.150000e+001  0.000000e+000
      vertex  1.500000e+000 -5.000000e+000  0.000000e+000
      vertex  1.060660e+000 -3.939340e+000  0.000000e+000
    endloop
  endfacet
  facet normal  0.000000e+000  0.000000e+000 -1.000000e+000
    outer loop
      vertex  1.500000e+001 -1.500000e+001  0.000000e+000
      vertex  1.000000e+001 -1.450000e+001  0.000000e+000
      vertex  1.106066e+001 -1.406066e+001  0.000000e+000
    endloop
  endfacet
  facet normal  0.000000e+000  0.000000e+000 -1.000000e+000
    outer loop
      vertex  1.500000e+001 -1.500000e+001  0.000000e+000
      vertex  1.106066e+001 -1.406066e+001  0.000000e+000
      vertex  1.150000e+001 -1.300000e+001  0.000000e+000
    endloop
  endfacet
  facet normal  0.000000e+000  0.000000e+000 -1.000000e+000
    outer loop
      vertex  1.500000e+001 -1.500000e+001  0.000000e+000
      vertex  1.150000e+001 -1.300000e+001  0.000000e+000
      vertex  1.106066e+001 -1.193934e+001  0.000000e+000
    endloop
  endfacet
  facet normal  0.000000e+000  0.000000e+000 -1.000000e+000
    outer loop
      vertex  1.500000e+001 -1.500000e+001  0.000000e+000
      vertex  1.106066e+001 -1.193934e+001  0.000000e+000
      vertex  1.500000e+001  2.000000e+001  0.000000e+000
    endloop
  endfacet
  facet normal  0.000000e+000  0.000000e+000 -9.999999e-001
    outer loop
      vertex  1.000000e+001 -2.000000e+001  0.000000e+000
      vertex  1.000000e+001 -1.450000e+001  0.000000e+000
      vertex  1.500000e+001 -1.500000e+001  0.000000e+000
    endloop
  endfacet
  facet normal  0.000000e+000  0.000000e+000 -1.000000e+000
    outer loop
      vertex  1.000000e+001 -2.000000e+001  0.000000e+000
      vertex  1.500000e+001 -1.500000e+001  0.000000e+000
      vertex  1.433013e+001 -1.750000e+001  0.000000e+000
    endloop
  endfacet
  facet normal  0.000000e+000  0.000000e+000 -1.000000e+000
    outer loop
      vertex  1.000000e+001 -2.000000e+001  0.000000e+000
      vertex  1.433013e+001 -1.750000e+001  0.000000e+000
      vertex  1.250000e+001 -1.933013e+001  0.000000e+000
    endloop
  endfacet
  facet normal  0.000000e+000 -1.000000e+000  0.000000e+000
    outer loop
      vertex  1.000000e+001 -2.000000e+001  7.000000e+000
      vertex -1.000000e+001 -2.000000e+001  7.000000e+000
      vertex  1.000000e+001 -2.000000e+001  0.000000e+000
    endloop
  endfacet
  facet normal  0.000000e+000 -1.000000e+000  0.000000e+000
    outer loop
      vertex  1.000000e+001 -2.000000e+001  0.000000e+000
      vertex -1.000000e+001 -2.000000e+001  7.000000e+000
      vertex -1.000000e+001 -2.000000e+001  0.000000e+000
    endloop
  endfacet
  facet normal  1.000000e+000  0.000000e+000  0.000000e+000
    outer loop
      vertex  1.500000e+001  2.000000e+001  0.000000e+000
      vertex  1.500000e+001 -1.000000e+001  5.000000e+000
      vertex  1.500000e+001 -1.500000e+001  0.000000e+000
    endloop
  endfacet
  facet normal  1.000000e+000  0.000000e+000  0.000000e+000
    outer loop
      vertex  1.500000e+001 -1.500000e+001  0.000000e+000
      vertex  1.500000e+001 -1.000000e+001  5.000000e+000
      vertex  1.500000e+001 -1.000000e+001  7.000000e+000
    endloop
  endfacet
  facet normal  1.000000e+000  0.000000e+000  0.000000e+000
    outer loop
      vertex  1.500000e+001 -1.500000e+001  0.000000e+000
      vertex  1.500000e+001 -1.000000e+001  7.000000e+000
      vertex  1.500000e+001 -1.500000e+001  7.000000e+000
    endloop
  endfacet
  facet normal  1.000000e+000  0.000000e+000  0.000000e+000
    outer loop
      vertex  1.500000e+001 -1.000000e+001  5.000000e+000
      vertex  1.500000e+001  2.000000e+001  0.000000e+000
      vertex  1.500000e+001  1.500000e+001  5.000000e+000
    endloop
  endfacet
  facet normal  1.000000e+000  -0.000000e+000  0.000000e+000
    outer loop
      vertex  1.500000e+001  1.500000e+001  5.000000e+000
      vertex  1.500000e+001  2.000000e+001  0.000000e+000
      vertex  1.500000e+001  2.000000e+001  3.500000e+001
    endloop
  endfacet
  facet normal  1.000000e+000  0.000000e+000  0.000000e+000
    outer loop
      vertex  1.500000e+001  1.500000e+001  5.000000e+000
      vertex  1.500000e+001  2.000000e+001  3.500000e+001
      vertex  1.500000e+001  1.500000e+001  3.200000e+001
    endloop
  endfacet
  facet normal  1.000000e+000  0.000000e+000  -0.000000e+000
    outer loop
      vertex  1.500000e+001  1.500000e+001  3.200000e+001
      vertex  1.500000e+001  2.000000e+001  3.500000e+001
      vertex  1.500000e+001  1.300000e+001  3.500000e+001
    endloop
  endfacet
  facet normal  1.000000e+000  0.000000e+000  0.000000e+000
    outer loop
      vertex  1.500000e+001  1.500000e+001  3.200000e+001
      vertex  1.500000e+001  1.300000e+001  3.500000e+001
      vertex  1.500000e+001  1.300000e+001  3.200000e+001
    endloop
  endfacet
  facet normal  9.659259e-001 -2.588192e-001  0.000000e+000
    outer loop
      vertex  1.500000e+001 -1.500000e+001  0.000000e+000
      vertex  1.500000e+001 -1.500000e+001  7.000000e+000
      vertex  1.433013e+001 -1.750000e+001  0.000000e+000
    endloop
  endfacet
  facet normal  9.659259e-001 -2.588192e-001  0.000000e+000
    outer loop
      vertex  1.433013e+001 -1.750000e+001  0.000000e+000
      vertex  1.500000e+001 -1.500000e+001  7.000000e+000
      vertex  1.433013e+001 -1.750000e+001  7.000000e+000
    endloop
  endfacet
  facet normal  7.071069e-001 -7.071066e-001  0.000000e+000
    outer loop
      vertex  1.433013e+001 -1.750000e+001  0.000000e+000
      vertex  1.433013e+001 -1.750000e+001  7.000000e+000
      vertex  1.250000e+001 -1.933013e+001  0.000000e+000
    endloop
  endfacet
  facet normal  7.071069e-001 -7.071066e-001  0.000000e+000
    outer loop
      vertex  1.250000e+001 -1.933013e+001  0.000000e+000
      vertex  1.433013e+001 -1.750000e+001  7.000000e+000
      vertex  1.250000e+001 -1.933013e+001  7.000000e+000
    endloop
  endfacet
  facet normal  2.588188e-001 -9.659259e-001  0.000000e+000
    outer loop
      vertex  1.250000e+001 -1.933013e+001  0.000000e+000
      vertex  1.250000e+001 -1.933013e+001  7.000000e+000
      vertex  1.000000e+001 -2.000000e+001  0.000000e+000
    endloop
  endfacet
  facet normal  2.588188e-001 -9.659259e-001  0.000000e+000
    outer loop
      vertex  1.000000e+001 -2.000000e+001  0.000000e+000
      vertex  1.250000e+001 -1.933013e+001  7.000000e+000
      vertex  1.000000e+001 -2.000000e+001  7.000000e+000
    endloop
  endfacet
  facet normal -1.000000e+000  0.000000e+000  0.000000e+000
    outer loop
      vertex -1.500000e+001  2.000000e+001  0.000000e+000
      vertex -1.500000e+001  1.500000e+001  3.200000e+001
      vertex -1.500000e+001  2.000000e+001  3.500000e+001
    endloop
  endfacet
  facet normal -1.000000e+000  0.000000e+000  0.000000e+000
    outer loop
      vertex -1.500000e+001  2.000000e+001  3.500000e+001
      vertex -1.500000e+001  1.500000e+001  3.200000e+001
      vertex -1.500000e+001  1.300000e+001  3.200000e+001
    endloop
  endfacet
  facet normal -1.000000e+000  0.000000e+000  0.000000e+000
    outer loop
      vertex -1.500000e+001  2.000000e+001  3.500000e+001
      vertex -1.500000e+001  1.300000e+001  3.200000e+001
      vertex -1.500000e+001  1.300000e+001  3.500000e+001
    endloop
  endfacet
  facet normal -1.000000e+000  0.000000e+000  0.000000e+000
    outer loop
      vertex -1.500000e+001  1.500000e+001  3.200000e+001
      vertex -1.500000e+001  2.000000e+001  0.000000e+000
      vertex -1.500000e+001  1.500000e+001  5.000000e+000
    endloop
  endfacet
  facet normal -1.000000e+000  0.000000e+000  -0.000000e+000
    outer loop
      vertex -1.500000e+001  1.500000e+001  5.000000e+000
      vertex -1.500000e+001  2.000000e+001  0.000000e+000
      vertex -1.500000e+001 -1.500000e+001  0.000000e+000
    endloop
  endfacet
  facet normal -1.000000e+000  0.000000e+000  0.000000e+000
    outer loop
      vertex -1.500000e+001  1.500000e+001  5.000000e+000
      vertex -1.500000e+001 -1.500000e+001  0.000000e+000
      vertex -1.500000e+001 -1.000000e+001  5.000000e+000
    endloop
  endfacet
  facet normal -1.000000e+000  -0.000000e+000  0.000000e+000
    outer loop
      vertex -1.500000e+001 -1.000000e+001  5.000000e+000
      vertex -1.500000e+001 -1.500000e+001  0.000000e+000
      vertex -1.500000e+001 -1.500000e+001  7.000000e+000
    endloop
  endfacet
  facet normal -1.000000e+000  0.000000e+000  0.000000e+000
    outer loop
      vertex -1.500000e+001 -1.000000e+001  5.000000e+000
      vertex -1.500000e+001 -1.500000e+001  7.000000e+000
      vertex -1.500000e+001 -1.000000e+001  7.000000e+000
    endloop
  endfacet
  facet normal -2.588188e-001 -9.659259e-001  -0.000000e+000
    outer loop
      vertex -1.000000e+001 -2.000000e+001  0.000000e+000
      vertex -1.000000e+001 -2.000000e+001  7.000000e+000
      vertex -1.250000e+001 -1.933013e+001  0.000000e+000
    endloop
  endfacet
  facet normal -2.588188e-001 -9.659259e-001  0.000000e+000
    outer loop
      vertex -1.250000e+001 -1.933013e+001  0.000000e+000
      vertex -1.000000e+001 -2.000000e+001  7.000000e+000
      vertex -1.250000e+001 -1.933013e+001  7.000000e+000
    endloop
  endfacet
  facet normal -7.071069e-001 -7.071066e-001  -0.000000e+000
    outer loop
      vertex -1.250000e+001 -1.933013e+001  0.000000e+000
      vertex -1.250000e+001 -1.933013e+001  7.000000e+000
      vertex -1.433013e+001 -1.750000e+001  0.000000e+000
    endloop
  endfacet
  facet normal -7.071069e-001 -7.071066e-001  0.000000e+000
    outer loop
      vertex -1.433013e+001 -1.750000e+001  0.000000e+000
      vertex -1.250000e+001 -1.933013e+001  7.000000e+000
      vertex -1.433013e+001 -1.750000e+001  7.000000e+000
    endloop
  endfacet
  facet normal -9.659259e-001 -2.588192e-001  -0.000000e+000
    outer loop
      vertex -1.433013e+001 -1.750000e+001  0.000000e+000
      vertex -1.433013e+001 -1.750000e+001  7.000000e+000
      vertex -1.500000e+001 -1.500000e+001  0.000000e+000
    endloop
  endfacet
  facet normal -9.659259e-001 -2.588192e-001  0.000000e+000
    outer loop
      vertex -1.500000e+001 -1.500000e+001  0.000000e+000
      vertex -1.433013e+001 -1.750000e+001  7.000000e+000
      vertex -1.500000e+001 -1.500000e+001  7.000000e+000
    endloop
  endfacet
  facet normal  0.000000e+000  1.000000e+000  0.000000e+000
    outer loop
      vertex -1.000000e+001  2.000000e+001  3.350000e+001
      vertex -8.939340e+000  2.000000e+001  3.393934e+001
      vertex -1.500000e+000  2.000000e+001  2.500000e+001
    endloop
  endfacet
  facet normal  0.000000e+000  1.000000e+000  0.000000e+000
    outer loop
      vertex  1.500000e+001  2.000000e+001  0.000000e+000
      vertex -1.500000e+001  2.000000e+001  0.000000e+000
      vertex  1.060660e+000  2.000000e+001  2.393934e+001
    endloop
  endfacet
  facet normal  -0.000000e+000  1.000000e+000  0.000000e+000
    outer loop
      vertex  1.500000e+001  2.000000e+001  0.000000e+000
      vertex  1.060660e+000  2.000000e+001  2.393934e+001
      vertex  1.500000e+000  2.000000e+001  2.500000e+001
    endloop
  endfacet
  facet normal  -0.000000e+000  1.000000e+000  0.000000e+000
    outer loop
      vertex  1.500000e+001  2.000000e+001  0.000000e+000
      vertex  1.500000e+000  2.000000e+001  2.500000e+001
      vertex  1.106066e+001  2.000000e+001  3.393934e+001
    endloop
  endfacet
  facet normal  -0.000000e+000  1.000000e+000  0.000000e+000
    outer loop
      vertex  1.500000e+001  2.000000e+001  0.000000e+000
      vertex  1.106066e+001  2.000000e+001  3.393934e+001
      vertex  1.150000e+001  2.000000e+001  3.500000e+001
    endloop
  endfacet
  facet normal  -0.000000e+000  9.999999e-001  0.000000e+000
    outer loop
      vertex  1.500000e+001  2.000000e+001  0.000000e+000
      vertex  1.150000e+001  2.000000e+001  3.500000e+001
      vertex  1.500000e+001  2.000000e+001  3.500000e+001
    endloop
  endfacet
  facet normal  -0.000000e+000  9.999999e-001  0.000000e+000
    outer loop
      vertex -1.500000e+001  2.000000e+001  0.000000e+000
      vertex -1.500000e+001  2.000000e+001  3.500000e+001
      vertex -1.150000e+001  2.000000e+001  3.500000e+001
    endloop
  endfacet
  facet normal  0.000000e+000  1.000000e+000  0.000000e+000
    outer loop
      vertex -1.500000e+001  2.000000e+001  0.000000e+000
      vertex -1.150000e+001  2.000000e+001  3.500000e+001
      vertex -1.106066e+001  2.000000e+001  3.393934e+001
    endloop
  endfacet
  facet normal  0.000000e+000  1.000000e+000  0.000000e+000
    outer loop
      vertex -1.500000e+001  2.000000e+001  0.000000e+000
      vertex -1.106066e+001  2.000000e+001  3.393934e+001
      vertex -1.000000e+001  2.000000e+001  3.350000e+001
    endloop
  endfacet
  facet normal  0.000000e+000  1.000000e+000  0.000000e+000
    outer loop
      vertex -1.500000e+001  2.000000e+001  0.000000e+000
      vertex -1.000000e+001  2.000000e+001  3.350000e+001
      vertex -1.500000e+000  2.000000e+001  2.500000e+001
    endloop
  endfacet
  facet normal  0.000000e+000  1.000000e+000  0.000000e+000
    outer loop
      vertex -1.500000e+001  2.000000e+001  0.000000e+000
      vertex -1.500000e+000  2.000000e+001  2.500000e+001
      vertex -1.060660e+000  2.000000e+001  2.393934e+001
    endloop
  endfacet
  facet normal  0.000000e+000  1.000000e+000  0.000000e+000
    outer loop
      vertex -1.500000e+001  2.000000e+001  0.000000e+000
      vertex -1.060660e+000  2.000000e+001  2.393934e+001
      vertex -2.755364e-016  2.000000e+001  2.350000e+001
    endloop
  endfacet
  facet normal  -0.000000e+000  1.000000e+000  0.000000e+000
    outer loop
      vertex -1.500000e+001  2.000000e+001  0.000000e+000
      vertex -2.755364e-016  2.000000e+001  2.350000e+001
      vertex  1.060660e+000  2.000000e+001  2.393934e+001
    endloop
  endfacet
  facet normal  0.000000e+000  1.000000e+000  0.000000e+000
    outer loop
      vertex -8.500000e+000  2.000000e+001  3.500000e+001
      vertex  8.500000e+000  2.000000e+001  3.500000e+001
      vertex  1.060660e+000  2.000000e+001  2.606066e+001
    endloop
  endfacet
  facet normal  0.000000e+000  1.000000e+000  0.000000e+000
    outer loop
      vertex -8.500000e+000  2.000000e+001  3.500000e+001
      vertex  1.060660e+000  2.000000e+001  2.606066e+001
      vertex  9.184548e-017  2.000000e+001  2.650000e+001
    endloop
  endfacet
  facet normal  0.000000e+000  1.000000e+000  0.000000e+000
    outer loop
      vertex -8.500000e+000  2.000000e+001  3.500000e+001
      vertex  9.184548e-017  2.000000e+001  2.650000e+001
      vertex -1.060660e+000  2.000000e+001  2.606066e+001
    endloop
  endfacet
  facet normal  0.000000e+000  1.000000e+000  0.000000e+000
    outer loop
      vertex -8.500000e+000  2.000000e+001  3.500000e+001
      vertex -1.060660e+000  2.000000e+001  2.606066e+001
      vertex -1.500000e+000  2.000000e+001  2.500000e+001
    endloop
  endfacet
  facet normal  0.000000e+000  1.000000e+000  0.000000e+000
    outer loop
      vertex -8.500000e+000  2.000000e+001  3.500000e+001
      vertex -1.500000e+000  2.000000e+001  2.500000e+001
      vertex -8.939340e+000  2.000000e+001  3.393934e+001
    endloop
  endfacet
  facet normal  -0.000000e+000  1.000000e+000  0.000000e+000
    outer loop
      vertex  1.500000e+000  2.000000e+001  2.500000e+001
      vertex  1.060660e+000  2.000000e+001  2.606066e+001
      vertex  8.500000e+000  2.000000e+001  3.500000e+001
    endloop
  endfacet
  facet normal  0.000000e+000  1.000000e+000  0.000000e+000
    outer loop
      vertex  1.500000e+000  2.000000e+001  2.500000e+001
      vertex  8.500000e+000  2.000000e+001  3.500000e+001
      vertex  8.939340e+000  2.000000e+001  3.393934e+001
    endloop
  endfacet
  facet normal  0.000000e+000  1.000000e+000  0.000000e+000
    outer loop
      vertex  1.500000e+000  2.000000e+001  2.500000e+001
      vertex  8.939340e+000  2.000000e+001  3.393934e+001
      vertex  1.000000e+001  2.000000e+001  3.350000e+001
    endloop
  endfacet
  facet normal  -0.000000e+000  1.000000e+000  0.000000e+000
    outer loop
      vertex  1.500000e+000  2.000000e+001  2.500000e+001
      vertex  1.000000e+001  2.000000e+001  3.350000e+001
      vertex  1.106066e+001  2.000000e+001  3.393934e+001
    endloop
  endfacet
  facet normal  0.000000e+000  1.000000e+000  0.000000e+000
    outer loop
      vertex -1.000000e+001  2.000000e+001  4.000000e+001
      vertex  1.000000e+001  2.000000e+001  4.000000e+001
      vertex  1.000000e+001  2.000000e+001  3.650000e+001
    endloop
  endfacet
  facet normal  0.000000e+000  1.000000e+000  0.000000e+000
    outer loop
      vertex -1.000000e+001  2.000000e+001  4.000000e+001
      vertex  1.000000e+001  2.000000e+001  3.650000e+001
      vertex  8.939340e+000  2.000000e+001  3.606066e+001
    endloop
  endfacet
  facet normal  0.000000e+000  1.000000e+000  0.000000e+000
    outer loop
      vertex -1.000000e+001  2.000000e+001  4.000000e+001
      vertex  8.939340e+000  2.000000e+001  3.606066e+001
      vertex  8.500000e+000  2.000000e+001  3.500000e+001
    endloop
  endfacet
  facet normal  0.000000e+000  1.000000e+000  0.000000e+000
    outer loop
      vertex -1.000000e+001  2.000000e+001  4.000000e+001
      vertex  8.500000e+000  2.000000e+001  3.500000e+001
      vertex -8.500000e+000  2.000000e+001  3.500000e+001
    endloop
  endfacet
  facet normal  0.000000e+000  1.000000e+000  0.000000e+000
    outer loop
      vertex -1.000000e+001  2.000000e+001  4.000000e+001
      vertex -8.500000e+000  2.000000e+001  3.500000e+001
      vertex -8.939340e+000  2.000000e+001  3.606066e+001
    endloop
  endfacet
  facet normal  0.000000e+000  9.999999e-001  0.000000e+000
    outer loop
      vertex -1.000000e+001  2.000000e+001  4.000000e+001
      vertex -8.939340e+000  2.000000e+001  3.606066e+001
      vertex -1.000000e+001  2.000000e+001  3.650000e+001
    endloop
  endfacet
  facet normal  0.000000e+000  9.999999e-001  -0.000000e+000
    outer loop
      vertex -1.000000e+001  2.000000e+001  4.000000e+001
      vertex -1.000000e+001  2.000000e+001  3.650000e+001
      vertex -1.106066e+001  2.000000e+001  3.606066e+001
    endloop
  endfacet
  facet normal  0.000000e+000  1.000000e+000  -0.000000e+000
    outer loop
      vertex -1.000000e+001  2.000000e+001  4.000000e+001
      vertex -1.106066e+001  2.000000e+001  3.606066e+001
      vertex -1.250000e+001  2.000000e+001  3.933013e+001
    endloop
  endfacet
  facet normal  0.000000e+000  9.999999e-001  0.000000e+000
    outer loop
      vertex  1.000000e+001  2.000000e+001  3.650000e+001
      vertex  1.000000e+001  2.000000e+001  4.000000e+001
      vertex  1.106066e+001  2.000000e+001  3.606066e+001
    endloop
  endfacet
  facet normal  0.000000e+000  1.000000e+000  -0.000000e+000
    outer loop
      vertex  1.106066e+001  2.000000e+001  3.606066e+001
      vertex  1.000000e+001  2.000000e+001  4.000000e+001
      vertex  1.250000e+001  2.000000e+001  3.933013e+001
    endloop
  endfacet
  facet normal  0.000000e+000  1.000000e+000  0.000000e+000
    outer loop
      vertex  1.106066e+001  2.000000e+001  3.606066e+001
      vertex  1.250000e+001  2.000000e+001  3.933013e+001
      vertex  1.150000e+001  2.000000e+001  3.500000e+001
    endloop
  endfacet
  facet normal  0.000000e+000  1.000000e+000  0.000000e+000
    outer loop
      vertex  1.150000e+001  2.000000e+001  3.500000e+001
      vertex  1.250000e+001  2.000000e+001  3.933013e+001
      vertex  1.433013e+001  2.000000e+001  3.750000e+001
    endloop
  endfacet
  facet normal  0.000000e+000  1.000000e+000  0.000000e+000
    outer loop
      vertex  1.150000e+001  2.000000e+001  3.500000e+001
      vertex  1.433013e+001  2.000000e+001  3.750000e+001
      vertex  1.500000e+001  2.000000e+001  3.500000e+001
    endloop
  endfacet
  facet normal  0.000000e+000  1.000000e+000  -0.000000e+000
    outer loop
      vertex -1.106066e+001  2.000000e+001  3.606066e+001
      vertex -1.150000e+001  2.000000e+001  3.500000e+001
      vertex -1.250000e+001  2.000000e+001  3.933013e+001
    endloop
  endfacet
  facet normal  0.000000e+000  1.000000e+000  0.000000e+000
    outer loop
      vertex -1.250000e+001  2.000000e+001  3.933013e+001
      vertex -1.150000e+001  2.000000e+001  3.500000e+001
      vertex -1.500000e+001  2.000000e+001  3.500000e+001
    endloop
  endfacet
  facet normal  0.000000e+000  9.999999e-001  0.000000e+000
    outer loop
      vertex -1.250000e+001  2.000000e+001  3.933013e+001
      vertex -1.500000e+001  2.000000e+001  3.500000e+001
      vertex -1.433013e+001  2.000000e+001  3.750000e+001
    endloop
  endfacet
  facet normal  0.000000e+000  0.000000e+000  1.000000e+000
    outer loop
      vertex -1.000000e+001  1.300000e+001  4.000000e+001
      vertex  1.000000e+001  1.300000e+001  4.000000e+001
      vertex -1.000000e+001  2.000000e+001  4.000000e+001
    endloop
  endfacet
  facet normal  -0.000000e+000  0.000000e+000  1.000000e+000
    outer loop
      vertex -1.000000e+001  2.000000e+001  4.000000e+001
      vertex  1.000000e+001  1.300000e+001  4.000000e+001
      vertex  1.000000e+001  2.000000e+001  4.000000e+001
    endloop
  endfacet
  facet normal  0.000000e+000 -1.000000e+000  0.000000e+000
    outer loop
      vertex -2.755364e-016  1.300000e+001  2.350000e+001
      vertex -4.000000e+000  1.300000e+001  2.200000e+001
      vertex  4.000000e+000  1.300000e+001  2.200000e+001
    endloop
  endfacet
  facet normal  0.000000e+000 -1.000000e+000  -0.000000e+000
    outer loop
      vertex  1.500000e+001  1.300000e+001  3.500000e+001
      vertex  1.433013e+001  1.300000e+001  3.750000e+001
      vertex  1.000000e+001  1.300000e+001  3.650000e+001
    endloop
  endfacet
  facet normal  0.000000e+000 -1.000000e+000  0.000000e+000
    outer loop
      vertex  1.500000e+001  1.300000e+001  3.500000e+001
      vertex  1.000000e+001  1.300000e+001  3.650000e+001
      vertex  1.106066e+001  1.300000e+001  3.606066e+001
    endloop
  endfacet
  facet normal  0.000000e+000 -1.000000e+000  0.000000e+000
    outer loop
      vertex  1.500000e+001  1.300000e+001  3.500000e+001
      vertex  1.106066e+001  1.300000e+001  3.606066e+001
      vertex  1.150000e+001  1.300000e+001  3.500000e+001
    endloop
  endfacet
  facet normal  0.000000e+000 -1.000000e+000  -0.000000e+000
    outer loop
      vertex  1.500000e+001  1.300000e+001  3.500000e+001
      vertex  1.150000e+001  1.300000e+001  3.500000e+001
      vertex  1.106066e+001  1.300000e+001  3.393934e+001
    endloop
  endfacet
  facet normal  0.000000e+000 -1.000000e+000  -0.000000e+000
    outer loop
      vertex  1.500000e+001  1.300000e+001  3.500000e+001
      vertex  1.106066e+001  1.300000e+001  3.393934e+001
      vertex  1.000000e+001  1.300000e+001  3.350000e+001
    endloop
  endfacet
  facet normal  0.000000e+000 -1.000000e+000  -0.000000e+000
    outer loop
      vertex -1.000000e+001  1.300000e+001  4.000000e+001
      vertex -1.250000e+001  1.300000e+001  3.933013e+001
      vertex -1.433013e+001  1.300000e+001  3.750000e+001
    endloop
  endfacet
  facet normal  0.000000e+000 -1.000000e+000  0.000000e+000
    outer loop
      vertex -1.000000e+001  1.300000e+001  4.000000e+001
      vertex -1.433013e+001  1.300000e+001  3.750000e+001
      vertex -1.000000e+001  1.300000e+001  3.650000e+001
    endloop
  endfacet
  facet normal  0.000000e+000 -9.999999e-001  0.000000e+000
    outer loop
      vertex -1.000000e+001  1.300000e+001  4.000000e+001
      vertex -1.000000e+001  1.300000e+001  3.650000e+001
      vertex -8.939340e+000  1.300000e+001  3.606066e+001
    endloop
  endfacet
  facet normal  0.000000e+000 -1.000000e+000  0.000000e+000
    outer loop
      vertex -1.000000e+001  1.300000e+001  4.000000e+001
      vertex -8.939340e+000  1.300000e+001  3.606066e+001
      vertex  9.184548e-017  1.300000e+001  2.650000e+001
    endloop
  endfacet
  facet normal  0.000000e+000 -1.000000e+000  0.000000e+000
    outer loop
      vertex -1.000000e+001  1.300000e+001  4.000000e+001
      vertex  9.184548e-017  1.300000e+001  2.650000e+001
      vertex  8.939340e+000  1.300000e+001  3.606066e+001
    endloop
  endfacet
  facet normal  0.000000e+000 -1.000000e+000  0.000000e+000
    outer loop
      vertex -1.000000e+001  1.300000e+001  4.000000e+001
      vertex  8.939340e+000  1.300000e+001  3.606066e+001
      vertex  1.000000e+001  1.300000e+001  4.000000e+001
    endloop
  endfacet
  facet normal  0.000000e+000 -1.000000e+000  0.000000e+000
    outer loop
      vertex -1.500000e+001  1.300000e+001  3.500000e+001
      vertex -1.000000e+001  1.300000e+001  3.350000e+001
      vertex -1.106066e+001  1.300000e+001  3.393934e+001
    endloop
  endfacet
  facet normal  0.000000e+000 -1.000000e+000  0.000000e+000
    outer loop
      vertex -1.500000e+001  1.300000e+001  3.500000e+001
      vertex -1.106066e+001  1.300000e+001  3.393934e+001
      vertex -1.150000e+001  1.300000e+001  3.500000e+001
    endloop
  endfacet
  facet normal  0.000000e+000 -1.000000e+000  0.000000e+000
    outer loop
      vertex -1.500000e+001  1.300000e+001  3.500000e+001
      vertex -1.150000e+001  1.300000e+001  3.500000e+001
      vertex -1.106066e+001  1.300000e+001  3.606066e+001
    endloop
  endfacet
  facet normal  -0.000000e+000 -1.000000e+000  0.000000e+000
    outer loop
      vertex -1.500000e+001  1.300000e+001  3.500000e+001
      vertex -1.106066e+001  1.300000e+001  3.606066e+001
      vertex -1.000000e+001  1.300000e+001  3.650000e+001
    endloop
  endfacet
  facet normal  -0.000000e+000 -1.000000e+000  0.000000e+000
    outer loop
      vertex -1.500000e+001  1.300000e+001  3.500000e+001
      vertex -1.000000e+001  1.300000e+001  3.650000e+001
      vertex -1.433013e+001  1.300000e+001  3.750000e+001
    endloop
  endfacet
  facet normal  0.000000e+000 -1.000000e+000  0.000000e+000
    outer loop
      vertex  9.184548e-017  1.300000e+001  2.650000e+001
      vertex  1.060660e+000  1.300000e+001  2.606066e+001
      vertex  9.000000e+000  1.300000e+001  3.200000e+001
    endloop
  endfacet
  facet normal  -0.000000e+000 -1.000000e+000  0.000000e+000
    outer loop
      vertex  9.184548e-017  1.300000e+001  2.650000e+001
      vertex  9.000000e+000  1.300000e+001  3.200000e+001
      vertex  1.000000e+001  1.300000e+001  3.350000e+001
    endloop
  endfacet
  facet normal  -0.000000e+000 -9.999999e-001  0.000000e+000
    outer loop
      vertex  9.184548e-017  1.300000e+001  2.650000e+001
      vertex  1.000000e+001  1.300000e+001  3.350000e+001
      vertex  8.939340e+000  1.300000e+001  3.393934e+001
    endloop
  endfacet
  facet normal  -0.000000e+000 -9.999999e-001  0.000000e+000
    outer loop
      vertex  9.184548e-017  1.300000e+001  2.650000e+001
      vertex  8.939340e+000  1.300000e+001  3.393934e+001
      vertex  8.500000e+000  1.300000e+001  3.500000e+001
    endloop
  endfacet
  facet normal  -0.000000e+000 -1.000000e+000  0.000000e+000
    outer loop
      vertex  9.184548e-017  1.300000e+001  2.650000e+001
      vertex  8.500000e+000  1.300000e+001  3.500000e+001
      vertex  8.939340e+000  1.300000e+001  3.606066e+001
    endloop
  endfacet
  facet normal  0.000000e+000 -1.000000e+000  -0.000000e+000
    outer loop
      vertex  9.000000e+000  1.300000e+001  2.200000e+001
      vertex  9.000000e+000  1.300000e+001  3.200000e+001
      vertex  1.060660e+000  1.300000e+001  2.606066e+001
    endloop
  endfacet
  facet normal  0.000000e+000 -1.000000e+000  0.000000e+000
    outer loop
      vertex  9.000000e+000  1.300000e+001  2.200000e+001
      vertex  1.060660e+000  1.300000e+001  2.606066e+001
      vertex  1.500000e+000  1.300000e+001  2.500000e+001
    endloop
  endfacet
  facet normal  0.000000e+000 -1.000000e+000  -0.000000e+000
    outer loop
      vertex  9.000000e+000  1.300000e+001  2.200000e+001
      vertex  1.500000e+000  1.300000e+001  2.500000e+001
      vertex  1.060660e+000  1.300000e+001  2.393934e+001
    endloop
  endfacet
  facet normal  0.000000e+000 -1.000000e+000  -0.000000e+000
    outer loop
      vertex  9.000000e+000  1.300000e+001  2.200000e+001
      vertex  1.060660e+000  1.300000e+001  2.393934e+001
      vertex -2.755364e-016  1.300000e+001  2.350000e+001
    endloop
  endfacet
  facet normal  0.000000e+000 -1.000000e+000  0.000000e+000
    outer loop
      vertex  9.000000e+000  1.300000e+001  2.200000e+001
      vertex -2.755364e-016  1.300000e+001  2.350000e+001
      vertex  4.000000e+000  1.300000e+001  2.200000e+001
    endloop
  endfacet
  facet normal  0.000000e+000 -1.000000e+000  0.000000e+000
    outer loop
      vertex  9.184548e-017  1.300000e+001  2.650000e+001
      vertex -8.939340e+000  1.300000e+001  3.606066e+001
      vertex -8.500000e+000  1.300000e+001  3.500000e+001
    endloop
  endfacet
  facet normal  0.000000e+000 -9.999999e-001  -0.000000e+000
    outer loop
      vertex  9.184548e-017  1.300000e+001  2.650000e+001
      vertex -8.500000e+000  1.300000e+001  3.500000e+001
      vertex -8.939340e+000  1.300000e+001  3.393934e+001
    endloop
  endfacet
  facet normal  0.000000e+000 -9.999999e-001  -0.000000e+000
    outer loop
      vertex  9.184548e-017  1.300000e+001  2.650000e+001
      vertex -8.939340e+000  1.300000e+001  3.393934e+001
      vertex -1.000000e+001  1.300000e+001  3.350000e+001
    endloop
  endfacet
  facet normal  0.000000e+000 -1.000000e+000  0.000000e+000
    outer loop
      vertex  9.184548e-017  1.300000e+001  2.650000e+001
      vertex -1.000000e+001  1.300000e+001  3.350000e+001
      vertex -9.000000e+000  1.300000e+001  3.200000e+001
    endloop
  endfacet
  facet normal  0.000000e+000 -1.000000e+000  0.000000e+000
    outer loop
      vertex  9.184548e-017  1.300000e+001  2.650000e+001
      vertex -9.000000e+000  1.300000e+001  3.200000e+001
      vertex -1.060660e+000  1.300000e+001  2.606066e+001
    endloop
  endfacet
  facet normal  0.000000e+000 -1.000000e+000  0.000000e+000
    outer loop
      vertex -9.000000e+000  1.300000e+001  2.200000e+001
      vertex -4.000000e+000  1.300000e+001  2.200000e+001
      vertex -2.755364e-016  1.300000e+001  2.350000e+001
    endloop
  endfacet
  facet normal  -0.000000e+000 -1.000000e+000  0.000000e+000
    outer loop
      vertex -9.000000e+000  1.300000e+001  2.200000e+001
      vertex -2.755364e-016  1.300000e+001  2.350000e+001
      vertex -1.060660e+000  1.300000e+001  2.393934e+001
    endloop
  endfacet
  facet normal  -0.000000e+000 -1.000000e+000  0.000000e+000
    outer loop
      vertex -9.000000e+000  1.300000e+001  2.200000e+001
      vertex -1.060660e+000  1.300000e+001  2.393934e+001
      vertex -1.500000e+000  1.300000e+001  2.500000e+001
    endloop
  endfacet
  facet normal  -0.000000e+000 -1.000000e+000  0.000000e+000
    outer loop
      vertex -9.000000e+000  1.300000e+001  2.200000e+001
      vertex -1.500000e+000  1.300000e+001  2.500000e+001
      vertex -1.060660e+000  1.300000e+001  2.606066e+001
    endloop
  endfacet
  facet normal  -0.000000e+000 -1.000000e+000  0.000000e+000
    outer loop
      vertex -9.000000e+000  1.300000e+001  2.200000e+001
      vertex -1.060660e+000  1.300000e+001  2.606066e+001
      vertex -9.000000e+000  1.300000e+001  3.200000e+001
    endloop
  endfacet
  facet normal  0.000000e+000 -1.000000e+000  0.000000e+000
    outer loop
      vertex  1.500000e+001  1.300000e+001  3.500000e+001
      vertex  1.000000e+001  1.300000e+001  3.350000e+001
      vertex  1.500000e+001  1.300000e+001  3.200000e+001
    endloop
  endfacet
  facet normal  0.000000e+000 -1.000000e+000  0.000000e+000
    outer loop
      vertex  1.500000e+001  1.300000e+001  3.200000e+001
      vertex  1.000000e+001  1.300000e+001  3.350000e+001
      vertex  9.000000e+000  1.300000e+001  3.200000e+001
    endloop
  endfacet
  facet normal  0.000000e+000 -1.000000e+000  -0.000000e+000
    outer loop
      vertex -9.000000e+000  1.300000e+001  3.200000e+001
      vertex -1.000000e+001  1.300000e+001  3.350000e+001
      vertex -1.500000e+001  1.300000e+001  3.200000e+001
    endloop
  endfacet
  facet normal  0.000000e+000 -1.000000e+000  0.000000e+000
    outer loop
      vertex -1.500000e+001  1.300000e+001  3.200000e+001
      vertex -1.000000e+001  1.300000e+001  3.350000e+001
      vertex -1.500000e+001  1.300000e+001  3.500000e+001
    endloop
  endfacet
  facet normal  -0.000000e+000 -9.999999e-001  0.000000e+000
    outer loop
      vertex  8.939340e+000  1.300000e+001  3.606066e+001
      vertex  1.000000e+001  1.300000e+001  3.650000e+001
      vertex  1.000000e+001  1.300000e+001  4.000000e+001
    endloop
  endfacet
  facet normal  0.000000e+000 -1.000000e+000  0.000000e+000
    outer loop
      vertex  1.000000e+001  1.300000e+001  4.000000e+001
      vertex  1.000000e+001  1.300000e+001  3.650000e+001
      vertex  1.433013e+001  1.300000e+001  3.750000e+001
    endloop
  endfacet
  facet normal  0.000000e+000 -1.000000e+000  0.000000e+000
    outer loop
      vertex  1.000000e+001  1.300000e+001  4.000000e+001
      vertex  1.433013e+001  1.300000e+001  3.750000e+001
      vertex  1.250000e+001  1.300000e+001  3.933013e+001
    endloop
  endfacet
  facet normal  2.588188e-001  -0.000000e+000  9.659259e-001
    outer loop
      vertex  1.000000e+001  2.000000e+001  4.000000e+001
      vertex  1.000000e+001  1.300000e+001  4.000000e+001
      vertex  1.250000e+001  2.000000e+001  3.933013e+001
    endloop
  endfacet
  facet normal  2.588188e-001  0.000000e+000  9.659259e-001
    outer loop
      vertex  1.250000e+001  2.000000e+001  3.933013e+001
      vertex  1.000000e+001  1.300000e+001  4.000000e+001
      vertex  1.250000e+001  1.300000e+001  3.933013e+001
    endloop
  endfacet
  facet normal  7.071069e-001  -0.000000e+000  7.071066e-001
    outer loop
      vertex  1.250000e+001  2.000000e+001  3.933013e+001
      vertex  1.250000e+001  1.300000e+001  3.933013e+001
      vertex  1.433013e+001  2.000000e+001  3.750000e+001
    endloop
  endfacet
  facet normal  7.071069e-001  0.000000e+000  7.071066e-001
    outer loop
      vertex  1.433013e+001  2.000000e+001  3.750000e+001
      vertex  1.250000e+001  1.300000e+001  3.933013e+001
      vertex  1.433013e+001  1.300000e+001  3.750000e+001
    endloop
  endfacet
  facet normal  9.659259e-001  -0.000000e+000  2.588192e-001
    outer loop
      vertex  1.433013e+001  2.000000e+001  3.750000e+001
      vertex  1.433013e+001  1.300000e+001  3.750000e+001
      vertex  1.500000e+001  2.000000e+001  3.500000e+001
    endloop
  endfacet
  facet normal  9.659259e-001  0.000000e+000  2.588192e-001
    outer loop
      vertex  1.500000e+001  2.000000e+001  3.500000e+001
      vertex  1.433013e+001  1.300000e+001  3.750000e+001
      vertex  1.500000e+001  1.300000e+001  3.500000e+001
    endloop
  endfacet
  facet normal -2.588188e-001  0.000000e+000  9.659259e-001
    outer loop
      vertex -1.000000e+001  1.300000e+001  4.000000e+001
      vertex -1.000000e+001  2.000000e+001  4.000000e+001
      vertex -1.250000e+001  1.300000e+001  3.933013e+001
    endloop
  endfacet
  facet normal -2.588188e-001  0.000000e+000  9.659259e-001
    outer loop
      vertex -1.250000e+001  1.300000e+001  3.933013e+001
      vertex -1.000000e+001  2.000000e+001  4.000000e+001
      vertex -1.250000e+001  2.000000e+001  3.933013e+001
    endloop
  endfacet
  facet normal -7.071069e-001  0.000000e+000  7.071066e-001
    outer loop
      vertex -1.250000e+001  1.300000e+001  3.933013e+001
      vertex -1.250000e+001  2.000000e+001  3.933013e+001
      vertex -1.433013e+001  1.300000e+001  3.750000e+001
    endloop
  endfacet
  facet normal -7.071069e-001  0.000000e+000  7.071066e-001
    outer loop
      vertex -1.433013e+001  1.300000e+001  3.750000e+001
      vertex -1.250000e+001  2.000000e+001  3.933013e+001
      vertex -1.433013e+001  2.000000e+001  3.750000e+001
    endloop
  endfacet
  facet normal -9.659259e-001  0.000000e+000  2.588192e-001
    outer loop
      vertex -1.433013e+001  1.300000e+001  3.750000e+001
      vertex -1.433013e+001  2.000000e+001  3.750000e+001
      vertex -1.500000e+001  1.300000e+001  3.500000e+001
    endloop
  endfacet
  facet normal -9.659259e-001  0.000000e+000  2.588192e-001
    outer loop
      vertex -1.500000e+001  1.300000e+001  3.500000e+001
      vertex -1.433013e+001  2.000000e+001  3.750000e+001
      vertex -1.500000e+001  2.000000e+001  3.500000e+001
    endloop
  endfacet
  facet normal  0.000000e+000  0.000000e+000  1.000000e+000
    outer loop
      vertex -1.500000e+001 -1.000000e+001  5.000000e+000
      vertex -9.000000e+000 -1.000000e+001  5.000000e+000
      vertex -1.500000e+001  1.500000e+001  5.000000e+000
    endloop
  endfacet
  facet normal  -0.000000e+000  0.000000e+000  1.000000e+000
    outer loop
      vertex -1.500000e+001  1.500000e+001  5.000000e+000
      vertex -9.000000e+000 -1.000000e+001  5.000000e+000
      vertex -9.000000e+000  1.500000e+001  5.000000e+000
    endloop
  endfacet
  facet normal  0.000000e+000  0.000000e+000  1.000000e+000
    outer loop
      vertex  9.000000e+000 -1.000000e+001  5.000000e+000
      vertex  1.500000e+001 -1.000000e+001  5.000000e+000
      vertex  9.000000e+000  1.500000e+001  5.000000e+000
    endloop
  endfacet
  facet normal  -0.000000e+000  0.000000e+000  1.000000e+000
    outer loop
      vertex  9.000000e+000  1.500000e+001  5.000000e+000
      vertex  1.500000e+001 -1.000000e+001  5.000000e+000
      vertex  1.500000e+001  1.500000e+001  5.000000e+000
    endloop
  endfacet
  facet normal  0.000000e+000  0.000000e+000 -1.000000e+000
    outer loop
      vertex  1.500000e+001  1.500000e+001  3.200000e+001
      vertex  1.500000e+001  1.300000e+001  3.200000e+001
      vertex  9.000000e+000  1.500000e+001  3.200000e+001
    endloop
  endfacet
  facet normal  0.000000e+000  0.000000e+000 -1.000000e+000
    outer loop
      vertex  9.000000e+000  1.500000e+001  3.200000e+001
      vertex  1.500000e+001  1.300000e+001  3.200000e+001
      vertex  9.000000e+000  1.300000e+001  3.200000e+001
    endloop
  endfacet
  facet normal  0.000000e+000  0.000000e+000 -1.000000e+000
    outer loop
      vertex -9.000000e+000  1.500000e+001  3.200000e+001
      vertex -9.000000e+000  1.300000e+001  3.200000e+001
      vertex -1.500000e+001  1.500000e+001  3.200000e+001
    endloop
  endfacet
  facet normal  0.000000e+000  0.000000e+000 -1.000000e+000
    outer loop
      vertex -1.500000e+001  1.500000e+001  3.200000e+001
      vertex -9.000000e+000  1.300000e+001  3.200000e+001
      vertex -1.500000e+001  1.300000e+001  3.200000e+001
    endloop
  endfacet
  facet normal  0.000000e+000 -1.000000e+000  0.000000e+000
    outer loop
      vertex -1.500000e+001  1.500000e+001  5.000000e+000
      vertex -9.000000e+000  1.500000e+001  5.000000e+000
      vertex -1.500000e+001  1.500000e+001  3.200000e+001
    endloop
  endfacet
  facet normal  0.000000e+000 -1.000000e+000  0.000000e+000
    outer loop
      vertex -1.500000e+001  1.500000e+001  3.200000e+001
      vertex -9.000000e+000  1.500000e+001  5.000000e+000
      vertex -9.000000e+000  1.500000e+001  3.200000e+001
    endloop
  endfacet
  facet normal -1.000000e+000  0.000000e+000  0.000000e+000
    outer loop
      vertex -9.000000e+000  1.500000e+001  5.000000e+000
      vertex -9.000000e+000 -1.000000e+001  5.000000e+000
      vertex -9.000000e+000 -1.000000e+001  7.000000e+000
    endloop
  endfacet
  facet normal -1.000000e+000  0.000000e+000  0.000000e+000
    outer loop
      vertex -9.000000e+000  1.500000e+001  5.000000e+000
      vertex -9.000000e+000 -1.000000e+001  7.000000e+000
      vertex -9.000000e+000  0.000000e+000  7.000000e+000
    endloop
  endfacet
  facet normal -1.000000e+000  0.000000e+000  0.000000e+000
    outer loop
      vertex -9.000000e+000  1.500000e+001  5.000000e+000
      vertex -9.000000e+000  0.000000e+000  7.000000e+000
      vertex -9.000000e+000  1.300000e+001  2.200000e+001
    endloop
  endfacet
  facet normal -1.000000e+000  0.000000e+000  0.000000e+000
    outer loop
      vertex -9.000000e+000  1.500000e+001  5.000000e+000
      vertex -9.000000e+000  1.300000e+001  2.200000e+001
      vertex -9.000000e+000  1.300000e+001  3.200000e+001
    endloop
  endfacet
  facet normal -1.000000e+000  0.000000e+000  0.000000e+000
    outer loop
      vertex -9.000000e+000  1.500000e+001  5.000000e+000
      vertex -9.000000e+000  1.300000e+001  3.200000e+001
      vertex -9.000000e+000  1.500000e+001  3.200000e+001
    endloop
  endfacet
  facet normal  1.000000e+000  0.000000e+000  0.000000e+000
    outer loop
      vertex  9.000000e+000  1.500000e+001  5.000000e+000
      vertex  9.000000e+000  1.500000e+001  3.200000e+001
      vertex  9.000000e+000  1.300000e+001  3.200000e+001
    endloop
  endfacet
  facet normal  1.000000e+000  0.000000e+000  0.000000e+000
    outer loop
      vertex  9.000000e+000  1.500000e+001  5.000000e+000
      vertex  9.000000e+000  1.300000e+001  3.200000e+001
      vertex  9.000000e+000  1.300000e+001  2.200000e+001
    endloop
  endfacet
  facet normal  1.000000e+000  0.000000e+000  0.000000e+000
    outer loop
      vertex  9.000000e+000  1.500000e+001  5.000000e+000
      vertex  9.000000e+000  1.300000e+001  2.200000e+001
      vertex  9.000000e+000  1.776357e-015  7.000000e+000
    endloop
  endfacet
  facet normal  1.000000e+000  0.000000e+000  0.000000e+000
    outer loop
      vertex  9.000000e+000  1.500000e+001  5.000000e+000
      vertex  9.000000e+000  1.776357e-015  7.000000e+000
      vertex  9.000000e+000 -1.000000e+001  7.000000e+000
    endloop
  endfacet
  facet normal  1.000000e+000  0.000000e+000  0.000000e+000
    outer loop
      vertex  9.000000e+000  1.500000e+001  5.000000e+000
      vertex  9.000000e+000 -1.000000e+001  7.000000e+000
      vertex  9.000000e+000 -1.000000e+001  5.000000e+000
    endloop
  endfacet
  facet normal  0.000000e+000 -1.000000e+000  0.000000e+000
    outer loop
      vertex  9.000000e+000  1.500000e+001  5.000000e+000
      vertex  1.500000e+001  1.500000e+001  5.000000e+000
      vertex  9.000000e+000  1.500000e+001  3.200000e+001
    endloop
  endfacet
  facet normal  0.000000e+000 -1.000000e+000  0.000000e+000
    outer loop
      vertex  9.000000e+000  1.500000e+001  3.200000e+001
      vertex  1.500000e+001  1.500000e+001  5.000000e+000
      vertex  1.500000e+001  1.500000e+001  3.200000e+001
    endloop
  endfacet
  facet normal  0.000000e+000  1.000000e+000  0.000000e+000
    outer loop
      vertex  1.500000e+001 -1.000000e+001  5.000000e+000
      vertex  9.000000e+000 -1.000000e+001  5.000000e+000
      vertex  1.500000e+001 -1.000000e+001  7.000000e+000
    endloop
  endfacet
  facet normal  0.000000e+000  1.000000e+000  0.000000e+000
    outer loop
      vertex  1.500000e+001 -1.000000e+001  7.000000e+000
      vertex  9.000000e+000 -1.000000e+001  5.000000e+000
      vertex  9.000000e+000 -1.000000e+001  7.000000e+000
    endloop
  endfacet
  facet normal  0.000000e+000  1.000000e+000  0.000000e+000
    outer loop
      vertex -9.000000e+000 -1.000000e+001  5.000000e+000
      vertex -1.500000e+001 -1.000000e+001  5.000000e+000
      vertex -9.000000e+000 -1.000000e+001  7.000000e+000
    endloop
  endfacet
  facet normal  0.000000e+000  1.000000e+000  0.000000e+000
    outer loop
      vertex -9.000000e+000 -1.000000e+001  7.000000e+000
      vertex -1.500000e+001 -1.000000e+001  5.000000e+000
      vertex -1.500000e+001 -1.000000e+001  7.000000e+000
    endloop
  endfacet
  facet normal  0.000000e+000 -7.556891e-001  6.549305e-001
    outer loop
      vertex  4.000000e+000  1.300000e+001  2.200000e+001
      vertex  4.000000e+000 -1.776357e-015  7.000000e+000
      vertex  9.000000e+000  1.300000e+001  2.200000e+001
    endloop
  endfacet
  facet normal  0.000000e+000 -7.556891e-001  6.549305e-001
    outer loop
      vertex  9.000000e+000  1.300000e+001  2.200000e+001
      vertex  4.000000e+000 -1.776357e-015  7.000000e+000
      vertex  9.000000e+000  1.776357e-015  7.000000e+000
    endloop
  endfacet
  facet normal  0.000000e+000 -7.556891e-001  6.549305e-001
    outer loop
      vertex -9.000000e+000  1.300000e+001  2.200000e+001
      vertex -9.000000e+000  0.000000e+000  7.000000e+000
      vertex -4.000000e+000  1.300000e+001  2.200000e+001
    endloop
  endfacet
  facet normal  0.000000e+000 -7.556891e-001  6.549305e-001
    outer loop
      vertex -4.000000e+000  1.300000e+001  2.200000e+001
      vertex -9.000000e+000  0.000000e+000  7.000000e+000
      vertex -4.000000e+000  0.000000e+000  7.000000e+000
    endloop
  endfacet
  facet normal  0.000000e+000 -1.000000e+000  0.000000e+000
    outer loop
      vertex -4.000000e+000  1.500000e+001  7.000000e+000
      vertex  4.000000e+000  1.500000e+001  7.000000e+000
      vertex -4.000000e+000  1.500000e+001  2.200000e+001
    endloop
  endfacet
  facet normal  0.000000e+000 -1.000000e+000  0.000000e+000
    outer loop
      vertex -4.000000e+000  1.500000e+001  2.200000e+001
      vertex  4.000000e+000  1.500000e+001  7.000000e+000
      vertex  4.000000e+000  1.500000e+001  2.200000e+001
    endloop
  endfacet
  facet normal  1.000000e+000  -0.000000e+000  0.000000e+000
    outer loop
      vertex -4.000000e+000  1.500000e+001  2.200000e+001
      vertex -4.000000e+000  1.300000e+001  2.200000e+001
      vertex -4.000000e+000  1.500000e+001  7.000000e+000
    endloop
  endfacet
  facet normal  1.000000e+000  0.000000e+000  0.000000e+000
    outer loop
      vertex -4.000000e+000  1.500000e+001  7.000000e+000
      vertex -4.000000e+000  1.300000e+001  2.200000e+001
      vertex -4.000000e+000  0.000000e+000  7.000000e+000
    endloop
  endfacet
  facet normal  -0.000000e+000  0.000000e+000 -1.000000e+000
    outer loop
      vertex -4.000000e+000  1.500000e+001  2.200000e+001
      vertex  4.000000e+000  1.500000e+001  2.200000e+001
      vertex -4.000000e+000  1.300000e+001  2.200000e+001
    endloop
  endfacet
  facet normal  0.000000e+000  0.000000e+000 -1.000000e+000
    outer loop
      vertex -4.000000e+000  1.300000e+001  2.200000e+001
      vertex  4.000000e+000  1.500000e+001  2.200000e+001
      vertex  4.000000e+000  1.300000e+001  2.200000e+001
    endloop
  endfacet
  facet normal -1.000000e+000  0.000000e+000  0.000000e+000
    outer loop
      vertex  4.000000e+000  1.500000e+001  7.000000e+000
      vertex  4.000000e+000 -1.776357e-015  7.000000e+000
      vertex  4.000000e+000  1.500000e+001  2.200000e+001
    endloop
  endfacet
  facet normal -1.000000e+000  -0.000000e+000  0.000000e+000
    outer loop
      vertex  4.000000e+000  1.500000e+001  2.200000e+001
      vertex  4.000000e+000 -1.776357e-015  7.000000e+000
      vertex  4.000000e+000  1.300000e+001  2.200000e+001
    endloop
  endfacet
  facet normal -3.826832e-001  9.238796e-001  0.000000e+000
    outer loop
      vertex  1.000000e+001 -1.450000e+001  0.000000e+000
      vertex  1.106066e+001 -1.406066e+001  7.000000e+000
      vertex  1.106066e+001 -1.406066e+001  0.000000e+000
    endloop
  endfacet
  facet normal -9.238796e-001  3.826832e-001  0.000000e+000
    outer loop
      vertex  1.106066e+001 -1.406066e+001  0.000000e+000
      vertex  1.106066e+001 -1.406066e+001  7.000000e+000
      vertex  1.150000e+001 -1.300000e+001  7.000000e+000
    endloop
  endfacet
  facet normal -9.238796e-001  3.826832e-001  0.000000e+000
    outer loop
      vertex  1.106066e+001 -1.406066e+001  0.000000e+000
      vertex  1.150000e+001 -1.300000e+001  7.000000e+000
      vertex  1.150000e+001 -1.300000e+001  0.000000e+000
    endloop
  endfacet
  facet normal -3.826832e-001  9.238796e-001  0.000000e+000
    outer loop
      vertex  1.106066e+001 -1.406066e+001  7.000000e+000
      vertex  1.000000e+001 -1.450000e+001  0.000000e+000
      vertex  1.000000e+001 -1.450000e+001  7.000000e+000
    endloop
  endfacet
  facet normal  3.826832e-001  9.238796e-001  0.000000e+000
    outer loop
      vertex  1.000000e+001 -1.450000e+001  7.000000e+000
      vertex  1.000000e+001 -1.450000e+001  0.000000e+000
      vertex  8.939340e+000 -1.406066e+001  0.000000e+000
    endloop
  endfacet
  facet normal  3.826832e-001  9.238796e-001  -0.000000e+000
    outer loop
      vertex  1.000000e+001 -1.450000e+001  7.000000e+000
      vertex  8.939340e+000 -1.406066e+001  0.000000e+000
      vertex  8.939340e+000 -1.406066e+001  7.000000e+000
    endloop
  endfacet
  facet normal  9.238796e-001  3.826832e-001  0.000000e+000
    outer loop
      vertex  8.939340e+000 -1.406066e+001  7.000000e+000
      vertex  8.939340e+000 -1.406066e+001  0.000000e+000
      vertex  8.500000e+000 -1.300000e+001  0.000000e+000
    endloop
  endfacet
  facet normal  9.238796e-001  3.826832e-001  -0.000000e+000
    outer loop
      vertex  8.939340e+000 -1.406066e+001  7.000000e+000
      vertex  8.500000e+000 -1.300000e+001  0.000000e+000
      vertex  8.500000e+000 -1.300000e+001  7.000000e+000
    endloop
  endfacet
  facet normal  3.826832e-001 -9.238796e-001  0.000000e+000
    outer loop
      vertex  1.000000e+001 -1.150000e+001  0.000000e+000
      vertex  8.939340e+000 -1.193934e+001  7.000000e+000
      vertex  8.939340e+000 -1.193934e+001  0.000000e+000
    endloop
  endfacet
  facet normal  9.238796e-001 -3.826832e-001  0.000000e+000
    outer loop
      vertex  8.939340e+000 -1.193934e+001  0.000000e+000
      vertex  8.939340e+000 -1.193934e+001  7.000000e+000
      vertex  8.500000e+000 -1.300000e+001  7.000000e+000
    endloop
  endfacet
  facet normal  9.238796e-001 -3.826832e-001  0.000000e+000
    outer loop
      vertex  8.939340e+000 -1.193934e+001  0.000000e+000
      vertex  8.500000e+000 -1.300000e+001  7.000000e+000
      vertex  8.500000e+000 -1.300000e+001  0.000000e+000
    endloop
  endfacet
  facet normal  3.826832e-001 -9.238796e-001  0.000000e+000
    outer loop
      vertex  8.939340e+000 -1.193934e+001  7.000000e+000
      vertex  1.000000e+001 -1.150000e+001  0.000000e+000
      vertex  1.000000e+001 -1.150000e+001  7.000000e+000
    endloop
  endfacet
  facet normal -3.826832e-001 -9.238796e-001  -0.000000e+000
    outer loop
      vertex  1.000000e+001 -1.150000e+001  7.000000e+000
      vertex  1.000000e+001 -1.150000e+001  0.000000e+000
      vertex  1.106066e+001 -1.193934e+001  0.000000e+000
    endloop
  endfacet
  facet normal -3.826832e-001 -9.238796e-001  0.000000e+000
    outer loop
      vertex  1.000000e+001 -1.150000e+001  7.000000e+000
      vertex  1.106066e+001 -1.193934e+001  0.000000e+000
      vertex  1.106066e+001 -1.193934e+001  7.000000e+000
    endloop
  endfacet
  facet normal -9.238796e-001 -3.826832e-001  -0.000000e+000
    outer loop
      vertex  1.106066e+001 -1.193934e+001  7.000000e+000
      vertex  1.106066e+001 -1.193934e+001  0.000000e+000
      vertex  1.150000e+001 -1.300000e+001  0.000000e+000
    endloop
  endfacet
  facet normal -9.238796e-001 -3.826832e-001  0.000000e+000
    outer loop
      vertex  1.106066e+001 -1.193934e+001  7.000000e+000
      vertex  1.150000e+001 -1.300000e+001  0.000000e+000
      vertex  1.150000e+001 -1.300000e+001  7.000000e+000
    endloop
  endfacet
  facet normal -3.826832e-001  9.238796e-001  0.000000e+000
    outer loop
      vertex -1.000000e+001 -1.450000e+001  0.000000e+000
      vertex -8.939340e+000 -1.406066e+001  7.000000e+000
      vertex -8.939340e+000 -1.406066e+001  0.000000e+000
    endloop
  endfacet
  facet normal -9.238796e-001  3.826832e-001  0.000000e+000
    outer loop
      vertex -8.939340e+000 -1.406066e+001  0.000000e+000
      vertex -8.939340e+000 -1.406066e+001  7.000000e+000
      vertex -8.500000e+000 -1.300000e+001  7.000000e+000
    endloop
  endfacet
  facet normal -9.238796e-001  3.826832e-001  0.000000e+000
    outer loop
      vertex -8.939340e+000 -1.406066e+001  0.000000e+000
      vertex -8.500000e+000 -1.300000e+001  7.000000e+000
      vertex -8.500000e+000 -1.300000e+001  0.000000e+000
    endloop
  endfacet
  facet normal -3.826832e-001  9.238796e-001  0.000000e+000
    outer loop
      vertex -8.939340e+000 -1.406066e+001  7.000000e+000
      vertex -1.000000e+001 -1.450000e+001  0.000000e+000
      vertex -1.000000e+001 -1.450000e+001  7.000000e+000
    endloop
  endfacet
  facet normal  3.826832e-001  9.238796e-001  0.000000e+000
    outer loop
      vertex -1.000000e+001 -1.450000e+001  7.000000e+000
      vertex -1.000000e+001 -1.450000e+001  0.000000e+000
      vertex -1.106066e+001 -1.406066e+001  0.000000e+000
    endloop
  endfacet
  facet normal  3.826832e-001  9.238796e-001  -0.000000e+000
    outer loop
      vertex -1.000000e+001 -1.450000e+001  7.000000e+000
      vertex -1.106066e+001 -1.406066e+001  0.000000e+000
      vertex -1.106066e+001 -1.406066e+001  7.000000e+000
    endloop
  endfacet
  facet normal  9.238796e-001  3.826832e-001  0.000000e+000
    outer loop
      vertex -1.106066e+001 -1.406066e+001  7.000000e+000
      vertex -1.106066e+001 -1.406066e+001  0.000000e+000
      vertex -1.150000e+001 -1.300000e+001  0.000000e+000
    endloop
  endfacet
  facet normal  9.238796e-001  3.826832e-001  -0.000000e+000
    outer loop
      vertex -1.106066e+001 -1.406066e+001  7.000000e+000
      vertex -1.150000e+001 -1.300000e+001  0.000000e+000
      vertex -1.150000e+001 -1.300000e+001  7.000000e+000
    endloop
  endfacet
  facet normal  3.826832e-001 -9.238796e-001  0.000000e+000
    outer loop
      vertex -1.000000e+001 -1.150000e+001  0.000000e+000
      vertex -1.106066e+001 -1.193934e+001  7.000000e+000
      vertex -1.106066e+001 -1.193934e+001  0.000000e+000
    endloop
  endfacet
  facet normal  9.238796e-001 -3.826832e-001  0.000000e+000
    outer loop
      vertex -1.106066e+001 -1.193934e+001  0.000000e+000
      vertex -1.106066e+001 -1.193934e+001  7.000000e+000
      vertex -1.150000e+001 -1.300000e+001  7.000000e+000
    endloop
  endfacet
  facet normal  9.238796e-001 -3.826832e-001  0.000000e+000
    outer loop
      vertex -1.106066e+001 -1.193934e+001  0.000000e+000
      vertex -1.150000e+001 -1.300000e+001  7.000000e+000
      vertex -1.150000e+001 -1.300000e+001  0.000000e+000
    endloop
  endfacet
  facet normal  3.826832e-001 -9.238796e-001  0.000000e+000
    outer loop
      vertex -1.106066e+001 -1.193934e+001  7.000000e+000
      vertex -1.000000e+001 -1.150000e+001  0.000000e+000
      vertex -1.000000e+001 -1.150000e+001  7.000000e+000
    endloop
  endfacet
  facet normal -3.826832e-001 -9.238796e-001  -0.000000e+000
    outer loop
      vertex -1.000000e+001 -1.150000e+001  7.000000e+000
      vertex -1.000000e+001 -1.150000e+001  0.000000e+000
      vertex -8.939340e+000 -1.193934e+001  0.000000e+000
    endloop
  endfacet
  facet normal -3.826832e-001 -9.238796e-001  0.000000e+000
    outer loop
      vertex -1.000000e+001 -1.150000e+001  7.000000e+000
      vertex -8.939340e+000 -1.193934e+001  0.000000e+000
      vertex -8.939340e+000 -1.193934e+001  7.000000e+000
    endloop
  endfacet
  facet normal -9.238796e-001 -3.826832e-001  -0.000000e+000
    outer loop
      vertex -8.939340e+000 -1.193934e+001  7.000000e+000
      vertex -8.939340e+000 -1.193934e+001  0.000000e+000
      vertex -8.500000e+000 -1.300000e+001  0.000000e+000
    endloop
  endfacet
  facet normal -9.238796e-001 -3.826832e-001  0.000000e+000
    outer loop
      vertex -8.939340e+000 -1.193934e+001  7.000000e+000
      vertex -8.500000e+000 -1.300000e+001  0.000000e+000
      vertex -8.500000e+000 -1.300000e+001  7.000000e+000
    endloop
  endfacet
  facet normal -3.826825e-001  0.000000e+000  9.238799e-001
    outer loop
      vertex  1.000000e+001  2.000000e+001  3.350000e+001
      vertex  1.106066e+001  1.300000e+001  3.393934e+001
      vertex  1.106066e+001  2.000000e+001  3.393934e+001
    endloop
  endfacet
  facet normal -9.238797e-001  0.000000e+000  3.826829e-001
    outer loop
      vertex  1.106066e+001  2.000000e+001  3.393934e+001
      vertex  1.106066e+001  1.300000e+001  3.393934e+001
      vertex  1.150000e+001  1.300000e+001  3.500000e+001
    endloop
  endfacet
  facet normal -9.238797e-001  0.000000e+000  3.826829e-001
    outer loop
      vertex  1.106066e+001  2.000000e+001  3.393934e+001
      vertex  1.150000e+001  1.300000e+001  3.500000e+001
      vertex  1.150000e+001  2.000000e+001  3.500000e+001
    endloop
  endfacet
  facet normal -3.826825e-001  0.000000e+000  9.238799e-001
    outer loop
      vertex  1.106066e+001  1.300000e+001  3.393934e+001
      vertex  1.000000e+001  2.000000e+001  3.350000e+001
      vertex  1.000000e+001  1.300000e+001  3.350000e+001
    endloop
  endfacet
  facet normal  3.826825e-001  -0.000000e+000  9.238799e-001
    outer loop
      vertex  1.000000e+001  1.300000e+001  3.350000e+001
      vertex  1.000000e+001  2.000000e+001  3.350000e+001
      vertex  8.939340e+000  2.000000e+001  3.393934e+001
    endloop
  endfacet
  facet normal  3.826825e-001  0.000000e+000  9.238799e-001
    outer loop
      vertex  1.000000e+001  1.300000e+001  3.350000e+001
      vertex  8.939340e+000  2.000000e+001  3.393934e+001
      vertex  8.939340e+000  1.300000e+001  3.393934e+001
    endloop
  endfacet
  facet normal  9.238797e-001  -0.000000e+000  3.826829e-001
    outer loop
      vertex  8.939340e+000  1.300000e+001  3.393934e+001
      vertex  8.939340e+000  2.000000e+001  3.393934e+001
      vertex  8.500000e+000  2.000000e+001  3.500000e+001
    endloop
  endfacet
  facet normal  9.238797e-001  0.000000e+000  3.826829e-001
    outer loop
      vertex  8.939340e+000  1.300000e+001  3.393934e+001
      vertex  8.500000e+000  2.000000e+001  3.500000e+001
      vertex  8.500000e+000  1.300000e+001  3.500000e+001
    endloop
  endfacet
  facet normal  3.826825e-001  0.000000e+000 -9.238799e-001
    outer loop
      vertex  1.000000e+001  2.000000e+001  3.650000e+001
      vertex  8.939340e+000  1.300000e+001  3.606066e+001
      vertex  8.939340e+000  2.000000e+001  3.606066e+001
    endloop
  endfacet
  facet normal  9.238797e-001  0.000000e+000 -3.826829e-001
    outer loop
      vertex  8.939340e+000  2.000000e+001  3.606066e+001
      vertex  8.939340e+000  1.300000e+001  3.606066e+001
      vertex  8.500000e+000  1.300000e+001  3.500000e+001
    endloop
  endfacet
  facet normal  9.238797e-001  0.000000e+000 -3.826829e-001
    outer loop
      vertex  8.939340e+000  2.000000e+001  3.606066e+001
      vertex  8.500000e+000  1.300000e+001  3.500000e+001
      vertex  8.500000e+000  2.000000e+001  3.500000e+001
    endloop
  endfacet
  facet normal  3.826825e-001  0.000000e+000 -9.238799e-001
    outer loop
      vertex  8.939340e+000  1.300000e+001  3.606066e+001
      vertex  1.000000e+001  2.000000e+001  3.650000e+001
      vertex  1.000000e+001  1.300000e+001  3.650000e+001
    endloop
  endfacet
  facet normal -3.826825e-001  0.000000e+000 -9.238799e-001
    outer loop
      vertex  1.000000e+001  1.300000e+001  3.650000e+001
      vertex  1.000000e+001  2.000000e+001  3.650000e+001
      vertex  1.106066e+001  2.000000e+001  3.606066e+001
    endloop
  endfacet
  facet normal -3.826825e-001  -0.000000e+000 -9.238799e-001
    outer loop
      vertex  1.000000e+001  1.300000e+001  3.650000e+001
      vertex  1.106066e+001  2.000000e+001  3.606066e+001
      vertex  1.106066e+001  1.300000e+001  3.606066e+001
    endloop
  endfacet
  facet normal -9.238797e-001  0.000000e+000 -3.826829e-001
    outer loop
      vertex  1.106066e+001  1.300000e+001  3.606066e+001
      vertex  1.106066e+001  2.000000e+001  3.606066e+001
      vertex  1.150000e+001  2.000000e+001  3.500000e+001
    endloop
  endfacet
  facet normal -9.238797e-001  -0.000000e+000 -3.826829e-001
    outer loop
      vertex  1.106066e+001  1.300000e+001  3.606066e+001
      vertex  1.150000e+001  2.000000e+001  3.500000e+001
      vertex  1.150000e+001  1.300000e+001  3.500000e+001
    endloop
  endfacet
  facet normal -3.826825e-001  0.000000e+000  9.238799e-001
    outer loop
      vertex -1.000000e+001  2.000000e+001  3.350000e+001
      vertex -8.939340e+000  1.300000e+001  3.393934e+001
      vertex -8.939340e+000  2.000000e+001  3.393934e+001
    endloop
  endfacet
  facet normal -9.238797e-001  0.000000e+000  3.826829e-001
    outer loop
      vertex -8.939340e+000  2.000000e+001  3.393934e+001
      vertex -8.939340e+000  1.300000e+001  3.393934e+001
      vertex -8.500000e+000  1.300000e+001  3.500000e+001
    endloop
  endfacet
  facet normal -9.238797e-001  0.000000e+000  3.826829e-001
    outer loop
      vertex -8.939340e+000  2.000000e+001  3.393934e+001
      vertex -8.500000e+000  1.300000e+001  3.500000e+001
      vertex -8.500000e+000  2.000000e+001  3.500000e+001
    endloop
  endfacet
  facet normal -3.826825e-001  0.000000e+000  9.238799e-001
    outer loop
      vertex -8.939340e+000  1.300000e+001  3.393934e+001
      vertex -1.000000e+001  2.000000e+001  3.350000e+001
      vertex -1.000000e+001  1.300000e+001  3.350000e+001
    endloop
  endfacet
  facet normal  3.826825e-001  -0.000000e+000  9.238799e-001
    outer loop
      vertex -1.000000e+001  1.300000e+001  3.350000e+001
      vertex -1.000000e+001  2.000000e+001  3.350000e+001
      vertex -1.106066e+001  2.000000e+001  3.393934e+001
    endloop
  endfacet
  facet normal  3.826825e-001  0.000000e+000  9.238799e-001
    outer loop
      vertex -1.000000e+001  1.300000e+001  3.350000e+001
      vertex -1.106066e+001  2.000000e+001  3.393934e+001
      vertex -1.106066e+001  1.300000e+001  3.393934e+001
    endloop
  endfacet
  facet normal  9.238797e-001  -0.000000e+000  3.826829e-001
    outer loop
      vertex -1.106066e+001  1.300000e+001  3.393934e+001
      vertex -1.106066e+001  2.000000e+001  3.393934e+001
      vertex -1.150000e+001  2.000000e+001  3.500000e+001
    endloop
  endfacet
  facet normal  9.238797e-001  0.000000e+000  3.826829e-001
    outer loop
      vertex -1.106066e+001  1.300000e+001  3.393934e+001
      vertex -1.150000e+001  2.000000e+001  3.500000e+001
      vertex -1.150000e+001  1.300000e+001  3.500000e+001
    endloop
  endfacet
  facet normal  3.826825e-001  0.000000e+000 -9.238799e-001
    outer loop
      vertex -1.000000e+001  2.000000e+001  3.650000e+001
      vertex -1.106066e+001  1.300000e+001  3.606066e+001
      vertex -1.106066e+001  2.000000e+001  3.606066e+001
    endloop
  endfacet
  facet normal  9.238797e-001  0.000000e+000 -3.826829e-001
    outer loop
      vertex -1.106066e+001  2.000000e+001  3.606066e+001
      vertex -1.106066e+001  1.300000e+001  3.606066e+001
      vertex -1.150000e+001  1.300000e+001  3.500000e+001
    endloop
  endfacet
  facet normal  9.238797e-001  0.000000e+000 -3.826829e-001
    outer loop
      vertex -1.106066e+001  2.000000e+001  3.606066e+001
      vertex -1.150000e+001  1.300000e+001  3.500000e+001
      vertex -1.150000e+001  2.000000e+001  3.500000e+001
    endloop
  endfacet
  facet normal  3.826825e-001  0.000000e+000 -9.238799e-001
    outer loop
      vertex -1.106066e+001  1.300000e+001  3.606066e+001
      vertex -1.000000e+001  2.000000e+001  3.650000e+001
      vertex -1.000000e+001  1.300000e+001  3.650000e+001
    endloop
  endfacet
  facet normal -3.826825e-001  0.000000e+000 -9.238799e-001
    outer loop
      vertex -1.000000e+001  1.300000e+001  3.650000e+001
      vertex -1.000000e+001  2.000000e+001  3.650000e+001
      vertex -8.939340e+000  2.000000e+001  3.606066e+001
    endloop
  endfacet
  facet normal -3.826825e-001  -0.000000e+000 -9.238799e-001
    outer loop
      vertex -1.000000e+001  1.300000e+001  3.650000e+001
      vertex -8.939340e+000  2.000000e+001  3.606066e+001
      vertex -8.939340e+000  1.300000e+001  3.606066e+001
    endloop
  endfacet
  facet normal -9.238797e-001  0.000000e+000 -3.826829e-001
    outer loop
      vertex -8.939340e+000  1.300000e+001  3.606066e+001
      vertex -8.939340e+000  2.000000e+001  3.606066e+001
      vertex -8.500000e+000  2.000000e+001  3.500000e+001
    endloop
  endfacet
  facet normal -9.238797e-001  -0.000000e+000 -3.826829e-001
    outer loop
      vertex -8.939340e+000  1.300000e+001  3.606066e+001
      vertex -8.500000e+000  2.000000e+001  3.500000e+001
      vertex -8.500000e+000  1.300000e+001  3.500000e+001
    endloop
  endfacet
  facet normal -3.826841e-001  0.000000e+000  9.238793e-001
    outer loop
      vertex -2.755364e-016  2.000000e+001  2.350000e+001
      vertex  1.060660e+000  1.300000e+001  2.393934e+001
      vertex  1.060660e+000  2.000000e+001  2.393934e+001
    endloop
  endfacet
  facet normal -9.238794e-001  0.000000e+000  3.826837e-001
    outer loop
      vertex  1.060660e+000  2.000000e+001  2.393934e+001
      vertex  1.060660e+000  1.300000e+001  2.393934e+001
      vertex  1.500000e+000  1.300000e+001  2.500000e+001
    endloop
  endfacet
  facet normal -9.238794e-001  0.000000e+000  3.826837e-001
    outer loop
      vertex  1.060660e+000  2.000000e+001  2.393934e+001
      vertex  1.500000e+000  1.300000e+001  2.500000e+001
      vertex  1.500000e+000  2.000000e+001  2.500000e+001
    endloop
  endfacet
  facet normal -3.826841e-001  0.000000e+000  9.238793e-001
    outer loop
      vertex  1.060660e+000  1.300000e+001  2.393934e+001
      vertex -2.755364e-016  2.000000e+001  2.350000e+001
      vertex -2.755364e-016  1.300000e+001  2.350000e+001
    endloop
  endfacet
  facet normal  3.826841e-001  -0.000000e+000  9.238793e-001
    outer loop
      vertex -2.755364e-016  1.300000e+001  2.350000e+001
      vertex -2.755364e-016  2.000000e+001  2.350000e+001
      vertex -1.060660e+000  2.000000e+001  2.393934e+001
    endloop
  endfacet
  facet normal  3.826841e-001  0.000000e+000  9.238793e-001
    outer loop
      vertex -2.755364e-016  1.300000e+001  2.350000e+001
      vertex -1.060660e+000  2.000000e+001  2.393934e+001
      vertex -1.060660e+000  1.300000e+001  2.393934e+001
    endloop
  endfacet
  facet normal  9.238794e-001  -0.000000e+000  3.826837e-001
    outer loop
      vertex -1.060660e+000  1.300000e+001  2.393934e+001
      vertex -1.060660e+000  2.000000e+001  2.393934e+001
      vertex -1.500000e+000  2.000000e+001  2.500000e+001
    endloop
  endfacet
  facet normal  9.238794e-001  0.000000e+000  3.826837e-001
    outer loop
      vertex -1.060660e+000  1.300000e+001  2.393934e+001
      vertex -1.500000e+000  2.000000e+001  2.500000e+001
      vertex -1.500000e+000  1.300000e+001  2.500000e+001
    endloop
  endfacet
  facet normal  3.826841e-001  0.000000e+000 -9.238793e-001
    outer loop
      vertex  9.184548e-017  2.000000e+001  2.650000e+001
      vertex -1.060660e+000  1.300000e+001  2.606066e+001
      vertex -1.060660e+000  2.000000e+001  2.606066e+001
    endloop
  endfacet
  facet normal  9.238794e-001  0.000000e+000 -3.826837e-001
    outer loop
      vertex -1.060660e+000  2.000000e+001  2.606066e+001
      vertex -1.060660e+000  1.300000e+001  2.606066e+001
      vertex -1.500000e+000  1.300000e+001  2.500000e+001
    endloop
  endfacet
  facet normal  9.238794e-001  0.000000e+000 -3.826837e-001
    outer loop
      vertex -1.060660e+000  2.000000e+001  2.606066e+001
      vertex -1.500000e+000  1.300000e+001  2.500000e+001
      vertex -1.500000e+000  2.000000e+001  2.500000e+001
    endloop
  endfacet
  facet normal  3.826841e-001  0.000000e+000 -9.238793e-001
    outer loop
      vertex -1.060660e+000  1.300000e+001  2.606066e+001
      vertex  9.184548e-017  2.000000e+001  2.650000e+001
      vertex  9.184548e-017  1.300000e+001  2.650000e+001
    endloop
  endfacet
  facet normal -3.826841e-001  0.000000e+000 -9.238793e-001
    outer loop
      vertex  9.184548e-017  1.300000e+001  2.650000e+001
      vertex  9.184548e-017  2.000000e+001  2.650000e+001
      vertex  1.060660e+000  2.000000e+001  2.606066e+001
    endloop
  endfacet
  facet normal -3.826841e-001  -0.000000e+000 -9.238793e-001
    outer loop
      vertex  9.184548e-017  1.300000e+001  2.650000e+001
      vertex  1.060660e+000  2.000000e+001  2.606066e+001
      vertex  1.060660e+000  1.300000e+001  2.606066e+001
    endloop
  endfacet
  facet normal -9.238794e-001  0.000000e+000 -3.826837e-001
    outer loop
      vertex  1.060660e+000  1.300000e+001  2.606066e+001
      vertex  1.060660e+000  2.000000e+001  2.606066e+001
      vertex  1.500000e+000  2.000000e+001  2.500000e+001
    endloop
  endfacet
  facet normal -9.238794e-001  -0.000000e+000 -3.826837e-001
    outer loop
      vertex  1.060660e+000  1.300000e+001  2.606066e+001
      vertex  1.500000e+000  2.000000e+001  2.500000e+001
      vertex  1.500000e+000  1.300000e+001  2.500000e+001
    endloop
  endfacet
  facet normal  3.826835e-001 -9.238796e-001  0.000000e+000
    outer loop
      vertex  9.184548e-017 -3.500000e+000  0.000000e+000
      vertex -1.060660e+000 -3.939340e+000  7.000000e+000
      vertex -1.060660e+000 -3.939340e+000  0.000000e+000
    endloop
  endfacet
  facet normal  9.238796e-001 -3.826835e-001  0.000000e+000
    outer loop
      vertex -1.060660e+000 -3.939340e+000  0.000000e+000
      vertex -1.060660e+000 -3.939340e+000  7.000000e+000
      vertex -1.500000e+000 -5.000000e+000  7.000000e+000
    endloop
  endfacet
  facet normal  9.238796e-001 -3.826835e-001  0.000000e+000
    outer loop
      vertex -1.060660e+000 -3.939340e+000  0.000000e+000
      vertex -1.500000e+000 -5.000000e+000  7.000000e+000
      vertex -1.500000e+000 -5.000000e+000  0.000000e+000
    endloop
  endfacet
  facet normal  3.826835e-001 -9.238796e-001  0.000000e+000
    outer loop
      vertex -1.060660e+000 -3.939340e+000  7.000000e+000
      vertex  9.184548e-017 -3.500000e+000  0.000000e+000
      vertex  9.184548e-017 -3.500000e+000  7.000000e+000
    endloop
  endfacet
  facet normal -3.826835e-001 -9.238796e-001  -0.000000e+000
    outer loop
      vertex  9.184548e-017 -3.500000e+000  7.000000e+000
      vertex  9.184548e-017 -3.500000e+000  0.000000e+000
      vertex  1.060660e+000 -3.939340e+000  0.000000e+000
    endloop
  endfacet
  facet normal -3.826835e-001 -9.238796e-001  0.000000e+000
    outer loop
      vertex  9.184548e-017 -3.500000e+000  7.000000e+000
      vertex  1.060660e+000 -3.939340e+000  0.000000e+000
      vertex  1.060660e+000 -3.939340e+000  7.000000e+000
    endloop
  endfacet
  facet normal -9.238796e-001 -3.826835e-001  -0.000000e+000
    outer loop
      vertex  1.060660e+000 -3.939340e+000  7.000000e+000
      vertex  1.060660e+000 -3.939340e+000  0.000000e+000
      vertex  1.500000e+000 -5.000000e+000  0.000000e+000
    endloop
  endfacet
  facet normal -9.238796e-001 -3.826835e-001  0.000000e+000
    outer loop
      vertex  1.060660e+000 -3.939340e+000  7.000000e+000
      vertex  1.500000e+000 -5.000000e+000  0.000000e+000
      vertex  1.500000e+000 -5.000000e+000  7.000000e+000
    endloop
  endfacet
  facet normal -3.826833e-001  9.238796e-001  0.000000e+000
    outer loop
      vertex -2.755364e-016 -6.500000e+000  0.000000e+000
      vertex  1.060660e+000 -6.060660e+000  7.000000e+000
      vertex  1.060660e+000 -6.060660e+000  0.000000e+000
    endloop
  endfacet
  facet normal -9.238796e-001  3.826834e-001  0.000000e+000
    outer loop
      vertex  1.060660e+000 -6.060660e+000  0.000000e+000
      vertex  1.060660e+000 -6.060660e+000  7.000000e+000
      vertex  1.500000e+000 -5.000000e+000  7.000000e+000
    endloop
  endfacet
  facet normal -9.238796e-001  3.826834e-001  0.000000e+000
    outer loop
      vertex  1.060660e+000 -6.060660e+000  0.000000e+000
      vertex  1.500000e+000 -5.000000e+000  7.000000e+000
      vertex  1.500000e+000 -5.000000e+000  0.000000e+000
    endloop
  endfacet
  facet normal -3.826833e-001  9.238796e-001  0.000000e+000
    outer loop
      vertex  1.060660e+000 -6.060660e+000  7.000000e+000
      vertex -2.755364e-016 -6.500000e+000  0.000000e+000
      vertex -2.755364e-016 -6.500000e+000  7.000000e+000
    endloop
  endfacet
  facet normal  3.826833e-001  9.238796e-001  0.000000e+000
    outer loop
      vertex -2.755364e-016 -6.500000e+000  7.000000e+000
      vertex -2.755364e-016 -6.500000e+000  0.000000e+000
      vertex -1.060660e+000 -6.060660e+000  0.000000e+000
    endloop
  endfacet
  facet normal  3.826833e-001  9.238796e-001  -0.000000e+000
    outer loop
      vertex -2.755364e-016 -6.500000e+000  7.000000e+000
      vertex -1.060660e+000 -6.060660e+000  0.000000e+000
      vertex -1.060660e+000 -6.060660e+000  7.000000e+000
    endloop
  endfacet
  facet normal  9.238796e-001  3.826834e-001  0.000000e+000
    outer loop
      vertex -1.060660e+000 -6.060660e+000  7.000000e+000
      vertex -1.060660e+000 -6.060660e+000  0.000000e+000
      vertex -1.500000e+000 -5.000000e+000  0.000000e+000
    endloop
  endfacet
  facet normal  9.238796e-001  3.826834e-001  -0.000000e+000
    outer loop
      vertex -1.060660e+000 -6.060660e+000  7.000000e+000
      vertex -1.500000e+000 -5.000000e+000  0.000000e+000
      vertex -1.500000e+000 -5.000000e+000  7.000000e+000
    endloop
  endfacet
endsolid CATIA STL
