solid CATIA STL
  facet normal  0.000000e+000  0.000000e+000  1.000000e+000
    outer loop
      vertex -1.081559e+000 -1.067130e+001  4.000000e+000
      vertex -1.081560e+000  1.067130e+001  4.000000e+000
      vertex -2.831559e+000 -1.194275e+001  4.000000e+000
    endloop
  endfacet
  facet normal  -0.000000e+000  -0.000000e+000  1.000000e+000
    outer loop
      vertex -6.000000e+000 -1.750000e+001  4.000000e+000
      vertex -5.330127e+000 -2.000000e+001  4.000000e+000
      vertex -3.500000e+000 -2.183013e+001  4.000000e+000
    endloop
  endfacet
  facet normal  0.000000e+000  -0.000000e+000  1.000000e+000
    outer loop
      vertex -6.000000e+000 -1.750000e+001  4.000000e+000
      vertex -3.500000e+000 -2.183013e+001  4.000000e+000
      vertex -1.081560e+000 -1.732870e+001  4.000000e+000
    endloop
  endfacet
  facet normal  0.000000e+000  0.000000e+000  1.000000e+000
    outer loop
      vertex -6.000000e+000 -1.750000e+001  4.000000e+000
      vertex -1.081560e+000 -1.732870e+001  4.000000e+000
      vertex -2.831559e+000 -1.605725e+001  4.000000e+000
    endloop
  endfacet
  facet normal  0.000000e+000  0.000000e+000  9.999999e-001
    outer loop
      vertex -6.000000e+000 -1.750000e+001  4.000000e+000
      vertex -2.831559e+000 -1.605725e+001  4.000000e+000
      vertex -3.500000e+000 -1.400000e+001  4.000000e+000
    endloop
  endfacet
  facet normal  0.000000e+000  -0.000000e+000  1.000000e+000
    outer loop
      vertex -6.000000e+000 -1.750000e+001  4.000000e+000
      vertex -3.500000e+000 -1.400000e+001  4.000000e+000
      vertex -2.831559e+000 -1.194275e+001  4.000000e+000
    endloop
  endfacet
  facet normal  0.000000e+000  -0.000000e+000  1.000000e+000
    outer loop
      vertex -6.000000e+000 -1.750000e+001  4.000000e+000
      vertex -2.831559e+000 -1.194275e+001  4.000000e+000
      vertex -1.081560e+000  1.067130e+001  4.000000e+000
    endloop
  endfacet
  facet normal  0.000000e+000  0.000000e+000  1.000000e+000
    outer loop
      vertex -6.000000e+000 -1.750000e+001  4.000000e+000
      vertex -1.081560e+000  1.067130e+001  4.000000e+000
      vertex -2.831559e+000  1.194275e+001  4.000000e+000
    endloop
  endfacet
  facet normal  0.000000e+000  0.000000e+000  9.999999e-001
    outer loop
      vertex -6.000000e+000 -1.750000e+001  4.000000e+000
      vertex -2.831559e+000  1.194275e+001  4.000000e+000
      vertex -3.500000e+000  1.400000e+001  4.000000e+000
    endloop
  endfacet
  facet normal  0.000000e+000  0.000000e+000  1.000000e+000
    outer loop
      vertex -6.000000e+000  1.750000e+001  4.000000e+000
      vertex -6.000000e+000 -1.750000e+001  4.000000e+000
      vertex -3.500000e+000  1.400000e+001  4.000000e+000
    endloop
  endfacet
  facet normal  0.000000e+000  -0.000000e+000  9.999999e-001
    outer loop
      vertex -6.000000e+000  1.750000e+001  4.000000e+000
      vertex -3.500000e+000  1.400000e+001  4.000000e+000
      vertex -2.831559e+000  1.605725e+001  4.000000e+000
    endloop
  endfacet
  facet normal  0.000000e+000  -0.000000e+000  1.000000e+000
    outer loop
      vertex -6.000000e+000  1.750000e+001  4.000000e+000
      vertex -2.831559e+000  1.605725e+001  4.000000e+000
      vertex -1.081559e+000  1.732870e+001  4.000000e+000
    endloop
  endfacet
  facet normal  0.000000e+000  0.000000e+000  1.000000e+000
    outer loop
      vertex -6.000000e+000  1.750000e+001  4.000000e+000
      vertex -1.081559e+000  1.732870e+001  4.000000e+000
      vertex -3.500000e+000  2.183013e+001  4.000000e+000
    endloop
  endfacet
  facet normal  0.000000e+000  0.000000e+000  1.000000e+000
    outer loop
      vertex -6.000000e+000  1.750000e+001  4.000000e+000
      vertex -3.500000e+000  2.183013e+001  4.000000e+000
      vertex -5.330127e+000  2.000000e+001  4.000000e+000
    endloop
  endfacet
  facet normal  0.000000e+000  0.000000e+000  9.999999e-001
    outer loop
      vertex  6.000000e+000 -1.750000e+001  4.000000e+000
      vertex  3.500000e+000  1.400000e+001  4.000000e+000
      vertex  2.831559e+000  1.194275e+001  4.000000e+000
    endloop
  endfacet
  facet normal  0.000000e+000  0.000000e+000  1.000000e+000
    outer loop
      vertex  6.000000e+000 -1.750000e+001  4.000000e+000
      vertex  2.831559e+000  1.194275e+001  4.000000e+000
      vertex  1.081560e+000  1.067130e+001  4.000000e+000
    endloop
  endfacet
  facet normal  0.000000e+000  0.000000e+000  1.000000e+000
    outer loop
      vertex  6.000000e+000 -1.750000e+001  4.000000e+000
      vertex  1.081560e+000  1.067130e+001  4.000000e+000
      vertex  2.831559e+000 -1.194275e+001  4.000000e+000
    endloop
  endfacet
  facet normal  0.000000e+000  0.000000e+000  1.000000e+000
    outer loop
      vertex  6.000000e+000 -1.750000e+001  4.000000e+000
      vertex  2.831559e+000 -1.194275e+001  4.000000e+000
      vertex  3.500000e+000 -1.400000e+001  4.000000e+000
    endloop
  endfacet
  facet normal  0.000000e+000  0.000000e+000  9.999999e-001
    outer loop
      vertex  6.000000e+000 -1.750000e+001  4.000000e+000
      vertex  3.500000e+000 -1.400000e+001  4.000000e+000
      vertex  2.831559e+000 -1.605725e+001  4.000000e+000
    endloop
  endfacet
  facet normal  0.000000e+000  0.000000e+000  1.000000e+000
    outer loop
      vertex  6.000000e+000 -1.750000e+001  4.000000e+000
      vertex  2.831559e+000 -1.605725e+001  4.000000e+000
      vertex  1.081560e+000 -1.732870e+001  4.000000e+000
    endloop
  endfacet
  facet normal  -0.000000e+000  0.000000e+000  1.000000e+000
    outer loop
      vertex  6.000000e+000  1.750000e+001  4.000000e+000
      vertex  1.081560e+000  1.732870e+001  4.000000e+000
      vertex  2.831559e+000  1.605725e+001  4.000000e+000
    endloop
  endfacet
  facet normal  -0.000000e+000  0.000000e+000  9.999999e-001
    outer loop
      vertex  6.000000e+000  1.750000e+001  4.000000e+000
      vertex  2.831559e+000  1.605725e+001  4.000000e+000
      vertex  3.500000e+000  1.400000e+001  4.000000e+000
    endloop
  endfacet
  facet normal  -0.000000e+000  0.000000e+000  1.000000e+000
    outer loop
      vertex  6.000000e+000  1.750000e+001  4.000000e+000
      vertex  3.500000e+000  1.400000e+001  4.000000e+000
      vertex  6.000000e+000 -1.750000e+001  4.000000e+000
    endloop
  endfacet
  facet normal  0.000000e+000  0.000000e+000  1.000000e+000
    outer loop
      vertex  5.330127e+000 -2.000000e+001  4.000000e+000
      vertex  6.000000e+000 -1.750000e+001  4.000000e+000
      vertex  3.500000e+000 -2.183013e+001  4.000000e+000
    endloop
  endfacet
  facet normal  0.000000e+000  -0.000000e+000  1.000000e+000
    outer loop
      vertex  3.500000e+000 -2.183013e+001  4.000000e+000
      vertex  6.000000e+000 -1.750000e+001  4.000000e+000
      vertex  1.081560e+000 -1.732870e+001  4.000000e+000
    endloop
  endfacet
  facet normal  0.000000e+000  0.000000e+000  1.000000e+000
    outer loop
      vertex  3.500000e+000 -2.183013e+001  4.000000e+000
      vertex  1.081560e+000 -1.732870e+001  4.000000e+000
      vertex  1.000000e+000 -2.250000e+001  4.000000e+000
    endloop
  endfacet
  facet normal  0.000000e+000  -0.000000e+000  1.000000e+000
    outer loop
      vertex  1.000000e+000 -2.250000e+001  4.000000e+000
      vertex  1.081560e+000 -1.732870e+001  4.000000e+000
      vertex -1.081560e+000 -1.732870e+001  4.000000e+000
    endloop
  endfacet
  facet normal  0.000000e+000  0.000000e+000  1.000000e+000
    outer loop
      vertex  1.000000e+000 -2.250000e+001  4.000000e+000
      vertex -1.081560e+000 -1.732870e+001  4.000000e+000
      vertex -1.000000e+000 -2.250000e+001  4.000000e+000
    endloop
  endfacet
  facet normal  0.000000e+000  0.000000e+000  1.000000e+000
    outer loop
      vertex -1.000000e+000 -2.250000e+001  4.000000e+000
      vertex -1.081560e+000 -1.732870e+001  4.000000e+000
      vertex -3.500000e+000 -2.183013e+001  4.000000e+000
    endloop
  endfacet
  facet normal  0.000000e+000  -0.000000e+000  1.000000e+000
    outer loop
      vertex -1.081560e+000  1.067130e+001  4.000000e+000
      vertex -1.081559e+000 -1.067130e+001  4.000000e+000
      vertex  1.081560e+000  1.067130e+001  4.000000e+000
    endloop
  endfacet
  facet normal  0.000000e+000  0.000000e+000  1.000000e+000
    outer loop
      vertex  1.081560e+000  1.067130e+001  4.000000e+000
      vertex -1.081559e+000 -1.067130e+001  4.000000e+000
      vertex  1.081560e+000 -1.067130e+001  4.000000e+000
    endloop
  endfacet
  facet normal  -0.000000e+000  0.000000e+000  1.000000e+000
    outer loop
      vertex  1.081560e+000  1.067130e+001  4.000000e+000
      vertex  1.081560e+000 -1.067130e+001  4.000000e+000
      vertex  2.831559e+000 -1.194275e+001  4.000000e+000
    endloop
  endfacet
  facet normal  0.000000e+000  0.000000e+000  1.000000e+000
    outer loop
      vertex  6.000000e+000  1.750000e+001  4.000000e+000
      vertex  5.330127e+000  2.000000e+001  4.000000e+000
      vertex  1.081560e+000  1.732870e+001  4.000000e+000
    endloop
  endfacet
  facet normal  0.000000e+000  0.000000e+000  1.000000e+000
    outer loop
      vertex  1.081560e+000  1.732870e+001  4.000000e+000
      vertex  5.330127e+000  2.000000e+001  4.000000e+000
      vertex  3.500000e+000  2.183013e+001  4.000000e+000
    endloop
  endfacet
  facet normal  0.000000e+000  0.000000e+000  1.000000e+000
    outer loop
      vertex  1.081560e+000  1.732870e+001  4.000000e+000
      vertex  3.500000e+000  2.183013e+001  4.000000e+000
      vertex -1.081559e+000  1.732870e+001  4.000000e+000
    endloop
  endfacet
  facet normal  0.000000e+000  0.000000e+000  1.000000e+000
    outer loop
      vertex -1.081559e+000  1.732870e+001  4.000000e+000
      vertex  3.500000e+000  2.183013e+001  4.000000e+000
      vertex  1.000000e+000  2.250000e+001  4.000000e+000
    endloop
  endfacet
  facet normal  0.000000e+000  0.000000e+000  1.000000e+000
    outer loop
      vertex -1.081559e+000  1.732870e+001  4.000000e+000
      vertex  1.000000e+000  2.250000e+001  4.000000e+000
      vertex -3.500000e+000  2.183013e+001  4.000000e+000
    endloop
  endfacet
  facet normal  0.000000e+000  0.000000e+000  1.000000e+000
    outer loop
      vertex -3.500000e+000  2.183013e+001  4.000000e+000
      vertex  1.000000e+000  2.250000e+001  4.000000e+000
      vertex -1.000000e+000  2.250000e+001  4.000000e+000
    endloop
  endfacet
  facet normal  3.826837e-001 -9.238795e-001  0.000000e+000
    outer loop
      vertex  1.224606e-016  1.600000e+001  0.000000e+000
      vertex -1.414214e+000  1.541421e+001  3.133975e+000
      vertex -1.414214e+000  1.541421e+001  0.000000e+000
    endloop
  endfacet
  facet normal  9.238794e-001 -3.826835e-001  0.000000e+000
    outer loop
      vertex -1.414214e+000  1.541421e+001  0.000000e+000
      vertex -1.414214e+000  1.541421e+001  3.133975e+000
      vertex -2.000000e+000  1.400000e+001  3.133975e+000
    endloop
  endfacet
  facet normal  9.238794e-001 -3.826835e-001  0.000000e+000
    outer loop
      vertex -1.414214e+000  1.541421e+001  0.000000e+000
      vertex -2.000000e+000  1.400000e+001  3.133975e+000
      vertex -2.000000e+000  1.400000e+001  0.000000e+000
    endloop
  endfacet
  facet normal  3.826837e-001 -9.238795e-001  0.000000e+000
    outer loop
      vertex -1.414214e+000  1.541421e+001  3.133975e+000
      vertex  1.224606e-016  1.600000e+001  0.000000e+000
      vertex  1.224606e-016  1.600000e+001  3.133975e+000
    endloop
  endfacet
  facet normal -3.826837e-001 -9.238795e-001  -0.000000e+000
    outer loop
      vertex  1.224606e-016  1.600000e+001  3.133975e+000
      vertex  1.224606e-016  1.600000e+001  0.000000e+000
      vertex  1.414214e+000  1.541421e+001  0.000000e+000
    endloop
  endfacet
  facet normal -3.826837e-001 -9.238795e-001  0.000000e+000
    outer loop
      vertex  1.224606e-016  1.600000e+001  3.133975e+000
      vertex  1.414214e+000  1.541421e+001  0.000000e+000
      vertex  1.414214e+000  1.541421e+001  3.133975e+000
    endloop
  endfacet
  facet normal -9.238794e-001 -3.826835e-001  -0.000000e+000
    outer loop
      vertex  1.414214e+000  1.541421e+001  3.133975e+000
      vertex  1.414214e+000  1.541421e+001  0.000000e+000
      vertex  2.000000e+000  1.400000e+001  0.000000e+000
    endloop
  endfacet
  facet normal -9.238794e-001 -3.826835e-001  0.000000e+000
    outer loop
      vertex  1.414214e+000  1.541421e+001  3.133975e+000
      vertex  2.000000e+000  1.400000e+001  0.000000e+000
      vertex  2.000000e+000  1.400000e+001  3.133975e+000
    endloop
  endfacet
  facet normal -3.826837e-001  9.238795e-001  0.000000e+000
    outer loop
      vertex -3.673819e-016  1.200000e+001  0.000000e+000
      vertex  1.414214e+000  1.258579e+001  3.133975e+000
      vertex  1.414214e+000  1.258579e+001  0.000000e+000
    endloop
  endfacet
  facet normal -9.238794e-001  3.826835e-001  0.000000e+000
    outer loop
      vertex  1.414214e+000  1.258579e+001  0.000000e+000
      vertex  1.414214e+000  1.258579e+001  3.133975e+000
      vertex  2.000000e+000  1.400000e+001  3.133975e+000
    endloop
  endfacet
  facet normal -9.238794e-001  3.826835e-001  0.000000e+000
    outer loop
      vertex  1.414214e+000  1.258579e+001  0.000000e+000
      vertex  2.000000e+000  1.400000e+001  3.133975e+000
      vertex  2.000000e+000  1.400000e+001  0.000000e+000
    endloop
  endfacet
  facet normal -3.826837e-001  9.238795e-001  0.000000e+000
    outer loop
      vertex  1.414214e+000  1.258579e+001  3.133975e+000
      vertex -3.673819e-016  1.200000e+001  0.000000e+000
      vertex -3.673819e-016  1.200000e+001  3.133975e+000
    endloop
  endfacet
  facet normal  3.826837e-001  9.238795e-001  0.000000e+000
    outer loop
      vertex -3.673819e-016  1.200000e+001  3.133975e+000
      vertex -3.673819e-016  1.200000e+001  0.000000e+000
      vertex -1.414214e+000  1.258579e+001  0.000000e+000
    endloop
  endfacet
  facet normal  3.826837e-001  9.238795e-001  -0.000000e+000
    outer loop
      vertex -3.673819e-016  1.200000e+001  3.133975e+000
      vertex -1.414214e+000  1.258579e+001  0.000000e+000
      vertex -1.414214e+000  1.258579e+001  3.133975e+000
    endloop
  endfacet
  facet normal  9.238794e-001  3.826835e-001  0.000000e+000
    outer loop
      vertex -1.414214e+000  1.258579e+001  3.133975e+000
      vertex -1.414214e+000  1.258579e+001  0.000000e+000
      vertex -2.000000e+000  1.400000e+001  0.000000e+000
    endloop
  endfacet
  facet normal  9.238794e-001  3.826835e-001  -0.000000e+000
    outer loop
      vertex -1.414214e+000  1.258579e+001  3.133975e+000
      vertex -2.000000e+000  1.400000e+001  0.000000e+000
      vertex -2.000000e+000  1.400000e+001  3.133975e+000
    endloop
  endfacet
  facet normal -4.494046e-001  1.861495e-001  8.737184e-001
    outer loop
      vertex  1.414214e+000  1.258579e+001  3.133975e+000
      vertex  2.831559e+000  1.194275e+001  4.000000e+000
      vertex  2.000000e+000  1.400000e+001  3.133975e+000
    endloop
  endfacet
  facet normal -4.935295e-001  1.603575e-001  8.548182e-001
    outer loop
      vertex  2.831559e+000  1.194275e+001  4.000000e+000
      vertex  3.500000e+000  1.400000e+001  4.000000e+000
      vertex  2.000000e+000  1.400000e+001  3.133975e+000
    endloop
  endfacet
  facet normal  4.935295e-001  1.603575e-001  8.548182e-001
    outer loop
      vertex -3.500000e+000  1.400000e+001  4.000000e+000
      vertex -2.831559e+000  1.194275e+001  4.000000e+000
      vertex -2.000000e+000  1.400000e+001  3.133975e+000
    endloop
  endfacet
  facet normal  4.494046e-001  1.861495e-001  8.737184e-001
    outer loop
      vertex -2.831559e+000  1.194275e+001  4.000000e+000
      vertex -1.414214e+000  1.258579e+001  3.133975e+000
      vertex -2.000000e+000  1.400000e+001  3.133975e+000
    endloop
  endfacet
  facet normal  3.168219e-001  4.360677e-001  8.422998e-001
    outer loop
      vertex -2.831559e+000  1.194275e+001  4.000000e+000
      vertex -1.081560e+000  1.067130e+001  4.000000e+000
      vertex -1.414214e+000  1.258579e+001  3.133975e+000
    endloop
  endfacet
  facet normal  0.000000e+000  5.460391e-001  8.377597e-001
    outer loop
      vertex -1.081560e+000  1.067130e+001  4.000000e+000
      vertex  1.081560e+000  1.067130e+001  4.000000e+000
      vertex -3.673819e-016  1.200000e+001  3.133975e+000
    endloop
  endfacet
  facet normal  1.785731e-001  4.311133e-001  8.844507e-001
    outer loop
      vertex -1.414214e+000  1.258579e+001  3.133975e+000
      vertex -1.081560e+000  1.067130e+001  4.000000e+000
      vertex -3.673819e-016  1.200000e+001  3.133975e+000
    endloop
  endfacet
  facet normal -3.168219e-001  4.360677e-001  8.422998e-001
    outer loop
      vertex  1.081560e+000  1.067130e+001  4.000000e+000
      vertex  2.831559e+000  1.194275e+001  4.000000e+000
      vertex  1.414214e+000  1.258579e+001  3.133975e+000
    endloop
  endfacet
  facet normal -1.785731e-001  4.311133e-001  8.844507e-001
    outer loop
      vertex -3.673819e-016  1.200000e+001  3.133975e+000
      vertex  1.081560e+000  1.067130e+001  4.000000e+000
      vertex  1.414214e+000  1.258579e+001  3.133975e+000
    endloop
  endfacet
  facet normal  4.494045e-001 -1.861495e-001  8.737185e-001
    outer loop
      vertex -1.414214e+000  1.541421e+001  3.133975e+000
      vertex -2.831559e+000  1.605725e+001  4.000000e+000
      vertex -2.000000e+000  1.400000e+001  3.133975e+000
    endloop
  endfacet
  facet normal  4.935295e-001 -1.603574e-001  8.548182e-001
    outer loop
      vertex -2.831559e+000  1.605725e+001  4.000000e+000
      vertex -3.500000e+000  1.400000e+001  4.000000e+000
      vertex -2.000000e+000  1.400000e+001  3.133975e+000
    endloop
  endfacet
  facet normal -4.935295e-001 -1.603574e-001  8.548182e-001
    outer loop
      vertex  3.500000e+000  1.400000e+001  4.000000e+000
      vertex  2.831559e+000  1.605725e+001  4.000000e+000
      vertex  2.000000e+000  1.400000e+001  3.133975e+000
    endloop
  endfacet
  facet normal -4.494045e-001 -1.861495e-001  8.737185e-001
    outer loop
      vertex  2.831559e+000  1.605725e+001  4.000000e+000
      vertex  1.414214e+000  1.541421e+001  3.133975e+000
      vertex  2.000000e+000  1.400000e+001  3.133975e+000
    endloop
  endfacet
  facet normal -3.168215e-001 -4.360679e-001  8.422998e-001
    outer loop
      vertex  2.831559e+000  1.605725e+001  4.000000e+000
      vertex  1.081560e+000  1.732870e+001  4.000000e+000
      vertex  1.414214e+000  1.541421e+001  3.133975e+000
    endloop
  endfacet
  facet normal  0.000000e+000 -5.460394e-001  8.377595e-001
    outer loop
      vertex  1.081560e+000  1.732870e+001  4.000000e+000
      vertex -1.081559e+000  1.732870e+001  4.000000e+000
      vertex  1.224606e-016  1.600000e+001  3.133975e+000
    endloop
  endfacet
  facet normal -1.785731e-001 -4.311134e-001  8.844506e-001
    outer loop
      vertex  1.414214e+000  1.541421e+001  3.133975e+000
      vertex  1.081560e+000  1.732870e+001  4.000000e+000
      vertex  1.224606e-016  1.600000e+001  3.133975e+000
    endloop
  endfacet
  facet normal  3.168215e-001 -4.360679e-001  8.422997e-001
    outer loop
      vertex -1.081559e+000  1.732870e+001  4.000000e+000
      vertex -2.831559e+000  1.605725e+001  4.000000e+000
      vertex -1.414214e+000  1.541421e+001  3.133975e+000
    endloop
  endfacet
  facet normal  1.785732e-001 -4.311135e-001  8.844506e-001
    outer loop
      vertex  1.224606e-016  1.600000e+001  3.133975e+000
      vertex -1.081559e+000  1.732870e+001  4.000000e+000
      vertex -1.414214e+000  1.541421e+001  3.133975e+000
    endloop
  endfacet
  facet normal  3.826837e-001 -9.238795e-001  0.000000e+000
    outer loop
      vertex  1.224606e-016 -1.200000e+001  0.000000e+000
      vertex -1.414214e+000 -1.258579e+001  3.133975e+000
      vertex -1.414214e+000 -1.258579e+001  0.000000e+000
    endloop
  endfacet
  facet normal  9.238794e-001 -3.826835e-001  0.000000e+000
    outer loop
      vertex -1.414214e+000 -1.258579e+001  0.000000e+000
      vertex -1.414214e+000 -1.258579e+001  3.133975e+000
      vertex -2.000000e+000 -1.400000e+001  3.133975e+000
    endloop
  endfacet
  facet normal  9.238794e-001 -3.826835e-001  0.000000e+000
    outer loop
      vertex -1.414214e+000 -1.258579e+001  0.000000e+000
      vertex -2.000000e+000 -1.400000e+001  3.133975e+000
      vertex -2.000000e+000 -1.400000e+001  0.000000e+000
    endloop
  endfacet
  facet normal  3.826837e-001 -9.238795e-001  0.000000e+000
    outer loop
      vertex -1.414214e+000 -1.258579e+001  3.133975e+000
      vertex  1.224606e-016 -1.200000e+001  0.000000e+000
      vertex  1.224606e-016 -1.200000e+001  3.133975e+000
    endloop
  endfacet
  facet normal -3.826837e-001 -9.238795e-001  -0.000000e+000
    outer loop
      vertex  1.224606e-016 -1.200000e+001  3.133975e+000
      vertex  1.224606e-016 -1.200000e+001  0.000000e+000
      vertex  1.414214e+000 -1.258579e+001  0.000000e+000
    endloop
  endfacet
  facet normal -3.826837e-001 -9.238795e-001  0.000000e+000
    outer loop
      vertex  1.224606e-016 -1.200000e+001  3.133975e+000
      vertex  1.414214e+000 -1.258579e+001  0.000000e+000
      vertex  1.414214e+000 -1.258579e+001  3.133975e+000
    endloop
  endfacet
  facet normal -9.238794e-001 -3.826835e-001  -0.000000e+000
    outer loop
      vertex  1.414214e+000 -1.258579e+001  3.133975e+000
      vertex  1.414214e+000 -1.258579e+001  0.000000e+000
      vertex  2.000000e+000 -1.400000e+001  0.000000e+000
    endloop
  endfacet
  facet normal -9.238794e-001 -3.826835e-001  0.000000e+000
    outer loop
      vertex  1.414214e+000 -1.258579e+001  3.133975e+000
      vertex  2.000000e+000 -1.400000e+001  0.000000e+000
      vertex  2.000000e+000 -1.400000e+001  3.133975e+000
    endloop
  endfacet
  facet normal -3.826837e-001  9.238795e-001  0.000000e+000
    outer loop
      vertex -3.673819e-016 -1.600000e+001  0.000000e+000
      vertex  1.414214e+000 -1.541421e+001  3.133975e+000
      vertex  1.414214e+000 -1.541421e+001  0.000000e+000
    endloop
  endfacet
  facet normal -9.238794e-001  3.826835e-001  0.000000e+000
    outer loop
      vertex  1.414214e+000 -1.541421e+001  0.000000e+000
      vertex  1.414214e+000 -1.541421e+001  3.133975e+000
      vertex  2.000000e+000 -1.400000e+001  3.133975e+000
    endloop
  endfacet
  facet normal -9.238794e-001  3.826835e-001  0.000000e+000
    outer loop
      vertex  1.414214e+000 -1.541421e+001  0.000000e+000
      vertex  2.000000e+000 -1.400000e+001  3.133975e+000
      vertex  2.000000e+000 -1.400000e+001  0.000000e+000
    endloop
  endfacet
  facet normal -3.826837e-001  9.238795e-001  0.000000e+000
    outer loop
      vertex  1.414214e+000 -1.541421e+001  3.133975e+000
      vertex -3.673819e-016 -1.600000e+001  0.000000e+000
      vertex -3.673819e-016 -1.600000e+001  3.133975e+000
    endloop
  endfacet
  facet normal  3.826837e-001  9.238795e-001  0.000000e+000
    outer loop
      vertex -3.673819e-016 -1.600000e+001  3.133975e+000
      vertex -3.673819e-016 -1.600000e+001  0.000000e+000
      vertex -1.414214e+000 -1.541421e+001  0.000000e+000
    endloop
  endfacet
  facet normal  3.826837e-001  9.238795e-001  -0.000000e+000
    outer loop
      vertex -3.673819e-016 -1.600000e+001  3.133975e+000
      vertex -1.414214e+000 -1.541421e+001  0.000000e+000
      vertex -1.414214e+000 -1.541421e+001  3.133975e+000
    endloop
  endfacet
  facet normal  9.238794e-001  3.826835e-001  0.000000e+000
    outer loop
      vertex -1.414214e+000 -1.541421e+001  3.133975e+000
      vertex -1.414214e+000 -1.541421e+001  0.000000e+000
      vertex -2.000000e+000 -1.400000e+001  0.000000e+000
    endloop
  endfacet
  facet normal  9.238794e-001  3.826835e-001  -0.000000e+000
    outer loop
      vertex -1.414214e+000 -1.541421e+001  3.133975e+000
      vertex -2.000000e+000 -1.400000e+001  0.000000e+000
      vertex -2.000000e+000 -1.400000e+001  3.133975e+000
    endloop
  endfacet
  facet normal -4.494045e-001  1.861495e-001  8.737185e-001
    outer loop
      vertex  1.414214e+000 -1.541421e+001  3.133975e+000
      vertex  2.831559e+000 -1.605725e+001  4.000000e+000
      vertex  2.000000e+000 -1.400000e+001  3.133975e+000
    endloop
  endfacet
  facet normal -4.935295e-001  1.603574e-001  8.548182e-001
    outer loop
      vertex  2.831559e+000 -1.605725e+001  4.000000e+000
      vertex  3.500000e+000 -1.400000e+001  4.000000e+000
      vertex  2.000000e+000 -1.400000e+001  3.133975e+000
    endloop
  endfacet
  facet normal  4.935295e-001  1.603574e-001  8.548182e-001
    outer loop
      vertex -3.500000e+000 -1.400000e+001  4.000000e+000
      vertex -2.831559e+000 -1.605725e+001  4.000000e+000
      vertex -2.000000e+000 -1.400000e+001  3.133975e+000
    endloop
  endfacet
  facet normal  4.494045e-001  1.861495e-001  8.737185e-001
    outer loop
      vertex -2.831559e+000 -1.605725e+001  4.000000e+000
      vertex -1.414214e+000 -1.541421e+001  3.133975e+000
      vertex -2.000000e+000 -1.400000e+001  3.133975e+000
    endloop
  endfacet
  facet normal  3.168215e-001  4.360679e-001  8.422998e-001
    outer loop
      vertex -2.831559e+000 -1.605725e+001  4.000000e+000
      vertex -1.081560e+000 -1.732870e+001  4.000000e+000
      vertex -1.414214e+000 -1.541421e+001  3.133975e+000
    endloop
  endfacet
  facet normal  0.000000e+000  5.460394e-001  8.377594e-001
    outer loop
      vertex -1.081560e+000 -1.732870e+001  4.000000e+000
      vertex  1.081560e+000 -1.732870e+001  4.000000e+000
      vertex -3.673819e-016 -1.600000e+001  3.133975e+000
    endloop
  endfacet
  facet normal  1.785731e-001  4.311134e-001  8.844506e-001
    outer loop
      vertex -1.414214e+000 -1.541421e+001  3.133975e+000
      vertex -1.081560e+000 -1.732870e+001  4.000000e+000
      vertex -3.673819e-016 -1.600000e+001  3.133975e+000
    endloop
  endfacet
  facet normal -3.168215e-001  4.360679e-001  8.422998e-001
    outer loop
      vertex  1.081560e+000 -1.732870e+001  4.000000e+000
      vertex  2.831559e+000 -1.605725e+001  4.000000e+000
      vertex  1.414214e+000 -1.541421e+001  3.133975e+000
    endloop
  endfacet
  facet normal -1.785731e-001  4.311134e-001  8.844506e-001
    outer loop
      vertex -3.673819e-016 -1.600000e+001  3.133975e+000
      vertex  1.081560e+000 -1.732870e+001  4.000000e+000
      vertex  1.414214e+000 -1.541421e+001  3.133975e+000
    endloop
  endfacet
  facet normal  4.494046e-001 -1.861495e-001  8.737184e-001
    outer loop
      vertex -1.414214e+000 -1.258579e+001  3.133975e+000
      vertex -2.831559e+000 -1.194275e+001  4.000000e+000
      vertex -2.000000e+000 -1.400000e+001  3.133975e+000
    endloop
  endfacet
  facet normal  4.935295e-001 -1.603575e-001  8.548182e-001
    outer loop
      vertex -2.831559e+000 -1.194275e+001  4.000000e+000
      vertex -3.500000e+000 -1.400000e+001  4.000000e+000
      vertex -2.000000e+000 -1.400000e+001  3.133975e+000
    endloop
  endfacet
  facet normal -4.935295e-001 -1.603575e-001  8.548182e-001
    outer loop
      vertex  3.500000e+000 -1.400000e+001  4.000000e+000
      vertex  2.831559e+000 -1.194275e+001  4.000000e+000
      vertex  2.000000e+000 -1.400000e+001  3.133975e+000
    endloop
  endfacet
  facet normal -4.494046e-001 -1.861495e-001  8.737184e-001
    outer loop
      vertex  2.831559e+000 -1.194275e+001  4.000000e+000
      vertex  1.414214e+000 -1.258579e+001  3.133975e+000
      vertex  2.000000e+000 -1.400000e+001  3.133975e+000
    endloop
  endfacet
  facet normal -3.168219e-001 -4.360677e-001  8.422998e-001
    outer loop
      vertex  2.831559e+000 -1.194275e+001  4.000000e+000
      vertex  1.081560e+000 -1.067130e+001  4.000000e+000
      vertex  1.414214e+000 -1.258579e+001  3.133975e+000
    endloop
  endfacet
  facet normal  0.000000e+000 -5.460392e-001  8.377597e-001
    outer loop
      vertex  1.081560e+000 -1.067130e+001  4.000000e+000
      vertex -1.081559e+000 -1.067130e+001  4.000000e+000
      vertex  1.224606e-016 -1.200000e+001  3.133975e+000
    endloop
  endfacet
  facet normal -1.785731e-001 -4.311133e-001  8.844507e-001
    outer loop
      vertex  1.414214e+000 -1.258579e+001  3.133975e+000
      vertex  1.081560e+000 -1.067130e+001  4.000000e+000
      vertex  1.224606e-016 -1.200000e+001  3.133975e+000
    endloop
  endfacet
  facet normal  3.168219e-001 -4.360677e-001  8.422998e-001
    outer loop
      vertex -1.081559e+000 -1.067130e+001  4.000000e+000
      vertex -2.831559e+000 -1.194275e+001  4.000000e+000
      vertex -1.414214e+000 -1.258579e+001  3.133975e+000
    endloop
  endfacet
  facet normal  1.785731e-001 -4.311133e-001  8.844507e-001
    outer loop
      vertex  1.224606e-016 -1.200000e+001  3.133975e+000
      vertex -1.081559e+000 -1.067130e+001  4.000000e+000
      vertex -1.414214e+000 -1.258579e+001  3.133975e+000
    endloop
  endfacet
  facet normal  -0.000000e+000  0.000000e+000 -1.000000e+000
    outer loop
      vertex -3.673819e-016  1.200000e+001  0.000000e+000
      vertex  1.224606e-016 -1.200000e+001  0.000000e+000
      vertex -1.414214e+000 -1.258579e+001  0.000000e+000
    endloop
  endfacet
  facet normal  0.000000e+000  0.000000e+000 -1.000000e+000
    outer loop
      vertex  1.224606e-016 -1.200000e+001  0.000000e+000
      vertex -3.673819e-016  1.200000e+001  0.000000e+000
      vertex  1.414214e+000 -1.258579e+001  0.000000e+000
    endloop
  endfacet
  facet normal  0.000000e+000  0.000000e+000 -1.000000e+000
    outer loop
      vertex  6.000000e+000  1.750000e+001  0.000000e+000
      vertex  6.000000e+000 -1.750000e+001  0.000000e+000
      vertex  2.000000e+000  1.400000e+001  0.000000e+000
    endloop
  endfacet
  facet normal  0.000000e+000  0.000000e+000 -1.000000e+000
    outer loop
      vertex  6.000000e+000  1.750000e+001  0.000000e+000
      vertex  2.000000e+000  1.400000e+001  0.000000e+000
      vertex  1.414214e+000  1.541421e+001  0.000000e+000
    endloop
  endfacet
  facet normal  0.000000e+000  0.000000e+000 -1.000000e+000
    outer loop
      vertex  6.000000e+000  1.750000e+001  0.000000e+000
      vertex  1.414214e+000  1.541421e+001  0.000000e+000
      vertex  1.224606e-016  1.600000e+001  0.000000e+000
    endloop
  endfacet
  facet normal  -0.000000e+000  0.000000e+000 -1.000000e+000
    outer loop
      vertex -3.673819e-016 -1.600000e+001  0.000000e+000
      vertex  6.000000e+000 -1.750000e+001  0.000000e+000
      vertex  5.330127e+000 -2.000000e+001  0.000000e+000
    endloop
  endfacet
  facet normal  -0.000000e+000  0.000000e+000 -1.000000e+000
    outer loop
      vertex -3.673819e-016 -1.600000e+001  0.000000e+000
      vertex  5.330127e+000 -2.000000e+001  0.000000e+000
      vertex  3.500000e+000 -2.183013e+001  0.000000e+000
    endloop
  endfacet
  facet normal  -0.000000e+000  0.000000e+000 -1.000000e+000
    outer loop
      vertex -3.673819e-016 -1.600000e+001  0.000000e+000
      vertex  3.500000e+000 -2.183013e+001  0.000000e+000
      vertex  1.000000e+000 -2.250000e+001  0.000000e+000
    endloop
  endfacet
  facet normal  0.000000e+000  -0.000000e+000 -1.000000e+000
    outer loop
      vertex -6.000000e+000 -1.750000e+001  0.000000e+000
      vertex -2.000000e+000  1.400000e+001  0.000000e+000
      vertex -1.414214e+000  1.258579e+001  0.000000e+000
    endloop
  endfacet
  facet normal  0.000000e+000  -0.000000e+000 -1.000000e+000
    outer loop
      vertex -6.000000e+000 -1.750000e+001  0.000000e+000
      vertex -1.414214e+000  1.258579e+001  0.000000e+000
      vertex -3.673819e-016  1.200000e+001  0.000000e+000
    endloop
  endfacet
  facet normal  0.000000e+000  0.000000e+000 -1.000000e+000
    outer loop
      vertex -6.000000e+000 -1.750000e+001  0.000000e+000
      vertex -3.673819e-016  1.200000e+001  0.000000e+000
      vertex -1.414214e+000 -1.258579e+001  0.000000e+000
    endloop
  endfacet
  facet normal  0.000000e+000  0.000000e+000 -1.000000e+000
    outer loop
      vertex -6.000000e+000 -1.750000e+001  0.000000e+000
      vertex -1.414214e+000 -1.258579e+001  0.000000e+000
      vertex -2.000000e+000 -1.400000e+001  0.000000e+000
    endloop
  endfacet
  facet normal  0.000000e+000  -0.000000e+000 -1.000000e+000
    outer loop
      vertex -6.000000e+000 -1.750000e+001  0.000000e+000
      vertex -2.000000e+000 -1.400000e+001  0.000000e+000
      vertex -1.414214e+000 -1.541421e+001  0.000000e+000
    endloop
  endfacet
  facet normal  0.000000e+000  -0.000000e+000 -1.000000e+000
    outer loop
      vertex -6.000000e+000 -1.750000e+001  0.000000e+000
      vertex -1.414214e+000 -1.541421e+001  0.000000e+000
      vertex -3.673819e-016 -1.600000e+001  0.000000e+000
    endloop
  endfacet
  facet normal  0.000000e+000  -0.000000e+000 -1.000000e+000
    outer loop
      vertex -6.000000e+000  1.750000e+001  0.000000e+000
      vertex -5.330127e+000  2.000000e+001  0.000000e+000
      vertex -3.500000e+000  2.183013e+001  0.000000e+000
    endloop
  endfacet
  facet normal  0.000000e+000  -0.000000e+000 -1.000000e+000
    outer loop
      vertex -6.000000e+000  1.750000e+001  0.000000e+000
      vertex -3.500000e+000  2.183013e+001  0.000000e+000
      vertex  1.224606e-016  1.600000e+001  0.000000e+000
    endloop
  endfacet
  facet normal  -0.000000e+000  0.000000e+000 -1.000000e+000
    outer loop
      vertex -6.000000e+000  1.750000e+001  0.000000e+000
      vertex  1.224606e-016  1.600000e+001  0.000000e+000
      vertex -1.414214e+000  1.541421e+001  0.000000e+000
    endloop
  endfacet
  facet normal  -0.000000e+000  0.000000e+000 -1.000000e+000
    outer loop
      vertex -6.000000e+000  1.750000e+001  0.000000e+000
      vertex -1.414214e+000  1.541421e+001  0.000000e+000
      vertex -2.000000e+000  1.400000e+001  0.000000e+000
    endloop
  endfacet
  facet normal  -0.000000e+000  0.000000e+000 -1.000000e+000
    outer loop
      vertex -6.000000e+000  1.750000e+001  0.000000e+000
      vertex -2.000000e+000  1.400000e+001  0.000000e+000
      vertex -6.000000e+000 -1.750000e+001  0.000000e+000
    endloop
  endfacet
  facet normal  0.000000e+000  0.000000e+000 -1.000000e+000
    outer loop
      vertex  1.224606e-016  1.600000e+001  0.000000e+000
      vertex -3.500000e+000  2.183013e+001  0.000000e+000
      vertex -1.000000e+000  2.250000e+001  0.000000e+000
    endloop
  endfacet
  facet normal  0.000000e+000  0.000000e+000 -1.000000e+000
    outer loop
      vertex  1.224606e-016  1.600000e+001  0.000000e+000
      vertex -1.000000e+000  2.250000e+001  0.000000e+000
      vertex  1.000000e+000  2.250000e+001  0.000000e+000
    endloop
  endfacet
  facet normal  0.000000e+000  -0.000000e+000 -1.000000e+000
    outer loop
      vertex  1.224606e-016  1.600000e+001  0.000000e+000
      vertex  1.000000e+000  2.250000e+001  0.000000e+000
      vertex  3.500000e+000  2.183013e+001  0.000000e+000
    endloop
  endfacet
  facet normal  0.000000e+000  -0.000000e+000 -1.000000e+000
    outer loop
      vertex  1.224606e-016  1.600000e+001  0.000000e+000
      vertex  3.500000e+000  2.183013e+001  0.000000e+000
      vertex  5.330127e+000  2.000000e+001  0.000000e+000
    endloop
  endfacet
  facet normal  0.000000e+000  -0.000000e+000 -1.000000e+000
    outer loop
      vertex  1.224606e-016  1.600000e+001  0.000000e+000
      vertex  5.330127e+000  2.000000e+001  0.000000e+000
      vertex  6.000000e+000  1.750000e+001  0.000000e+000
    endloop
  endfacet
  facet normal  0.000000e+000  0.000000e+000 -1.000000e+000
    outer loop
      vertex  6.000000e+000 -1.750000e+001  0.000000e+000
      vertex -3.673819e-016 -1.600000e+001  0.000000e+000
      vertex  1.414214e+000 -1.541421e+001  0.000000e+000
    endloop
  endfacet
  facet normal  0.000000e+000  0.000000e+000 -1.000000e+000
    outer loop
      vertex  6.000000e+000 -1.750000e+001  0.000000e+000
      vertex  1.414214e+000 -1.541421e+001  0.000000e+000
      vertex  2.000000e+000 -1.400000e+001  0.000000e+000
    endloop
  endfacet
  facet normal  0.000000e+000  0.000000e+000 -1.000000e+000
    outer loop
      vertex  6.000000e+000 -1.750000e+001  0.000000e+000
      vertex  2.000000e+000 -1.400000e+001  0.000000e+000
      vertex  1.414214e+000 -1.258579e+001  0.000000e+000
    endloop
  endfacet
  facet normal  0.000000e+000  0.000000e+000 -1.000000e+000
    outer loop
      vertex  6.000000e+000 -1.750000e+001  0.000000e+000
      vertex  1.414214e+000 -1.258579e+001  0.000000e+000
      vertex -3.673819e-016  1.200000e+001  0.000000e+000
    endloop
  endfacet
  facet normal  0.000000e+000  0.000000e+000 -1.000000e+000
    outer loop
      vertex  6.000000e+000 -1.750000e+001  0.000000e+000
      vertex -3.673819e-016  1.200000e+001  0.000000e+000
      vertex  1.414214e+000  1.258579e+001  0.000000e+000
    endloop
  endfacet
  facet normal  0.000000e+000  0.000000e+000 -1.000000e+000
    outer loop
      vertex  6.000000e+000 -1.750000e+001  0.000000e+000
      vertex  1.414214e+000  1.258579e+001  0.000000e+000
      vertex  2.000000e+000  1.400000e+001  0.000000e+000
    endloop
  endfacet
  facet normal  0.000000e+000  0.000000e+000 -1.000000e+000
    outer loop
      vertex  1.000000e+000 -2.250000e+001  0.000000e+000
      vertex -1.000000e+000 -2.250000e+001  0.000000e+000
      vertex -3.673819e-016 -1.600000e+001  0.000000e+000
    endloop
  endfacet
  facet normal  0.000000e+000  0.000000e+000 -1.000000e+000
    outer loop
      vertex -3.673819e-016 -1.600000e+001  0.000000e+000
      vertex -1.000000e+000 -2.250000e+001  0.000000e+000
      vertex -6.000000e+000 -1.750000e+001  0.000000e+000
    endloop
  endfacet
  facet normal  0.000000e+000  0.000000e+000 -9.999999e-001
    outer loop
      vertex -1.000000e+000 -2.250000e+001  0.000000e+000
      vertex -3.500000e+000 -2.183013e+001  0.000000e+000
      vertex -6.000000e+000 -1.750000e+001  0.000000e+000
    endloop
  endfacet
  facet normal  0.000000e+000  0.000000e+000 -1.000000e+000
    outer loop
      vertex -6.000000e+000 -1.750000e+001  0.000000e+000
      vertex -3.500000e+000 -2.183013e+001  0.000000e+000
      vertex -5.330127e+000 -2.000000e+001  0.000000e+000
    endloop
  endfacet
  facet normal  1.000000e+000  -0.000000e+000  0.000000e+000
    outer loop
      vertex  6.000000e+000  1.750000e+001  4.000000e+000
      vertex  6.000000e+000 -1.750000e+001  4.000000e+000
      vertex  6.000000e+000  1.750000e+001  0.000000e+000
    endloop
  endfacet
  facet normal  1.000000e+000  0.000000e+000  0.000000e+000
    outer loop
      vertex  6.000000e+000  1.750000e+001  0.000000e+000
      vertex  6.000000e+000 -1.750000e+001  4.000000e+000
      vertex  6.000000e+000 -1.750000e+001  0.000000e+000
    endloop
  endfacet
  facet normal  9.659259e-001 -2.588190e-001  0.000000e+000
    outer loop
      vertex  6.000000e+000 -1.750000e+001  0.000000e+000
      vertex  6.000000e+000 -1.750000e+001  4.000000e+000
      vertex  5.330127e+000 -2.000000e+001  0.000000e+000
    endloop
  endfacet
  facet normal  9.659259e-001 -2.588190e-001  0.000000e+000
    outer loop
      vertex  5.330127e+000 -2.000000e+001  0.000000e+000
      vertex  6.000000e+000 -1.750000e+001  4.000000e+000
      vertex  5.330127e+000 -2.000000e+001  4.000000e+000
    endloop
  endfacet
  facet normal  7.071069e-001 -7.071067e-001  0.000000e+000
    outer loop
      vertex  5.330127e+000 -2.000000e+001  0.000000e+000
      vertex  5.330127e+000 -2.000000e+001  4.000000e+000
      vertex  3.500000e+000 -2.183013e+001  0.000000e+000
    endloop
  endfacet
  facet normal  7.071069e-001 -7.071067e-001  0.000000e+000
    outer loop
      vertex  3.500000e+000 -2.183013e+001  0.000000e+000
      vertex  5.330127e+000 -2.000000e+001  4.000000e+000
      vertex  3.500000e+000 -2.183013e+001  4.000000e+000
    endloop
  endfacet
  facet normal  2.588188e-001 -9.659259e-001  0.000000e+000
    outer loop
      vertex  3.500000e+000 -2.183013e+001  0.000000e+000
      vertex  3.500000e+000 -2.183013e+001  4.000000e+000
      vertex  1.000000e+000 -2.250000e+001  0.000000e+000
    endloop
  endfacet
  facet normal  2.588188e-001 -9.659259e-001  0.000000e+000
    outer loop
      vertex  1.000000e+000 -2.250000e+001  0.000000e+000
      vertex  3.500000e+000 -2.183013e+001  4.000000e+000
      vertex  1.000000e+000 -2.250000e+001  4.000000e+000
    endloop
  endfacet
  facet normal  0.000000e+000 -1.000000e+000  -0.000000e+000
    outer loop
      vertex  1.000000e+000 -2.250000e+001  0.000000e+000
      vertex  1.000000e+000 -2.250000e+001  4.000000e+000
      vertex -1.000000e+000 -2.250000e+001  0.000000e+000
    endloop
  endfacet
  facet normal  0.000000e+000 -1.000000e+000  0.000000e+000
    outer loop
      vertex -1.000000e+000 -2.250000e+001  0.000000e+000
      vertex  1.000000e+000 -2.250000e+001  4.000000e+000
      vertex -1.000000e+000 -2.250000e+001  4.000000e+000
    endloop
  endfacet
  facet normal -2.588188e-001 -9.659259e-001  -0.000000e+000
    outer loop
      vertex -1.000000e+000 -2.250000e+001  0.000000e+000
      vertex -1.000000e+000 -2.250000e+001  4.000000e+000
      vertex -3.500000e+000 -2.183013e+001  0.000000e+000
    endloop
  endfacet
  facet normal -2.588188e-001 -9.659259e-001  0.000000e+000
    outer loop
      vertex -3.500000e+000 -2.183013e+001  0.000000e+000
      vertex -1.000000e+000 -2.250000e+001  4.000000e+000
      vertex -3.500000e+000 -2.183013e+001  4.000000e+000
    endloop
  endfacet
  facet normal -7.071069e-001 -7.071067e-001  -0.000000e+000
    outer loop
      vertex -3.500000e+000 -2.183013e+001  0.000000e+000
      vertex -3.500000e+000 -2.183013e+001  4.000000e+000
      vertex -5.330127e+000 -2.000000e+001  0.000000e+000
    endloop
  endfacet
  facet normal -7.071069e-001 -7.071067e-001  0.000000e+000
    outer loop
      vertex -5.330127e+000 -2.000000e+001  0.000000e+000
      vertex -3.500000e+000 -2.183013e+001  4.000000e+000
      vertex -5.330127e+000 -2.000000e+001  4.000000e+000
    endloop
  endfacet
  facet normal -9.659259e-001 -2.588190e-001  -0.000000e+000
    outer loop
      vertex -5.330127e+000 -2.000000e+001  0.000000e+000
      vertex -5.330127e+000 -2.000000e+001  4.000000e+000
      vertex -6.000000e+000 -1.750000e+001  0.000000e+000
    endloop
  endfacet
  facet normal -9.659259e-001 -2.588190e-001  0.000000e+000
    outer loop
      vertex -6.000000e+000 -1.750000e+001  0.000000e+000
      vertex -5.330127e+000 -2.000000e+001  4.000000e+000
      vertex -6.000000e+000 -1.750000e+001  4.000000e+000
    endloop
  endfacet
  facet normal -1.000000e+000  -0.000000e+000  0.000000e+000
    outer loop
      vertex -6.000000e+000 -1.750000e+001  4.000000e+000
      vertex -6.000000e+000  1.750000e+001  4.000000e+000
      vertex -6.000000e+000 -1.750000e+001  0.000000e+000
    endloop
  endfacet
  facet normal -1.000000e+000  0.000000e+000  0.000000e+000
    outer loop
      vertex -6.000000e+000 -1.750000e+001  0.000000e+000
      vertex -6.000000e+000  1.750000e+001  4.000000e+000
      vertex -6.000000e+000  1.750000e+001  0.000000e+000
    endloop
  endfacet
  facet normal -9.659259e-001  2.588190e-001  0.000000e+000
    outer loop
      vertex -6.000000e+000  1.750000e+001  0.000000e+000
      vertex -6.000000e+000  1.750000e+001  4.000000e+000
      vertex -5.330127e+000  2.000000e+001  0.000000e+000
    endloop
  endfacet
  facet normal -9.659259e-001  2.588190e-001  0.000000e+000
    outer loop
      vertex -5.330127e+000  2.000000e+001  0.000000e+000
      vertex -6.000000e+000  1.750000e+001  4.000000e+000
      vertex -5.330127e+000  2.000000e+001  4.000000e+000
    endloop
  endfacet
  facet normal -7.071069e-001  7.071067e-001  0.000000e+000
    outer loop
      vertex -5.330127e+000  2.000000e+001  0.000000e+000
      vertex -5.330127e+000  2.000000e+001  4.000000e+000
      vertex -3.500000e+000  2.183013e+001  0.000000e+000
    endloop
  endfacet
  facet normal -7.071069e-001  7.071067e-001  0.000000e+000
    outer loop
      vertex -3.500000e+000  2.183013e+001  0.000000e+000
      vertex -5.330127e+000  2.000000e+001  4.000000e+000
      vertex -3.500000e+000  2.183013e+001  4.000000e+000
    endloop
  endfacet
  facet normal -2.588188e-001  9.659259e-001  0.000000e+000
    outer loop
      vertex -3.500000e+000  2.183013e+001  0.000000e+000
      vertex -3.500000e+000  2.183013e+001  4.000000e+000
      vertex -1.000000e+000  2.250000e+001  0.000000e+000
    endloop
  endfacet
  facet normal -2.588188e-001  9.659259e-001  0.000000e+000
    outer loop
      vertex -1.000000e+000  2.250000e+001  0.000000e+000
      vertex -3.500000e+000  2.183013e+001  4.000000e+000
      vertex -1.000000e+000  2.250000e+001  4.000000e+000
    endloop
  endfacet
  facet normal  0.000000e+000  1.000000e+000  0.000000e+000
    outer loop
      vertex -1.000000e+000  2.250000e+001  0.000000e+000
      vertex -1.000000e+000  2.250000e+001  4.000000e+000
      vertex  1.000000e+000  2.250000e+001  0.000000e+000
    endloop
  endfacet
  facet normal  0.000000e+000  1.000000e+000  -0.000000e+000
    outer loop
      vertex  1.000000e+000  2.250000e+001  0.000000e+000
      vertex -1.000000e+000  2.250000e+001  4.000000e+000
      vertex  1.000000e+000  2.250000e+001  4.000000e+000
    endloop
  endfacet
  facet normal  2.588188e-001  9.659259e-001  0.000000e+000
    outer loop
      vertex  1.000000e+000  2.250000e+001  0.000000e+000
      vertex  1.000000e+000  2.250000e+001  4.000000e+000
      vertex  3.500000e+000  2.183013e+001  0.000000e+000
    endloop
  endfacet
  facet normal  2.588188e-001  9.659259e-001  -0.000000e+000
    outer loop
      vertex  3.500000e+000  2.183013e+001  0.000000e+000
      vertex  1.000000e+000  2.250000e+001  4.000000e+000
      vertex  3.500000e+000  2.183013e+001  4.000000e+000
    endloop
  endfacet
  facet normal  7.071069e-001  7.071067e-001  0.000000e+000
    outer loop
      vertex  3.500000e+000  2.183013e+001  0.000000e+000
      vertex  3.500000e+000  2.183013e+001  4.000000e+000
      vertex  5.330127e+000  2.000000e+001  0.000000e+000
    endloop
  endfacet
  facet normal  7.071069e-001  7.071067e-001  -0.000000e+000
    outer loop
      vertex  5.330127e+000  2.000000e+001  0.000000e+000
      vertex  3.500000e+000  2.183013e+001  4.000000e+000
      vertex  5.330127e+000  2.000000e+001  4.000000e+000
    endloop
  endfacet
  facet normal  9.659259e-001  2.588190e-001  0.000000e+000
    outer loop
      vertex  5.330127e+000  2.000000e+001  0.000000e+000
      vertex  5.330127e+000  2.000000e+001  4.000000e+000
      vertex  6.000000e+000  1.750000e+001  0.000000e+000
    endloop
  endfacet
  facet normal  9.659259e-001  2.588190e-001  -0.000000e+000
    outer loop
      vertex  6.000000e+000  1.750000e+001  0.000000e+000
      vertex  5.330127e+000  2.000000e+001  4.000000e+000
      vertex  6.000000e+000  1.750000e+001  4.000000e+000
    endloop
  endfacet
endsolid CATIA STL
