solid CATIA STL
  facet normal  0.000000e+000  0.000000e+000  1.000000e+000
    outer loop
      vertex -1.081560e+000  2.171302e+000  4.000000e+000
      vertex -2.831559e+000 -3.442752e+000  4.000000e+000
      vertex -1.081559e+000 -2.171302e+000  4.000000e+000
    endloop
  endfacet
  facet normal  -0.000000e+000  -0.000000e+000  9.999999e-001
    outer loop
      vertex -6.000000e+000 -1.000000e+001  4.000000e+000
      vertex -5.330127e+000 -1.250000e+001  4.000000e+000
      vertex -3.500000e+000 -1.433013e+001  4.000000e+000
    endloop
  endfacet
  facet normal  0.000000e+000  -0.000000e+000  1.000000e+000
    outer loop
      vertex -6.000000e+000 -1.000000e+001  4.000000e+000
      vertex -3.500000e+000 -1.433013e+001  4.000000e+000
      vertex -1.081560e+000 -8.828698e+000  4.000000e+000
    endloop
  endfacet
  facet normal  0.000000e+000  0.000000e+000  1.000000e+000
    outer loop
      vertex -6.000000e+000 -1.000000e+001  4.000000e+000
      vertex -1.081560e+000 -8.828698e+000  4.000000e+000
      vertex -2.831559e+000 -7.557249e+000  4.000000e+000
    endloop
  endfacet
  facet normal  0.000000e+000  0.000000e+000  1.000000e+000
    outer loop
      vertex -6.000000e+000 -1.000000e+001  4.000000e+000
      vertex -2.831559e+000 -7.557249e+000  4.000000e+000
      vertex -3.500000e+000 -5.500000e+000  4.000000e+000
    endloop
  endfacet
  facet normal  0.000000e+000  -0.000000e+000  1.000000e+000
    outer loop
      vertex -6.000000e+000 -1.000000e+001  4.000000e+000
      vertex -3.500000e+000 -5.500000e+000  4.000000e+000
      vertex -2.831559e+000 -3.442752e+000  4.000000e+000
    endloop
  endfacet
  facet normal  0.000000e+000  -0.000000e+000  9.999999e-001
    outer loop
      vertex -6.000000e+000 -1.000000e+001  4.000000e+000
      vertex -2.831559e+000 -3.442752e+000  4.000000e+000
      vertex -1.081560e+000  2.171302e+000  4.000000e+000
    endloop
  endfacet
  facet normal  0.000000e+000  0.000000e+000  1.000000e+000
    outer loop
      vertex -6.000000e+000 -1.000000e+001  4.000000e+000
      vertex -1.081560e+000  2.171302e+000  4.000000e+000
      vertex -2.831559e+000  3.442752e+000  4.000000e+000
    endloop
  endfacet
  facet normal  0.000000e+000  0.000000e+000  1.000000e+000
    outer loop
      vertex -6.000000e+000 -1.000000e+001  4.000000e+000
      vertex -2.831559e+000  3.442752e+000  4.000000e+000
      vertex -3.500000e+000  5.500000e+000  4.000000e+000
    endloop
  endfacet
  facet normal  0.000000e+000  0.000000e+000  1.000000e+000
    outer loop
      vertex -6.000000e+000  1.000000e+001  4.000000e+000
      vertex -6.000000e+000 -1.000000e+001  4.000000e+000
      vertex -3.500000e+000  5.500000e+000  4.000000e+000
    endloop
  endfacet
  facet normal  0.000000e+000  -0.000000e+000  1.000000e+000
    outer loop
      vertex -6.000000e+000  1.000000e+001  4.000000e+000
      vertex -3.500000e+000  5.500000e+000  4.000000e+000
      vertex -2.831559e+000  7.557249e+000  4.000000e+000
    endloop
  endfacet
  facet normal  0.000000e+000  -0.000000e+000  1.000000e+000
    outer loop
      vertex -6.000000e+000  1.000000e+001  4.000000e+000
      vertex -2.831559e+000  7.557249e+000  4.000000e+000
      vertex -1.081559e+000  8.828698e+000  4.000000e+000
    endloop
  endfacet
  facet normal  0.000000e+000  0.000000e+000  9.999999e-001
    outer loop
      vertex -6.000000e+000  1.000000e+001  4.000000e+000
      vertex -1.081559e+000  8.828698e+000  4.000000e+000
      vertex -3.500000e+000  1.433013e+001  4.000000e+000
    endloop
  endfacet
  facet normal  0.000000e+000  0.000000e+000  9.999999e-001
    outer loop
      vertex -6.000000e+000  1.000000e+001  4.000000e+000
      vertex -3.500000e+000  1.433013e+001  4.000000e+000
      vertex -5.330127e+000  1.250000e+001  4.000000e+000
    endloop
  endfacet
  facet normal  0.000000e+000  0.000000e+000  1.000000e+000
    outer loop
      vertex  6.000000e+000 -1.000000e+001  4.000000e+000
      vertex  3.500000e+000  5.500000e+000  4.000000e+000
      vertex  2.831559e+000  3.442752e+000  4.000000e+000
    endloop
  endfacet
  facet normal  0.000000e+000  0.000000e+000  1.000000e+000
    outer loop
      vertex  6.000000e+000 -1.000000e+001  4.000000e+000
      vertex  2.831559e+000  3.442752e+000  4.000000e+000
      vertex  1.081560e+000  2.171302e+000  4.000000e+000
    endloop
  endfacet
  facet normal  0.000000e+000  0.000000e+000  1.000000e+000
    outer loop
      vertex  6.000000e+000 -1.000000e+001  4.000000e+000
      vertex  1.081560e+000  2.171302e+000  4.000000e+000
      vertex  2.831559e+000 -3.442752e+000  4.000000e+000
    endloop
  endfacet
  facet normal  0.000000e+000  0.000000e+000  1.000000e+000
    outer loop
      vertex  6.000000e+000 -1.000000e+001  4.000000e+000
      vertex  2.831559e+000 -3.442752e+000  4.000000e+000
      vertex  3.500000e+000 -5.500000e+000  4.000000e+000
    endloop
  endfacet
  facet normal  0.000000e+000  0.000000e+000  1.000000e+000
    outer loop
      vertex  6.000000e+000 -1.000000e+001  4.000000e+000
      vertex  3.500000e+000 -5.500000e+000  4.000000e+000
      vertex  2.831559e+000 -7.557249e+000  4.000000e+000
    endloop
  endfacet
  facet normal  0.000000e+000  0.000000e+000  1.000000e+000
    outer loop
      vertex  6.000000e+000 -1.000000e+001  4.000000e+000
      vertex  2.831559e+000 -7.557249e+000  4.000000e+000
      vertex  1.081560e+000 -8.828698e+000  4.000000e+000
    endloop
  endfacet
  facet normal  -0.000000e+000  0.000000e+000  1.000000e+000
    outer loop
      vertex  6.000000e+000  1.000000e+001  4.000000e+000
      vertex  1.081560e+000  8.828698e+000  4.000000e+000
      vertex  2.831559e+000  7.557249e+000  4.000000e+000
    endloop
  endfacet
  facet normal  -0.000000e+000  0.000000e+000  1.000000e+000
    outer loop
      vertex  6.000000e+000  1.000000e+001  4.000000e+000
      vertex  2.831559e+000  7.557249e+000  4.000000e+000
      vertex  3.500000e+000  5.500000e+000  4.000000e+000
    endloop
  endfacet
  facet normal  -0.000000e+000  0.000000e+000  1.000000e+000
    outer loop
      vertex  6.000000e+000  1.000000e+001  4.000000e+000
      vertex  3.500000e+000  5.500000e+000  4.000000e+000
      vertex  6.000000e+000 -1.000000e+001  4.000000e+000
    endloop
  endfacet
  facet normal  0.000000e+000  0.000000e+000  9.999999e-001
    outer loop
      vertex  5.330127e+000 -1.250000e+001  4.000000e+000
      vertex  6.000000e+000 -1.000000e+001  4.000000e+000
      vertex  3.500000e+000 -1.433013e+001  4.000000e+000
    endloop
  endfacet
  facet normal  0.000000e+000  -0.000000e+000  1.000000e+000
    outer loop
      vertex  3.500000e+000 -1.433013e+001  4.000000e+000
      vertex  6.000000e+000 -1.000000e+001  4.000000e+000
      vertex  1.081560e+000 -8.828698e+000  4.000000e+000
    endloop
  endfacet
  facet normal  0.000000e+000  0.000000e+000  9.999999e-001
    outer loop
      vertex  3.500000e+000 -1.433013e+001  4.000000e+000
      vertex  1.081560e+000 -8.828698e+000  4.000000e+000
      vertex  1.000000e+000 -1.500000e+001  4.000000e+000
    endloop
  endfacet
  facet normal  0.000000e+000  -0.000000e+000  1.000000e+000
    outer loop
      vertex  1.000000e+000 -1.500000e+001  4.000000e+000
      vertex  1.081560e+000 -8.828698e+000  4.000000e+000
      vertex -1.081560e+000 -8.828698e+000  4.000000e+000
    endloop
  endfacet
  facet normal  0.000000e+000  0.000000e+000  1.000000e+000
    outer loop
      vertex  1.000000e+000 -1.500000e+001  4.000000e+000
      vertex -1.081560e+000 -8.828698e+000  4.000000e+000
      vertex -1.000000e+000 -1.500000e+001  4.000000e+000
    endloop
  endfacet
  facet normal  0.000000e+000  0.000000e+000  1.000000e+000
    outer loop
      vertex -1.000000e+000 -1.500000e+001  4.000000e+000
      vertex -1.081560e+000 -8.828698e+000  4.000000e+000
      vertex -3.500000e+000 -1.433013e+001  4.000000e+000
    endloop
  endfacet
  facet normal  0.000000e+000  -0.000000e+000  1.000000e+000
    outer loop
      vertex -1.081560e+000  2.171302e+000  4.000000e+000
      vertex -1.081559e+000 -2.171302e+000  4.000000e+000
      vertex  1.081560e+000  2.171302e+000  4.000000e+000
    endloop
  endfacet
  facet normal  0.000000e+000  0.000000e+000  1.000000e+000
    outer loop
      vertex  1.081560e+000  2.171302e+000  4.000000e+000
      vertex -1.081559e+000 -2.171302e+000  4.000000e+000
      vertex  1.081560e+000 -2.171302e+000  4.000000e+000
    endloop
  endfacet
  facet normal  -0.000000e+000  0.000000e+000  1.000000e+000
    outer loop
      vertex  1.081560e+000  2.171302e+000  4.000000e+000
      vertex  1.081560e+000 -2.171302e+000  4.000000e+000
      vertex  2.831559e+000 -3.442752e+000  4.000000e+000
    endloop
  endfacet
  facet normal  0.000000e+000  0.000000e+000  9.999999e-001
    outer loop
      vertex  6.000000e+000  1.000000e+001  4.000000e+000
      vertex  5.330127e+000  1.250000e+001  4.000000e+000
      vertex  1.081560e+000  8.828698e+000  4.000000e+000
    endloop
  endfacet
  facet normal  0.000000e+000  0.000000e+000  1.000000e+000
    outer loop
      vertex  1.081560e+000  8.828698e+000  4.000000e+000
      vertex  5.330127e+000  1.250000e+001  4.000000e+000
      vertex  3.500000e+000  1.433013e+001  4.000000e+000
    endloop
  endfacet
  facet normal  0.000000e+000  0.000000e+000  1.000000e+000
    outer loop
      vertex  1.081560e+000  8.828698e+000  4.000000e+000
      vertex  3.500000e+000  1.433013e+001  4.000000e+000
      vertex -1.081559e+000  8.828698e+000  4.000000e+000
    endloop
  endfacet
  facet normal  0.000000e+000  0.000000e+000  1.000000e+000
    outer loop
      vertex -1.081559e+000  8.828698e+000  4.000000e+000
      vertex  3.500000e+000  1.433013e+001  4.000000e+000
      vertex  1.000000e+000  1.500000e+001  4.000000e+000
    endloop
  endfacet
  facet normal  0.000000e+000  0.000000e+000  1.000000e+000
    outer loop
      vertex -1.081559e+000  8.828698e+000  4.000000e+000
      vertex  1.000000e+000  1.500000e+001  4.000000e+000
      vertex -3.500000e+000  1.433013e+001  4.000000e+000
    endloop
  endfacet
  facet normal  0.000000e+000  0.000000e+000  1.000000e+000
    outer loop
      vertex -3.500000e+000  1.433013e+001  4.000000e+000
      vertex  1.000000e+000  1.500000e+001  4.000000e+000
      vertex -1.000000e+000  1.500000e+001  4.000000e+000
    endloop
  endfacet
  facet normal  3.826834e-001 -9.238795e-001  0.000000e+000
    outer loop
      vertex  1.224606e-016  7.500000e+000  0.000000e+000
      vertex -1.414214e+000  6.914214e+000  3.133975e+000
      vertex -1.414214e+000  6.914214e+000  0.000000e+000
    endloop
  endfacet
  facet normal  9.238795e-001 -3.826834e-001  0.000000e+000
    outer loop
      vertex -1.414214e+000  6.914214e+000  0.000000e+000
      vertex -1.414214e+000  6.914214e+000  3.133975e+000
      vertex -2.000000e+000  5.500000e+000  3.133975e+000
    endloop
  endfacet
  facet normal  9.238795e-001 -3.826834e-001  0.000000e+000
    outer loop
      vertex -1.414214e+000  6.914214e+000  0.000000e+000
      vertex -2.000000e+000  5.500000e+000  3.133975e+000
      vertex -2.000000e+000  5.500000e+000  0.000000e+000
    endloop
  endfacet
  facet normal  3.826834e-001 -9.238795e-001  0.000000e+000
    outer loop
      vertex -1.414214e+000  6.914214e+000  3.133975e+000
      vertex  1.224606e-016  7.500000e+000  0.000000e+000
      vertex  1.224606e-016  7.500000e+000  3.133975e+000
    endloop
  endfacet
  facet normal -3.826834e-001 -9.238795e-001  -0.000000e+000
    outer loop
      vertex  1.224606e-016  7.500000e+000  3.133975e+000
      vertex  1.224606e-016  7.500000e+000  0.000000e+000
      vertex  1.414214e+000  6.914214e+000  0.000000e+000
    endloop
  endfacet
  facet normal -3.826834e-001 -9.238795e-001  0.000000e+000
    outer loop
      vertex  1.224606e-016  7.500000e+000  3.133975e+000
      vertex  1.414214e+000  6.914214e+000  0.000000e+000
      vertex  1.414214e+000  6.914214e+000  3.133975e+000
    endloop
  endfacet
  facet normal -9.238795e-001 -3.826834e-001  -0.000000e+000
    outer loop
      vertex  1.414214e+000  6.914214e+000  3.133975e+000
      vertex  1.414214e+000  6.914214e+000  0.000000e+000
      vertex  2.000000e+000  5.500000e+000  0.000000e+000
    endloop
  endfacet
  facet normal -9.238795e-001 -3.826834e-001  0.000000e+000
    outer loop
      vertex  1.414214e+000  6.914214e+000  3.133975e+000
      vertex  2.000000e+000  5.500000e+000  0.000000e+000
      vertex  2.000000e+000  5.500000e+000  3.133975e+000
    endloop
  endfacet
  facet normal -3.826834e-001  9.238795e-001  0.000000e+000
    outer loop
      vertex -3.673819e-016  3.500000e+000  0.000000e+000
      vertex  1.414214e+000  4.085786e+000  3.133975e+000
      vertex  1.414214e+000  4.085786e+000  0.000000e+000
    endloop
  endfacet
  facet normal -9.238795e-001  3.826834e-001  0.000000e+000
    outer loop
      vertex  1.414214e+000  4.085786e+000  0.000000e+000
      vertex  1.414214e+000  4.085786e+000  3.133975e+000
      vertex  2.000000e+000  5.500000e+000  3.133975e+000
    endloop
  endfacet
  facet normal -9.238795e-001  3.826834e-001  0.000000e+000
    outer loop
      vertex  1.414214e+000  4.085786e+000  0.000000e+000
      vertex  2.000000e+000  5.500000e+000  3.133975e+000
      vertex  2.000000e+000  5.500000e+000  0.000000e+000
    endloop
  endfacet
  facet normal -3.826834e-001  9.238795e-001  0.000000e+000
    outer loop
      vertex  1.414214e+000  4.085786e+000  3.133975e+000
      vertex -3.673819e-016  3.500000e+000  0.000000e+000
      vertex -3.673819e-016  3.500000e+000  3.133975e+000
    endloop
  endfacet
  facet normal  3.826834e-001  9.238795e-001  0.000000e+000
    outer loop
      vertex -3.673819e-016  3.500000e+000  3.133975e+000
      vertex -3.673819e-016  3.500000e+000  0.000000e+000
      vertex -1.414214e+000  4.085786e+000  0.000000e+000
    endloop
  endfacet
  facet normal  3.826834e-001  9.238795e-001  -0.000000e+000
    outer loop
      vertex -3.673819e-016  3.500000e+000  3.133975e+000
      vertex -1.414214e+000  4.085786e+000  0.000000e+000
      vertex -1.414214e+000  4.085786e+000  3.133975e+000
    endloop
  endfacet
  facet normal  9.238795e-001  3.826834e-001  0.000000e+000
    outer loop
      vertex -1.414214e+000  4.085786e+000  3.133975e+000
      vertex -1.414214e+000  4.085786e+000  0.000000e+000
      vertex -2.000000e+000  5.500000e+000  0.000000e+000
    endloop
  endfacet
  facet normal  9.238795e-001  3.826834e-001  -0.000000e+000
    outer loop
      vertex -1.414214e+000  4.085786e+000  3.133975e+000
      vertex -2.000000e+000  5.500000e+000  0.000000e+000
      vertex -2.000000e+000  5.500000e+000  3.133975e+000
    endloop
  endfacet
  facet normal -4.494047e-001  1.861495e-001  8.737184e-001
    outer loop
      vertex  1.414214e+000  4.085786e+000  3.133975e+000
      vertex  2.831559e+000  3.442752e+000  4.000000e+000
      vertex  2.000000e+000  5.500000e+000  3.133975e+000
    endloop
  endfacet
  facet normal -4.935295e-001  1.603575e-001  8.548181e-001
    outer loop
      vertex  2.831559e+000  3.442752e+000  4.000000e+000
      vertex  3.500000e+000  5.500000e+000  4.000000e+000
      vertex  2.000000e+000  5.500000e+000  3.133975e+000
    endloop
  endfacet
  facet normal  4.935295e-001  1.603575e-001  8.548181e-001
    outer loop
      vertex -3.500000e+000  5.500000e+000  4.000000e+000
      vertex -2.831559e+000  3.442752e+000  4.000000e+000
      vertex -2.000000e+000  5.500000e+000  3.133975e+000
    endloop
  endfacet
  facet normal  4.494047e-001  1.861495e-001  8.737184e-001
    outer loop
      vertex -2.831559e+000  3.442752e+000  4.000000e+000
      vertex -1.414214e+000  4.085786e+000  3.133975e+000
      vertex -2.000000e+000  5.500000e+000  3.133975e+000
    endloop
  endfacet
  facet normal  3.168219e-001  4.360678e-001  8.422996e-001
    outer loop
      vertex -2.831559e+000  3.442752e+000  4.000000e+000
      vertex -1.081560e+000  2.171302e+000  4.000000e+000
      vertex -1.414214e+000  4.085786e+000  3.133975e+000
    endloop
  endfacet
  facet normal  0.000000e+000  5.460392e-001  8.377596e-001
    outer loop
      vertex -1.081560e+000  2.171302e+000  4.000000e+000
      vertex  1.081560e+000  2.171302e+000  4.000000e+000
      vertex -3.673819e-016  3.500000e+000  3.133975e+000
    endloop
  endfacet
  facet normal  1.785730e-001  4.311134e-001  8.844507e-001
    outer loop
      vertex -1.414214e+000  4.085786e+000  3.133975e+000
      vertex -1.081560e+000  2.171302e+000  4.000000e+000
      vertex -3.673819e-016  3.500000e+000  3.133975e+000
    endloop
  endfacet
  facet normal -3.168219e-001  4.360678e-001  8.422996e-001
    outer loop
      vertex  1.081560e+000  2.171302e+000  4.000000e+000
      vertex  2.831559e+000  3.442752e+000  4.000000e+000
      vertex  1.414214e+000  4.085786e+000  3.133975e+000
    endloop
  endfacet
  facet normal -1.785730e-001  4.311134e-001  8.844507e-001
    outer loop
      vertex -3.673819e-016  3.500000e+000  3.133975e+000
      vertex  1.081560e+000  2.171302e+000  4.000000e+000
      vertex  1.414214e+000  4.085786e+000  3.133975e+000
    endloop
  endfacet
  facet normal  4.494046e-001 -1.861495e-001  8.737184e-001
    outer loop
      vertex -1.414214e+000  6.914214e+000  3.133975e+000
      vertex -2.831559e+000  7.557249e+000  4.000000e+000
      vertex -2.000000e+000  5.500000e+000  3.133975e+000
    endloop
  endfacet
  facet normal  4.935296e-001 -1.603575e-001  8.548182e-001
    outer loop
      vertex -2.831559e+000  7.557249e+000  4.000000e+000
      vertex -3.500000e+000  5.500000e+000  4.000000e+000
      vertex -2.000000e+000  5.500000e+000  3.133975e+000
    endloop
  endfacet
  facet normal -4.935296e-001 -1.603575e-001  8.548182e-001
    outer loop
      vertex  3.500000e+000  5.500000e+000  4.000000e+000
      vertex  2.831559e+000  7.557249e+000  4.000000e+000
      vertex  2.000000e+000  5.500000e+000  3.133975e+000
    endloop
  endfacet
  facet normal -4.494046e-001 -1.861495e-001  8.737184e-001
    outer loop
      vertex  2.831559e+000  7.557249e+000  4.000000e+000
      vertex  1.414214e+000  6.914214e+000  3.133975e+000
      vertex  2.000000e+000  5.500000e+000  3.133975e+000
    endloop
  endfacet
  facet normal -3.168219e-001 -4.360678e-001  8.422997e-001
    outer loop
      vertex  2.831559e+000  7.557249e+000  4.000000e+000
      vertex  1.081560e+000  8.828698e+000  4.000000e+000
      vertex  1.414214e+000  6.914214e+000  3.133975e+000
    endloop
  endfacet
  facet normal  0.000000e+000 -5.460392e-001  8.377597e-001
    outer loop
      vertex  1.081560e+000  8.828698e+000  4.000000e+000
      vertex -1.081559e+000  8.828698e+000  4.000000e+000
      vertex  1.224606e-016  7.500000e+000  3.133975e+000
    endloop
  endfacet
  facet normal -1.785730e-001 -4.311133e-001  8.844507e-001
    outer loop
      vertex  1.414214e+000  6.914214e+000  3.133975e+000
      vertex  1.081560e+000  8.828698e+000  4.000000e+000
      vertex  1.224606e-016  7.500000e+000  3.133975e+000
    endloop
  endfacet
  facet normal  3.168219e-001 -4.360678e-001  8.422997e-001
    outer loop
      vertex -1.081559e+000  8.828698e+000  4.000000e+000
      vertex -2.831559e+000  7.557249e+000  4.000000e+000
      vertex -1.414214e+000  6.914214e+000  3.133975e+000
    endloop
  endfacet
  facet normal  1.785730e-001 -4.311133e-001  8.844507e-001
    outer loop
      vertex  1.224606e-016  7.500000e+000  3.133975e+000
      vertex -1.081559e+000  8.828698e+000  4.000000e+000
      vertex -1.414214e+000  6.914214e+000  3.133975e+000
    endloop
  endfacet
  facet normal  3.826834e-001 -9.238795e-001  0.000000e+000
    outer loop
      vertex  1.224606e-016 -3.500000e+000  0.000000e+000
      vertex -1.414214e+000 -4.085786e+000  3.133975e+000
      vertex -1.414214e+000 -4.085786e+000  0.000000e+000
    endloop
  endfacet
  facet normal  9.238795e-001 -3.826834e-001  0.000000e+000
    outer loop
      vertex -1.414214e+000 -4.085786e+000  0.000000e+000
      vertex -1.414214e+000 -4.085786e+000  3.133975e+000
      vertex -2.000000e+000 -5.500000e+000  3.133975e+000
    endloop
  endfacet
  facet normal  9.238795e-001 -3.826834e-001  0.000000e+000
    outer loop
      vertex -1.414214e+000 -4.085786e+000  0.000000e+000
      vertex -2.000000e+000 -5.500000e+000  3.133975e+000
      vertex -2.000000e+000 -5.500000e+000  0.000000e+000
    endloop
  endfacet
  facet normal  3.826834e-001 -9.238795e-001  0.000000e+000
    outer loop
      vertex -1.414214e+000 -4.085786e+000  3.133975e+000
      vertex  1.224606e-016 -3.500000e+000  0.000000e+000
      vertex  1.224606e-016 -3.500000e+000  3.133975e+000
    endloop
  endfacet
  facet normal -3.826834e-001 -9.238795e-001  -0.000000e+000
    outer loop
      vertex  1.224606e-016 -3.500000e+000  3.133975e+000
      vertex  1.224606e-016 -3.500000e+000  0.000000e+000
      vertex  1.414214e+000 -4.085786e+000  0.000000e+000
    endloop
  endfacet
  facet normal -3.826834e-001 -9.238795e-001  0.000000e+000
    outer loop
      vertex  1.224606e-016 -3.500000e+000  3.133975e+000
      vertex  1.414214e+000 -4.085786e+000  0.000000e+000
      vertex  1.414214e+000 -4.085786e+000  3.133975e+000
    endloop
  endfacet
  facet normal -9.238795e-001 -3.826834e-001  -0.000000e+000
    outer loop
      vertex  1.414214e+000 -4.085786e+000  3.133975e+000
      vertex  1.414214e+000 -4.085786e+000  0.000000e+000
      vertex  2.000000e+000 -5.500000e+000  0.000000e+000
    endloop
  endfacet
  facet normal -9.238795e-001 -3.826834e-001  0.000000e+000
    outer loop
      vertex  1.414214e+000 -4.085786e+000  3.133975e+000
      vertex  2.000000e+000 -5.500000e+000  0.000000e+000
      vertex  2.000000e+000 -5.500000e+000  3.133975e+000
    endloop
  endfacet
  facet normal -3.826834e-001  9.238795e-001  0.000000e+000
    outer loop
      vertex -3.673819e-016 -7.500000e+000  0.000000e+000
      vertex  1.414214e+000 -6.914214e+000  3.133975e+000
      vertex  1.414214e+000 -6.914214e+000  0.000000e+000
    endloop
  endfacet
  facet normal -9.238795e-001  3.826834e-001  0.000000e+000
    outer loop
      vertex  1.414214e+000 -6.914214e+000  0.000000e+000
      vertex  1.414214e+000 -6.914214e+000  3.133975e+000
      vertex  2.000000e+000 -5.500000e+000  3.133975e+000
    endloop
  endfacet
  facet normal -9.238795e-001  3.826834e-001  0.000000e+000
    outer loop
      vertex  1.414214e+000 -6.914214e+000  0.000000e+000
      vertex  2.000000e+000 -5.500000e+000  3.133975e+000
      vertex  2.000000e+000 -5.500000e+000  0.000000e+000
    endloop
  endfacet
  facet normal -3.826834e-001  9.238795e-001  0.000000e+000
    outer loop
      vertex  1.414214e+000 -6.914214e+000  3.133975e+000
      vertex -3.673819e-016 -7.500000e+000  0.000000e+000
      vertex -3.673819e-016 -7.500000e+000  3.133975e+000
    endloop
  endfacet
  facet normal  3.826834e-001  9.238795e-001  0.000000e+000
    outer loop
      vertex -3.673819e-016 -7.500000e+000  3.133975e+000
      vertex -3.673819e-016 -7.500000e+000  0.000000e+000
      vertex -1.414214e+000 -6.914214e+000  0.000000e+000
    endloop
  endfacet
  facet normal  3.826834e-001  9.238795e-001  -0.000000e+000
    outer loop
      vertex -3.673819e-016 -7.500000e+000  3.133975e+000
      vertex -1.414214e+000 -6.914214e+000  0.000000e+000
      vertex -1.414214e+000 -6.914214e+000  3.133975e+000
    endloop
  endfacet
  facet normal  9.238795e-001  3.826834e-001  0.000000e+000
    outer loop
      vertex -1.414214e+000 -6.914214e+000  3.133975e+000
      vertex -1.414214e+000 -6.914214e+000  0.000000e+000
      vertex -2.000000e+000 -5.500000e+000  0.000000e+000
    endloop
  endfacet
  facet normal  9.238795e-001  3.826834e-001  -0.000000e+000
    outer loop
      vertex -1.414214e+000 -6.914214e+000  3.133975e+000
      vertex -2.000000e+000 -5.500000e+000  0.000000e+000
      vertex -2.000000e+000 -5.500000e+000  3.133975e+000
    endloop
  endfacet
  facet normal -4.494046e-001  1.861495e-001  8.737184e-001
    outer loop
      vertex  1.414214e+000 -6.914214e+000  3.133975e+000
      vertex  2.831559e+000 -7.557249e+000  4.000000e+000
      vertex  2.000000e+000 -5.500000e+000  3.133975e+000
    endloop
  endfacet
  facet normal -4.935296e-001  1.603575e-001  8.548182e-001
    outer loop
      vertex  2.831559e+000 -7.557249e+000  4.000000e+000
      vertex  3.500000e+000 -5.500000e+000  4.000000e+000
      vertex  2.000000e+000 -5.500000e+000  3.133975e+000
    endloop
  endfacet
  facet normal  4.935296e-001  1.603575e-001  8.548182e-001
    outer loop
      vertex -3.500000e+000 -5.500000e+000  4.000000e+000
      vertex -2.831559e+000 -7.557249e+000  4.000000e+000
      vertex -2.000000e+000 -5.500000e+000  3.133975e+000
    endloop
  endfacet
  facet normal  4.494046e-001  1.861495e-001  8.737184e-001
    outer loop
      vertex -2.831559e+000 -7.557249e+000  4.000000e+000
      vertex -1.414214e+000 -6.914214e+000  3.133975e+000
      vertex -2.000000e+000 -5.500000e+000  3.133975e+000
    endloop
  endfacet
  facet normal  3.168219e-001  4.360678e-001  8.422997e-001
    outer loop
      vertex -2.831559e+000 -7.557249e+000  4.000000e+000
      vertex -1.081560e+000 -8.828698e+000  4.000000e+000
      vertex -1.414214e+000 -6.914214e+000  3.133975e+000
    endloop
  endfacet
  facet normal  0.000000e+000  5.460391e-001  8.377597e-001
    outer loop
      vertex -1.081560e+000 -8.828698e+000  4.000000e+000
      vertex  1.081560e+000 -8.828698e+000  4.000000e+000
      vertex -3.673819e-016 -7.500000e+000  3.133975e+000
    endloop
  endfacet
  facet normal  1.785730e-001  4.311133e-001  8.844507e-001
    outer loop
      vertex -1.414214e+000 -6.914214e+000  3.133975e+000
      vertex -1.081560e+000 -8.828698e+000  4.000000e+000
      vertex -3.673819e-016 -7.500000e+000  3.133975e+000
    endloop
  endfacet
  facet normal -3.168219e-001  4.360678e-001  8.422997e-001
    outer loop
      vertex  1.081560e+000 -8.828698e+000  4.000000e+000
      vertex  2.831559e+000 -7.557249e+000  4.000000e+000
      vertex  1.414214e+000 -6.914214e+000  3.133975e+000
    endloop
  endfacet
  facet normal -1.785730e-001  4.311133e-001  8.844507e-001
    outer loop
      vertex -3.673819e-016 -7.500000e+000  3.133975e+000
      vertex  1.081560e+000 -8.828698e+000  4.000000e+000
      vertex  1.414214e+000 -6.914214e+000  3.133975e+000
    endloop
  endfacet
  facet normal  4.494047e-001 -1.861495e-001  8.737184e-001
    outer loop
      vertex -1.414214e+000 -4.085786e+000  3.133975e+000
      vertex -2.831559e+000 -3.442752e+000  4.000000e+000
      vertex -2.000000e+000 -5.500000e+000  3.133975e+000
    endloop
  endfacet
  facet normal  4.935295e-001 -1.603575e-001  8.548181e-001
    outer loop
      vertex -2.831559e+000 -3.442752e+000  4.000000e+000
      vertex -3.500000e+000 -5.500000e+000  4.000000e+000
      vertex -2.000000e+000 -5.500000e+000  3.133975e+000
    endloop
  endfacet
  facet normal -4.935295e-001 -1.603575e-001  8.548181e-001
    outer loop
      vertex  3.500000e+000 -5.500000e+000  4.000000e+000
      vertex  2.831559e+000 -3.442752e+000  4.000000e+000
      vertex  2.000000e+000 -5.500000e+000  3.133975e+000
    endloop
  endfacet
  facet normal -4.494047e-001 -1.861495e-001  8.737184e-001
    outer loop
      vertex  2.831559e+000 -3.442752e+000  4.000000e+000
      vertex  1.414214e+000 -4.085786e+000  3.133975e+000
      vertex  2.000000e+000 -5.500000e+000  3.133975e+000
    endloop
  endfacet
  facet normal -3.168219e-001 -4.360679e-001  8.422996e-001
    outer loop
      vertex  2.831559e+000 -3.442752e+000  4.000000e+000
      vertex  1.081560e+000 -2.171302e+000  4.000000e+000
      vertex  1.414214e+000 -4.085786e+000  3.133975e+000
    endloop
  endfacet
  facet normal -6.018436e-008 -5.460393e-001  8.377597e-001
    outer loop
      vertex  1.081560e+000 -2.171302e+000  4.000000e+000
      vertex -1.081559e+000 -2.171302e+000  4.000000e+000
      vertex  1.224606e-016 -3.500000e+000  3.133975e+000
    endloop
  endfacet
  facet normal -1.785730e-001 -4.311135e-001  8.844507e-001
    outer loop
      vertex  1.414214e+000 -4.085786e+000  3.133975e+000
      vertex  1.081560e+000 -2.171302e+000  4.000000e+000
      vertex  1.224606e-016 -3.500000e+000  3.133975e+000
    endloop
  endfacet
  facet normal  3.168219e-001 -4.360678e-001  8.422996e-001
    outer loop
      vertex -1.081559e+000 -2.171302e+000  4.000000e+000
      vertex -2.831559e+000 -3.442752e+000  4.000000e+000
      vertex -1.414214e+000 -4.085786e+000  3.133975e+000
    endloop
  endfacet
  facet normal  1.785730e-001 -4.311134e-001  8.844507e-001
    outer loop
      vertex  1.224606e-016 -3.500000e+000  3.133975e+000
      vertex -1.081559e+000 -2.171302e+000  4.000000e+000
      vertex -1.414214e+000 -4.085786e+000  3.133975e+000
    endloop
  endfacet
  facet normal  -0.000000e+000  0.000000e+000 -1.000000e+000
    outer loop
      vertex -3.673819e-016  3.500000e+000  0.000000e+000
      vertex  1.224606e-016 -3.500000e+000  0.000000e+000
      vertex -1.414214e+000 -4.085786e+000  0.000000e+000
    endloop
  endfacet
  facet normal  0.000000e+000  0.000000e+000 -1.000000e+000
    outer loop
      vertex  1.224606e-016 -3.500000e+000  0.000000e+000
      vertex -3.673819e-016  3.500000e+000  0.000000e+000
      vertex  1.414214e+000 -4.085786e+000  0.000000e+000
    endloop
  endfacet
  facet normal  0.000000e+000  0.000000e+000 -1.000000e+000
    outer loop
      vertex  6.000000e+000  1.000000e+001  0.000000e+000
      vertex  6.000000e+000 -1.000000e+001  0.000000e+000
      vertex  2.000000e+000  5.500000e+000  0.000000e+000
    endloop
  endfacet
  facet normal  0.000000e+000  0.000000e+000 -1.000000e+000
    outer loop
      vertex  6.000000e+000  1.000000e+001  0.000000e+000
      vertex  2.000000e+000  5.500000e+000  0.000000e+000
      vertex  1.414214e+000  6.914214e+000  0.000000e+000
    endloop
  endfacet
  facet normal  0.000000e+000  0.000000e+000 -1.000000e+000
    outer loop
      vertex  6.000000e+000  1.000000e+001  0.000000e+000
      vertex  1.414214e+000  6.914214e+000  0.000000e+000
      vertex  1.224606e-016  7.500000e+000  0.000000e+000
    endloop
  endfacet
  facet normal  -0.000000e+000  0.000000e+000 -1.000000e+000
    outer loop
      vertex -3.673819e-016 -7.500000e+000  0.000000e+000
      vertex  6.000000e+000 -1.000000e+001  0.000000e+000
      vertex  5.330127e+000 -1.250000e+001  0.000000e+000
    endloop
  endfacet
  facet normal  -0.000000e+000  0.000000e+000 -9.999999e-001
    outer loop
      vertex -3.673819e-016 -7.500000e+000  0.000000e+000
      vertex  5.330127e+000 -1.250000e+001  0.000000e+000
      vertex  3.500000e+000 -1.433013e+001  0.000000e+000
    endloop
  endfacet
  facet normal  -0.000000e+000  0.000000e+000 -1.000000e+000
    outer loop
      vertex -3.673819e-016 -7.500000e+000  0.000000e+000
      vertex  3.500000e+000 -1.433013e+001  0.000000e+000
      vertex  1.000000e+000 -1.500000e+001  0.000000e+000
    endloop
  endfacet
  facet normal  0.000000e+000  -0.000000e+000 -9.999999e-001
    outer loop
      vertex -6.000000e+000 -1.000000e+001  0.000000e+000
      vertex -2.000000e+000  5.500000e+000  0.000000e+000
      vertex -1.414214e+000  4.085786e+000  0.000000e+000
    endloop
  endfacet
  facet normal  0.000000e+000  -0.000000e+000 -9.999999e-001
    outer loop
      vertex -6.000000e+000 -1.000000e+001  0.000000e+000
      vertex -1.414214e+000  4.085786e+000  0.000000e+000
      vertex -3.673819e-016  3.500000e+000  0.000000e+000
    endloop
  endfacet
  facet normal  0.000000e+000  0.000000e+000 -1.000000e+000
    outer loop
      vertex -6.000000e+000 -1.000000e+001  0.000000e+000
      vertex -3.673819e-016  3.500000e+000  0.000000e+000
      vertex -1.414214e+000 -4.085786e+000  0.000000e+000
    endloop
  endfacet
  facet normal  0.000000e+000  0.000000e+000 -1.000000e+000
    outer loop
      vertex -6.000000e+000 -1.000000e+001  0.000000e+000
      vertex -1.414214e+000 -4.085786e+000  0.000000e+000
      vertex -2.000000e+000 -5.500000e+000  0.000000e+000
    endloop
  endfacet
  facet normal  0.000000e+000  -0.000000e+000 -1.000000e+000
    outer loop
      vertex -6.000000e+000 -1.000000e+001  0.000000e+000
      vertex -2.000000e+000 -5.500000e+000  0.000000e+000
      vertex -1.414214e+000 -6.914214e+000  0.000000e+000
    endloop
  endfacet
  facet normal  0.000000e+000  -0.000000e+000 -1.000000e+000
    outer loop
      vertex -6.000000e+000 -1.000000e+001  0.000000e+000
      vertex -1.414214e+000 -6.914214e+000  0.000000e+000
      vertex -3.673819e-016 -7.500000e+000  0.000000e+000
    endloop
  endfacet
  facet normal  0.000000e+000  -0.000000e+000 -9.999999e-001
    outer loop
      vertex -6.000000e+000  1.000000e+001  0.000000e+000
      vertex -5.330127e+000  1.250000e+001  0.000000e+000
      vertex -3.500000e+000  1.433013e+001  0.000000e+000
    endloop
  endfacet
  facet normal  0.000000e+000  -0.000000e+000 -1.000000e+000
    outer loop
      vertex -6.000000e+000  1.000000e+001  0.000000e+000
      vertex -3.500000e+000  1.433013e+001  0.000000e+000
      vertex  1.224606e-016  7.500000e+000  0.000000e+000
    endloop
  endfacet
  facet normal  -0.000000e+000  0.000000e+000 -1.000000e+000
    outer loop
      vertex -6.000000e+000  1.000000e+001  0.000000e+000
      vertex  1.224606e-016  7.500000e+000  0.000000e+000
      vertex -1.414214e+000  6.914214e+000  0.000000e+000
    endloop
  endfacet
  facet normal  -0.000000e+000  0.000000e+000 -1.000000e+000
    outer loop
      vertex -6.000000e+000  1.000000e+001  0.000000e+000
      vertex -1.414214e+000  6.914214e+000  0.000000e+000
      vertex -2.000000e+000  5.500000e+000  0.000000e+000
    endloop
  endfacet
  facet normal  -0.000000e+000  0.000000e+000 -1.000000e+000
    outer loop
      vertex -6.000000e+000  1.000000e+001  0.000000e+000
      vertex -2.000000e+000  5.500000e+000  0.000000e+000
      vertex -6.000000e+000 -1.000000e+001  0.000000e+000
    endloop
  endfacet
  facet normal  0.000000e+000  0.000000e+000 -1.000000e+000
    outer loop
      vertex  1.224606e-016  7.500000e+000  0.000000e+000
      vertex -3.500000e+000  1.433013e+001  0.000000e+000
      vertex -1.000000e+000  1.500000e+001  0.000000e+000
    endloop
  endfacet
  facet normal  0.000000e+000  0.000000e+000 -1.000000e+000
    outer loop
      vertex  1.224606e-016  7.500000e+000  0.000000e+000
      vertex -1.000000e+000  1.500000e+001  0.000000e+000
      vertex  1.000000e+000  1.500000e+001  0.000000e+000
    endloop
  endfacet
  facet normal  0.000000e+000  -0.000000e+000 -1.000000e+000
    outer loop
      vertex  1.224606e-016  7.500000e+000  0.000000e+000
      vertex  1.000000e+000  1.500000e+001  0.000000e+000
      vertex  3.500000e+000  1.433013e+001  0.000000e+000
    endloop
  endfacet
  facet normal  0.000000e+000  -0.000000e+000 -9.999999e-001
    outer loop
      vertex  1.224606e-016  7.500000e+000  0.000000e+000
      vertex  3.500000e+000  1.433013e+001  0.000000e+000
      vertex  5.330127e+000  1.250000e+001  0.000000e+000
    endloop
  endfacet
  facet normal  0.000000e+000  -0.000000e+000 -1.000000e+000
    outer loop
      vertex  1.224606e-016  7.500000e+000  0.000000e+000
      vertex  5.330127e+000  1.250000e+001  0.000000e+000
      vertex  6.000000e+000  1.000000e+001  0.000000e+000
    endloop
  endfacet
  facet normal  0.000000e+000  0.000000e+000 -1.000000e+000
    outer loop
      vertex  6.000000e+000 -1.000000e+001  0.000000e+000
      vertex -3.673819e-016 -7.500000e+000  0.000000e+000
      vertex  1.414214e+000 -6.914214e+000  0.000000e+000
    endloop
  endfacet
  facet normal  0.000000e+000  0.000000e+000 -1.000000e+000
    outer loop
      vertex  6.000000e+000 -1.000000e+001  0.000000e+000
      vertex  1.414214e+000 -6.914214e+000  0.000000e+000
      vertex  2.000000e+000 -5.500000e+000  0.000000e+000
    endloop
  endfacet
  facet normal  0.000000e+000  0.000000e+000 -1.000000e+000
    outer loop
      vertex  6.000000e+000 -1.000000e+001  0.000000e+000
      vertex  2.000000e+000 -5.500000e+000  0.000000e+000
      vertex  1.414214e+000 -4.085786e+000  0.000000e+000
    endloop
  endfacet
  facet normal  0.000000e+000  0.000000e+000 -1.000000e+000
    outer loop
      vertex  6.000000e+000 -1.000000e+001  0.000000e+000
      vertex  1.414214e+000 -4.085786e+000  0.000000e+000
      vertex -3.673819e-016  3.500000e+000  0.000000e+000
    endloop
  endfacet
  facet normal  0.000000e+000  0.000000e+000 -9.999999e-001
    outer loop
      vertex  6.000000e+000 -1.000000e+001  0.000000e+000
      vertex -3.673819e-016  3.500000e+000  0.000000e+000
      vertex  1.414214e+000  4.085786e+000  0.000000e+000
    endloop
  endfacet
  facet normal  0.000000e+000  0.000000e+000 -9.999999e-001
    outer loop
      vertex  6.000000e+000 -1.000000e+001  0.000000e+000
      vertex  1.414214e+000  4.085786e+000  0.000000e+000
      vertex  2.000000e+000  5.500000e+000  0.000000e+000
    endloop
  endfacet
  facet normal  0.000000e+000  0.000000e+000 -1.000000e+000
    outer loop
      vertex  1.000000e+000 -1.500000e+001  0.000000e+000
      vertex -1.000000e+000 -1.500000e+001  0.000000e+000
      vertex -3.673819e-016 -7.500000e+000  0.000000e+000
    endloop
  endfacet
  facet normal  0.000000e+000  0.000000e+000 -1.000000e+000
    outer loop
      vertex -3.673819e-016 -7.500000e+000  0.000000e+000
      vertex -1.000000e+000 -1.500000e+001  0.000000e+000
      vertex -6.000000e+000 -1.000000e+001  0.000000e+000
    endloop
  endfacet
  facet normal  0.000000e+000  0.000000e+000 -1.000000e+000
    outer loop
      vertex -1.000000e+000 -1.500000e+001  0.000000e+000
      vertex -3.500000e+000 -1.433013e+001  0.000000e+000
      vertex -6.000000e+000 -1.000000e+001  0.000000e+000
    endloop
  endfacet
  facet normal  0.000000e+000  0.000000e+000 -9.999999e-001
    outer loop
      vertex -6.000000e+000 -1.000000e+001  0.000000e+000
      vertex -3.500000e+000 -1.433013e+001  0.000000e+000
      vertex -5.330127e+000 -1.250000e+001  0.000000e+000
    endloop
  endfacet
  facet normal  1.000000e+000  -0.000000e+000  0.000000e+000
    outer loop
      vertex  6.000000e+000  1.000000e+001  4.000000e+000
      vertex  6.000000e+000 -1.000000e+001  4.000000e+000
      vertex  6.000000e+000  1.000000e+001  0.000000e+000
    endloop
  endfacet
  facet normal  1.000000e+000  0.000000e+000  0.000000e+000
    outer loop
      vertex  6.000000e+000  1.000000e+001  0.000000e+000
      vertex  6.000000e+000 -1.000000e+001  4.000000e+000
      vertex  6.000000e+000 -1.000000e+001  0.000000e+000
    endloop
  endfacet
  facet normal  9.659259e-001 -2.588190e-001  0.000000e+000
    outer loop
      vertex  6.000000e+000 -1.000000e+001  0.000000e+000
      vertex  6.000000e+000 -1.000000e+001  4.000000e+000
      vertex  5.330127e+000 -1.250000e+001  0.000000e+000
    endloop
  endfacet
  facet normal  9.659259e-001 -2.588190e-001  0.000000e+000
    outer loop
      vertex  5.330127e+000 -1.250000e+001  0.000000e+000
      vertex  6.000000e+000 -1.000000e+001  4.000000e+000
      vertex  5.330127e+000 -1.250000e+001  4.000000e+000
    endloop
  endfacet
  facet normal  7.071067e-001 -7.071069e-001  0.000000e+000
    outer loop
      vertex  5.330127e+000 -1.250000e+001  0.000000e+000
      vertex  5.330127e+000 -1.250000e+001  4.000000e+000
      vertex  3.500000e+000 -1.433013e+001  0.000000e+000
    endloop
  endfacet
  facet normal  7.071067e-001 -7.071069e-001  0.000000e+000
    outer loop
      vertex  3.500000e+000 -1.433013e+001  0.000000e+000
      vertex  5.330127e+000 -1.250000e+001  4.000000e+000
      vertex  3.500000e+000 -1.433013e+001  4.000000e+000
    endloop
  endfacet
  facet normal  2.588191e-001 -9.659258e-001  0.000000e+000
    outer loop
      vertex  3.500000e+000 -1.433013e+001  0.000000e+000
      vertex  3.500000e+000 -1.433013e+001  4.000000e+000
      vertex  1.000000e+000 -1.500000e+001  0.000000e+000
    endloop
  endfacet
  facet normal  2.588191e-001 -9.659258e-001  0.000000e+000
    outer loop
      vertex  1.000000e+000 -1.500000e+001  0.000000e+000
      vertex  3.500000e+000 -1.433013e+001  4.000000e+000
      vertex  1.000000e+000 -1.500000e+001  4.000000e+000
    endloop
  endfacet
  facet normal  0.000000e+000 -1.000000e+000  -0.000000e+000
    outer loop
      vertex  1.000000e+000 -1.500000e+001  0.000000e+000
      vertex  1.000000e+000 -1.500000e+001  4.000000e+000
      vertex -1.000000e+000 -1.500000e+001  0.000000e+000
    endloop
  endfacet
  facet normal  0.000000e+000 -1.000000e+000  0.000000e+000
    outer loop
      vertex -1.000000e+000 -1.500000e+001  0.000000e+000
      vertex  1.000000e+000 -1.500000e+001  4.000000e+000
      vertex -1.000000e+000 -1.500000e+001  4.000000e+000
    endloop
  endfacet
  facet normal -2.588191e-001 -9.659258e-001  -0.000000e+000
    outer loop
      vertex -1.000000e+000 -1.500000e+001  0.000000e+000
      vertex -1.000000e+000 -1.500000e+001  4.000000e+000
      vertex -3.500000e+000 -1.433013e+001  0.000000e+000
    endloop
  endfacet
  facet normal -2.588191e-001 -9.659258e-001  0.000000e+000
    outer loop
      vertex -3.500000e+000 -1.433013e+001  0.000000e+000
      vertex -1.000000e+000 -1.500000e+001  4.000000e+000
      vertex -3.500000e+000 -1.433013e+001  4.000000e+000
    endloop
  endfacet
  facet normal -7.071067e-001 -7.071069e-001  -0.000000e+000
    outer loop
      vertex -3.500000e+000 -1.433013e+001  0.000000e+000
      vertex -3.500000e+000 -1.433013e+001  4.000000e+000
      vertex -5.330127e+000 -1.250000e+001  0.000000e+000
    endloop
  endfacet
  facet normal -7.071067e-001 -7.071069e-001  0.000000e+000
    outer loop
      vertex -5.330127e+000 -1.250000e+001  0.000000e+000
      vertex -3.500000e+000 -1.433013e+001  4.000000e+000
      vertex -5.330127e+000 -1.250000e+001  4.000000e+000
    endloop
  endfacet
  facet normal -9.659259e-001 -2.588190e-001  -0.000000e+000
    outer loop
      vertex -5.330127e+000 -1.250000e+001  0.000000e+000
      vertex -5.330127e+000 -1.250000e+001  4.000000e+000
      vertex -6.000000e+000 -1.000000e+001  0.000000e+000
    endloop
  endfacet
  facet normal -9.659259e-001 -2.588190e-001  0.000000e+000
    outer loop
      vertex -6.000000e+000 -1.000000e+001  0.000000e+000
      vertex -5.330127e+000 -1.250000e+001  4.000000e+000
      vertex -6.000000e+000 -1.000000e+001  4.000000e+000
    endloop
  endfacet
  facet normal -1.000000e+000  -0.000000e+000  0.000000e+000
    outer loop
      vertex -6.000000e+000 -1.000000e+001  4.000000e+000
      vertex -6.000000e+000  1.000000e+001  4.000000e+000
      vertex -6.000000e+000 -1.000000e+001  0.000000e+000
    endloop
  endfacet
  facet normal -1.000000e+000  0.000000e+000  0.000000e+000
    outer loop
      vertex -6.000000e+000 -1.000000e+001  0.000000e+000
      vertex -6.000000e+000  1.000000e+001  4.000000e+000
      vertex -6.000000e+000  1.000000e+001  0.000000e+000
    endloop
  endfacet
  facet normal -9.659259e-001  2.588190e-001  0.000000e+000
    outer loop
      vertex -6.000000e+000  1.000000e+001  0.000000e+000
      vertex -6.000000e+000  1.000000e+001  4.000000e+000
      vertex -5.330127e+000  1.250000e+001  0.000000e+000
    endloop
  endfacet
  facet normal -9.659259e-001  2.588190e-001  0.000000e+000
    outer loop
      vertex -5.330127e+000  1.250000e+001  0.000000e+000
      vertex -6.000000e+000  1.000000e+001  4.000000e+000
      vertex -5.330127e+000  1.250000e+001  4.000000e+000
    endloop
  endfacet
  facet normal -7.071067e-001  7.071069e-001  0.000000e+000
    outer loop
      vertex -5.330127e+000  1.250000e+001  0.000000e+000
      vertex -5.330127e+000  1.250000e+001  4.000000e+000
      vertex -3.500000e+000  1.433013e+001  0.000000e+000
    endloop
  endfacet
  facet normal -7.071067e-001  7.071069e-001  0.000000e+000
    outer loop
      vertex -3.500000e+000  1.433013e+001  0.000000e+000
      vertex -5.330127e+000  1.250000e+001  4.000000e+000
      vertex -3.500000e+000  1.433013e+001  4.000000e+000
    endloop
  endfacet
  facet normal -2.588191e-001  9.659258e-001  0.000000e+000
    outer loop
      vertex -3.500000e+000  1.433013e+001  0.000000e+000
      vertex -3.500000e+000  1.433013e+001  4.000000e+000
      vertex -1.000000e+000  1.500000e+001  0.000000e+000
    endloop
  endfacet
  facet normal -2.588191e-001  9.659258e-001  0.000000e+000
    outer loop
      vertex -1.000000e+000  1.500000e+001  0.000000e+000
      vertex -3.500000e+000  1.433013e+001  4.000000e+000
      vertex -1.000000e+000  1.500000e+001  4.000000e+000
    endloop
  endfacet
  facet normal  0.000000e+000  1.000000e+000  0.000000e+000
    outer loop
      vertex -1.000000e+000  1.500000e+001  0.000000e+000
      vertex -1.000000e+000  1.500000e+001  4.000000e+000
      vertex  1.000000e+000  1.500000e+001  0.000000e+000
    endloop
  endfacet
  facet normal  0.000000e+000  1.000000e+000  -0.000000e+000
    outer loop
      vertex  1.000000e+000  1.500000e+001  0.000000e+000
      vertex -1.000000e+000  1.500000e+001  4.000000e+000
      vertex  1.000000e+000  1.500000e+001  4.000000e+000
    endloop
  endfacet
  facet normal  2.588191e-001  9.659258e-001  0.000000e+000
    outer loop
      vertex  1.000000e+000  1.500000e+001  0.000000e+000
      vertex  1.000000e+000  1.500000e+001  4.000000e+000
      vertex  3.500000e+000  1.433013e+001  0.000000e+000
    endloop
  endfacet
  facet normal  2.588191e-001  9.659258e-001  -0.000000e+000
    outer loop
      vertex  3.500000e+000  1.433013e+001  0.000000e+000
      vertex  1.000000e+000  1.500000e+001  4.000000e+000
      vertex  3.500000e+000  1.433013e+001  4.000000e+000
    endloop
  endfacet
  facet normal  7.071067e-001  7.071069e-001  0.000000e+000
    outer loop
      vertex  3.500000e+000  1.433013e+001  0.000000e+000
      vertex  3.500000e+000  1.433013e+001  4.000000e+000
      vertex  5.330127e+000  1.250000e+001  0.000000e+000
    endloop
  endfacet
  facet normal  7.071067e-001  7.071069e-001  -0.000000e+000
    outer loop
      vertex  5.330127e+000  1.250000e+001  0.000000e+000
      vertex  3.500000e+000  1.433013e+001  4.000000e+000
      vertex  5.330127e+000  1.250000e+001  4.000000e+000
    endloop
  endfacet
  facet normal  9.659259e-001  2.588190e-001  0.000000e+000
    outer loop
      vertex  5.330127e+000  1.250000e+001  0.000000e+000
      vertex  5.330127e+000  1.250000e+001  4.000000e+000
      vertex  6.000000e+000  1.000000e+001  0.000000e+000
    endloop
  endfacet
  facet normal  9.659259e-001  2.588190e-001  -0.000000e+000
    outer loop
      vertex  6.000000e+000  1.000000e+001  0.000000e+000
      vertex  5.330127e+000  1.250000e+001  4.000000e+000
      vertex  6.000000e+000  1.000000e+001  4.000000e+000
    endloop
  endfacet
endsolid CATIA STL
