solid CATIA STL
  facet normal  -0.000000e+000  0.000000e+000 -1.000000e+000
    outer loop
      vertex -3.000000e+001  7.000000e+000  0.000000e+000
      vertex -3.106066e+001 -8.439340e+000  0.000000e+000
      vertex -3.150000e+001 -9.500000e+000  0.000000e+000
    endloop
  endfacet
  facet normal  -0.000000e+000  0.000000e+000 -1.000000e+000
    outer loop
      vertex -3.000000e+001  7.000000e+000  0.000000e+000
      vertex -3.000000e+001 -8.000000e+000  0.000000e+000
      vertex -3.106066e+001 -8.439340e+000  0.000000e+000
    endloop
  endfacet
  facet normal  0.000000e+000  0.000000e+000 -1.000000e+000
    outer loop
      vertex  3.331066e+001 -8.439340e+000  0.000000e+000
      vertex  3.225000e+001  7.000000e+000  0.000000e+000
      vertex  3.375000e+001 -9.500000e+000  0.000000e+000
    endloop
  endfacet
  facet normal  0.000000e+000  0.000000e+000 -9.999999e-001
    outer loop
      vertex  3.225000e+001 -8.000000e+000  0.000000e+000
      vertex  3.225000e+001  7.000000e+000  0.000000e+000
      vertex  3.331066e+001 -8.439340e+000  0.000000e+000
    endloop
  endfacet
  facet normal  0.000000e+000  0.000000e+000 -1.000000e+000
    outer loop
      vertex  3.575000e+001 -2.100000e+001  0.000000e+000
      vertex -3.575000e+001 -2.100000e+001  0.000000e+000
      vertex -3.000000e+001 -1.100000e+001  0.000000e+000
    endloop
  endfacet
  facet normal  0.000000e+000  0.000000e+000 -1.000000e+000
    outer loop
      vertex  3.575000e+001 -2.100000e+001  0.000000e+000
      vertex -3.000000e+001 -1.100000e+001  0.000000e+000
      vertex  3.225000e+001 -1.100000e+001  0.000000e+000
    endloop
  endfacet
  facet normal  0.000000e+000  0.000000e+000 -1.000000e+000
    outer loop
      vertex  3.575000e+001 -2.100000e+001  0.000000e+000
      vertex  3.225000e+001 -1.100000e+001  0.000000e+000
      vertex  3.331066e+001 -1.056066e+001  0.000000e+000
    endloop
  endfacet
  facet normal  0.000000e+000  0.000000e+000 -9.999999e-001
    outer loop
      vertex  3.575000e+001 -2.100000e+001  0.000000e+000
      vertex  3.331066e+001 -1.056066e+001  0.000000e+000
      vertex  3.375000e+001 -9.500000e+000  0.000000e+000
    endloop
  endfacet
  facet normal  0.000000e+000  0.000000e+000 -1.000000e+000
    outer loop
      vertex  3.575000e+001 -2.100000e+001  0.000000e+000
      vertex  3.375000e+001 -9.500000e+000  0.000000e+000
      vertex  3.225000e+001  7.000000e+000  0.000000e+000
    endloop
  endfacet
  facet normal  0.000000e+000  0.000000e+000 -1.000000e+000
    outer loop
      vertex  3.575000e+001 -2.100000e+001  0.000000e+000
      vertex  3.225000e+001  7.000000e+000  0.000000e+000
      vertex  3.331066e+001  7.439340e+000  0.000000e+000
    endloop
  endfacet
  facet normal  0.000000e+000  0.000000e+000 -1.000000e+000
    outer loop
      vertex  3.575000e+001 -2.100000e+001  0.000000e+000
      vertex  3.331066e+001  7.439340e+000  0.000000e+000
      vertex  3.375000e+001  8.500000e+000  0.000000e+000
    endloop
  endfacet
  facet normal  0.000000e+000  0.000000e+000 -1.000000e+000
    outer loop
      vertex -3.575000e+001 -2.100000e+001  0.000000e+000
      vertex -3.575000e+001  2.100000e+001  0.000000e+000
      vertex -3.150000e+001  8.500000e+000  0.000000e+000
    endloop
  endfacet
  facet normal  0.000000e+000  -0.000000e+000 -1.000000e+000
    outer loop
      vertex -3.575000e+001 -2.100000e+001  0.000000e+000
      vertex -3.150000e+001  8.500000e+000  0.000000e+000
      vertex -3.106066e+001  7.439340e+000  0.000000e+000
    endloop
  endfacet
  facet normal  0.000000e+000  -0.000000e+000 -1.000000e+000
    outer loop
      vertex -3.575000e+001 -2.100000e+001  0.000000e+000
      vertex -3.106066e+001  7.439340e+000  0.000000e+000
      vertex -3.000000e+001  7.000000e+000  0.000000e+000
    endloop
  endfacet
  facet normal  0.000000e+000  0.000000e+000 -1.000000e+000
    outer loop
      vertex -3.575000e+001 -2.100000e+001  0.000000e+000
      vertex -3.000000e+001  7.000000e+000  0.000000e+000
      vertex -3.150000e+001 -9.500000e+000  0.000000e+000
    endloop
  endfacet
  facet normal  0.000000e+000  -0.000000e+000 -1.000000e+000
    outer loop
      vertex -3.575000e+001 -2.100000e+001  0.000000e+000
      vertex -3.150000e+001 -9.500000e+000  0.000000e+000
      vertex -3.106066e+001 -1.056066e+001  0.000000e+000
    endloop
  endfacet
  facet normal  0.000000e+000  -0.000000e+000 -1.000000e+000
    outer loop
      vertex -3.575000e+001 -2.100000e+001  0.000000e+000
      vertex -3.106066e+001 -1.056066e+001  0.000000e+000
      vertex -3.000000e+001 -1.100000e+001  0.000000e+000
    endloop
  endfacet
  facet normal  -0.000000e+000  0.000000e+000 -1.000000e+000
    outer loop
      vertex -3.575000e+001  2.100000e+001  0.000000e+000
      vertex  3.575000e+001  2.100000e+001  0.000000e+000
      vertex  3.225000e+001  1.000000e+001  0.000000e+000
    endloop
  endfacet
  facet normal  0.000000e+000  0.000000e+000 -1.000000e+000
    outer loop
      vertex -3.575000e+001  2.100000e+001  0.000000e+000
      vertex  3.225000e+001  1.000000e+001  0.000000e+000
      vertex -3.000000e+001  1.000000e+001  0.000000e+000
    endloop
  endfacet
  facet normal  -0.000000e+000  0.000000e+000 -1.000000e+000
    outer loop
      vertex -3.575000e+001  2.100000e+001  0.000000e+000
      vertex -3.000000e+001  1.000000e+001  0.000000e+000
      vertex -3.106066e+001  9.560660e+000  0.000000e+000
    endloop
  endfacet
  facet normal  -0.000000e+000  0.000000e+000 -1.000000e+000
    outer loop
      vertex -3.575000e+001  2.100000e+001  0.000000e+000
      vertex -3.106066e+001  9.560660e+000  0.000000e+000
      vertex -3.150000e+001  8.500000e+000  0.000000e+000
    endloop
  endfacet
  facet normal  0.000000e+000  0.000000e+000 -1.000000e+000
    outer loop
      vertex  3.575000e+001  2.100000e+001  0.000000e+000
      vertex  3.575000e+001 -2.100000e+001  0.000000e+000
      vertex  3.375000e+001  8.500000e+000  0.000000e+000
    endloop
  endfacet
  facet normal  0.000000e+000  0.000000e+000 -9.999999e-001
    outer loop
      vertex  3.575000e+001  2.100000e+001  0.000000e+000
      vertex  3.375000e+001  8.500000e+000  0.000000e+000
      vertex  3.331066e+001  9.560660e+000  0.000000e+000
    endloop
  endfacet
  facet normal  0.000000e+000  0.000000e+000 -1.000000e+000
    outer loop
      vertex  3.575000e+001  2.100000e+001  0.000000e+000
      vertex  3.331066e+001  9.560660e+000  0.000000e+000
      vertex  3.225000e+001  1.000000e+001  0.000000e+000
    endloop
  endfacet
  facet normal  0.000000e+000  0.000000e+000 -1.000000e+000
    outer loop
      vertex  3.225000e+001  7.000000e+000  0.000000e+000
      vertex -2.893934e+001  7.439340e+000  0.000000e+000
      vertex  3.118934e+001  7.439340e+000  0.000000e+000
    endloop
  endfacet
  facet normal  0.000000e+000  0.000000e+000 -1.000000e+000
    outer loop
      vertex  3.118934e+001  7.439340e+000  0.000000e+000
      vertex -2.893934e+001  7.439340e+000  0.000000e+000
      vertex -2.850000e+001  8.500000e+000  0.000000e+000
    endloop
  endfacet
  facet normal  0.000000e+000  0.000000e+000 -1.000000e+000
    outer loop
      vertex  3.118934e+001  7.439340e+000  0.000000e+000
      vertex -2.850000e+001  8.500000e+000  0.000000e+000
      vertex  3.075000e+001  8.500000e+000  0.000000e+000
    endloop
  endfacet
  facet normal  0.000000e+000  0.000000e+000 -1.000000e+000
    outer loop
      vertex  3.075000e+001  8.500000e+000  0.000000e+000
      vertex -2.850000e+001  8.500000e+000  0.000000e+000
      vertex -2.893934e+001  9.560660e+000  0.000000e+000
    endloop
  endfacet
  facet normal  0.000000e+000  0.000000e+000 -1.000000e+000
    outer loop
      vertex  3.075000e+001  8.500000e+000  0.000000e+000
      vertex -2.893934e+001  9.560660e+000  0.000000e+000
      vertex  3.118934e+001  9.560660e+000  0.000000e+000
    endloop
  endfacet
  facet normal  0.000000e+000  0.000000e+000 -1.000000e+000
    outer loop
      vertex  3.118934e+001  9.560660e+000  0.000000e+000
      vertex -2.893934e+001  9.560660e+000  0.000000e+000
      vertex -3.000000e+001  1.000000e+001  0.000000e+000
    endloop
  endfacet
  facet normal  0.000000e+000  0.000000e+000 -1.000000e+000
    outer loop
      vertex  3.118934e+001  9.560660e+000  0.000000e+000
      vertex -3.000000e+001  1.000000e+001  0.000000e+000
      vertex  3.225000e+001  1.000000e+001  0.000000e+000
    endloop
  endfacet
  facet normal  0.000000e+000  0.000000e+000 -1.000000e+000
    outer loop
      vertex -2.893934e+001  7.439340e+000  0.000000e+000
      vertex  3.225000e+001  7.000000e+000  0.000000e+000
      vertex -3.000000e+001  7.000000e+000  0.000000e+000
    endloop
  endfacet
  facet normal  0.000000e+000  0.000000e+000 -9.999999e-001
    outer loop
      vertex -3.000000e+001  7.000000e+000  0.000000e+000
      vertex  3.225000e+001  7.000000e+000  0.000000e+000
      vertex  3.225000e+001 -8.000000e+000  0.000000e+000
    endloop
  endfacet
  facet normal  0.000000e+000  0.000000e+000 -9.999999e-001
    outer loop
      vertex -3.000000e+001  7.000000e+000  0.000000e+000
      vertex  3.225000e+001 -8.000000e+000  0.000000e+000
      vertex -3.000000e+001 -8.000000e+000  0.000000e+000
    endloop
  endfacet
  facet normal  0.000000e+000  0.000000e+000 -1.000000e+000
    outer loop
      vertex -3.000000e+001 -8.000000e+000  0.000000e+000
      vertex  3.225000e+001 -8.000000e+000  0.000000e+000
      vertex  3.118934e+001 -8.439340e+000  0.000000e+000
    endloop
  endfacet
  facet normal  0.000000e+000  0.000000e+000 -1.000000e+000
    outer loop
      vertex -3.000000e+001 -8.000000e+000  0.000000e+000
      vertex  3.118934e+001 -8.439340e+000  0.000000e+000
      vertex -2.893934e+001 -8.439340e+000  0.000000e+000
    endloop
  endfacet
  facet normal  0.000000e+000  0.000000e+000 -1.000000e+000
    outer loop
      vertex -2.893934e+001 -8.439340e+000  0.000000e+000
      vertex  3.118934e+001 -8.439340e+000  0.000000e+000
      vertex  3.075000e+001 -9.500000e+000  0.000000e+000
    endloop
  endfacet
  facet normal  0.000000e+000  0.000000e+000 -1.000000e+000
    outer loop
      vertex -2.893934e+001 -8.439340e+000  0.000000e+000
      vertex  3.075000e+001 -9.500000e+000  0.000000e+000
      vertex -2.850000e+001 -9.500000e+000  0.000000e+000
    endloop
  endfacet
  facet normal  0.000000e+000  0.000000e+000 -1.000000e+000
    outer loop
      vertex -2.850000e+001 -9.500000e+000  0.000000e+000
      vertex  3.075000e+001 -9.500000e+000  0.000000e+000
      vertex  3.118934e+001 -1.056066e+001  0.000000e+000
    endloop
  endfacet
  facet normal  0.000000e+000  0.000000e+000 -1.000000e+000
    outer loop
      vertex -2.850000e+001 -9.500000e+000  0.000000e+000
      vertex  3.118934e+001 -1.056066e+001  0.000000e+000
      vertex -2.893934e+001 -1.056066e+001  0.000000e+000
    endloop
  endfacet
  facet normal  0.000000e+000  0.000000e+000 -1.000000e+000
    outer loop
      vertex -2.893934e+001 -1.056066e+001  0.000000e+000
      vertex  3.118934e+001 -1.056066e+001  0.000000e+000
      vertex  3.225000e+001 -1.100000e+001  0.000000e+000
    endloop
  endfacet
  facet normal  0.000000e+000  0.000000e+000 -1.000000e+000
    outer loop
      vertex -2.893934e+001 -1.056066e+001  0.000000e+000
      vertex  3.225000e+001 -1.100000e+001  0.000000e+000
      vertex -3.000000e+001 -1.100000e+001  0.000000e+000
    endloop
  endfacet
  facet normal  0.000000e+000  -0.000000e+000  1.000000e+000
    outer loop
      vertex -3.150000e+001 -9.500000e+000  5.000000e+000
      vertex -3.106066e+001 -8.439340e+000  5.000000e+000
      vertex -3.000000e+001  7.000000e+000  5.000000e+000
    endloop
  endfacet
  facet normal  0.000000e+000  -0.000000e+000  1.000000e+000
    outer loop
      vertex -3.106066e+001 -8.439340e+000  5.000000e+000
      vertex -3.000000e+001 -8.000000e+000  5.000000e+000
      vertex -3.000000e+001  7.000000e+000  5.000000e+000
    endloop
  endfacet
  facet normal  0.000000e+000  0.000000e+000  1.000000e+000
    outer loop
      vertex  3.375000e+001 -9.500000e+000  5.000000e+000
      vertex  3.225000e+001  7.000000e+000  5.000000e+000
      vertex  3.331066e+001 -8.439340e+000  5.000000e+000
    endloop
  endfacet
  facet normal  0.000000e+000  0.000000e+000  9.999999e-001
    outer loop
      vertex  3.331066e+001 -8.439340e+000  5.000000e+000
      vertex  3.225000e+001  7.000000e+000  5.000000e+000
      vertex  3.225000e+001 -8.000000e+000  5.000000e+000
    endloop
  endfacet
  facet normal  0.000000e+000  0.000000e+000  1.000000e+000
    outer loop
      vertex  3.575000e+001 -2.100000e+001  5.000000e+000
      vertex  3.375000e+001  8.500000e+000  5.000000e+000
      vertex  3.331066e+001  7.439340e+000  5.000000e+000
    endloop
  endfacet
  facet normal  0.000000e+000  0.000000e+000  9.999999e-001
    outer loop
      vertex  3.575000e+001 -2.100000e+001  5.000000e+000
      vertex  3.331066e+001  7.439340e+000  5.000000e+000
      vertex  3.225000e+001  7.000000e+000  5.000000e+000
    endloop
  endfacet
  facet normal  0.000000e+000  0.000000e+000  1.000000e+000
    outer loop
      vertex  3.575000e+001 -2.100000e+001  5.000000e+000
      vertex  3.225000e+001  7.000000e+000  5.000000e+000
      vertex  3.375000e+001 -9.500000e+000  5.000000e+000
    endloop
  endfacet
  facet normal  0.000000e+000  0.000000e+000  9.999999e-001
    outer loop
      vertex  3.575000e+001 -2.100000e+001  5.000000e+000
      vertex  3.375000e+001 -9.500000e+000  5.000000e+000
      vertex  3.331066e+001 -1.056066e+001  5.000000e+000
    endloop
  endfacet
  facet normal  0.000000e+000  0.000000e+000  1.000000e+000
    outer loop
      vertex  3.575000e+001 -2.100000e+001  5.000000e+000
      vertex  3.331066e+001 -1.056066e+001  5.000000e+000
      vertex  3.225000e+001 -1.100000e+001  5.000000e+000
    endloop
  endfacet
  facet normal  0.000000e+000  0.000000e+000  1.000000e+000
    outer loop
      vertex  3.575000e+001 -2.100000e+001  5.000000e+000
      vertex  3.225000e+001 -1.100000e+001  5.000000e+000
      vertex -3.000000e+001 -1.100000e+001  5.000000e+000
    endloop
  endfacet
  facet normal  0.000000e+000  0.000000e+000  1.000000e+000
    outer loop
      vertex  3.575000e+001 -2.100000e+001  5.000000e+000
      vertex -3.000000e+001 -1.100000e+001  5.000000e+000
      vertex -3.575000e+001 -2.100000e+001  5.000000e+000
    endloop
  endfacet
  facet normal  0.000000e+000  0.000000e+000  1.000000e+000
    outer loop
      vertex -3.575000e+001 -2.100000e+001  5.000000e+000
      vertex -3.000000e+001 -1.100000e+001  5.000000e+000
      vertex -3.106066e+001 -1.056066e+001  5.000000e+000
    endloop
  endfacet
  facet normal  0.000000e+000  0.000000e+000  1.000000e+000
    outer loop
      vertex -3.575000e+001 -2.100000e+001  5.000000e+000
      vertex -3.106066e+001 -1.056066e+001  5.000000e+000
      vertex -3.150000e+001 -9.500000e+000  5.000000e+000
    endloop
  endfacet
  facet normal  0.000000e+000  -0.000000e+000  1.000000e+000
    outer loop
      vertex -3.575000e+001 -2.100000e+001  5.000000e+000
      vertex -3.150000e+001 -9.500000e+000  5.000000e+000
      vertex -3.000000e+001  7.000000e+000  5.000000e+000
    endloop
  endfacet
  facet normal  0.000000e+000  0.000000e+000  1.000000e+000
    outer loop
      vertex -3.575000e+001 -2.100000e+001  5.000000e+000
      vertex -3.000000e+001  7.000000e+000  5.000000e+000
      vertex -3.106066e+001  7.439340e+000  5.000000e+000
    endloop
  endfacet
  facet normal  0.000000e+000  0.000000e+000  1.000000e+000
    outer loop
      vertex -3.575000e+001 -2.100000e+001  5.000000e+000
      vertex -3.106066e+001  7.439340e+000  5.000000e+000
      vertex -3.150000e+001  8.500000e+000  5.000000e+000
    endloop
  endfacet
  facet normal  0.000000e+000  0.000000e+000  1.000000e+000
    outer loop
      vertex -3.575000e+001 -2.100000e+001  5.000000e+000
      vertex -3.150000e+001  8.500000e+000  5.000000e+000
      vertex -3.575000e+001  2.100000e+001  5.000000e+000
    endloop
  endfacet
  facet normal  0.000000e+000  -0.000000e+000  1.000000e+000
    outer loop
      vertex -3.575000e+001  2.100000e+001  5.000000e+000
      vertex -3.150000e+001  8.500000e+000  5.000000e+000
      vertex -3.106066e+001  9.560660e+000  5.000000e+000
    endloop
  endfacet
  facet normal  0.000000e+000  -0.000000e+000  1.000000e+000
    outer loop
      vertex -3.575000e+001  2.100000e+001  5.000000e+000
      vertex -3.106066e+001  9.560660e+000  5.000000e+000
      vertex -3.000000e+001  1.000000e+001  5.000000e+000
    endloop
  endfacet
  facet normal  0.000000e+000  -0.000000e+000  1.000000e+000
    outer loop
      vertex -3.575000e+001  2.100000e+001  5.000000e+000
      vertex -3.000000e+001  1.000000e+001  5.000000e+000
      vertex  3.225000e+001  1.000000e+001  5.000000e+000
    endloop
  endfacet
  facet normal  0.000000e+000  -0.000000e+000  1.000000e+000
    outer loop
      vertex -3.575000e+001  2.100000e+001  5.000000e+000
      vertex  3.225000e+001  1.000000e+001  5.000000e+000
      vertex  3.575000e+001  2.100000e+001  5.000000e+000
    endloop
  endfacet
  facet normal  -0.000000e+000  0.000000e+000  1.000000e+000
    outer loop
      vertex  3.575000e+001  2.100000e+001  5.000000e+000
      vertex  3.225000e+001  1.000000e+001  5.000000e+000
      vertex  3.331066e+001  9.560660e+000  5.000000e+000
    endloop
  endfacet
  facet normal  -0.000000e+000  0.000000e+000  9.999999e-001
    outer loop
      vertex  3.575000e+001  2.100000e+001  5.000000e+000
      vertex  3.331066e+001  9.560660e+000  5.000000e+000
      vertex  3.375000e+001  8.500000e+000  5.000000e+000
    endloop
  endfacet
  facet normal  -0.000000e+000  0.000000e+000  1.000000e+000
    outer loop
      vertex  3.575000e+001  2.100000e+001  5.000000e+000
      vertex  3.375000e+001  8.500000e+000  5.000000e+000
      vertex  3.575000e+001 -2.100000e+001  5.000000e+000
    endloop
  endfacet
  facet normal  -0.000000e+000  0.000000e+000  1.000000e+000
    outer loop
      vertex  3.225000e+001  1.000000e+001  5.000000e+000
      vertex -3.000000e+001  1.000000e+001  5.000000e+000
      vertex  3.118934e+001  9.560660e+000  5.000000e+000
    endloop
  endfacet
  facet normal  0.000000e+000  0.000000e+000  1.000000e+000
    outer loop
      vertex  3.118934e+001  9.560660e+000  5.000000e+000
      vertex -3.000000e+001  1.000000e+001  5.000000e+000
      vertex -2.893934e+001  9.560660e+000  5.000000e+000
    endloop
  endfacet
  facet normal  -0.000000e+000  0.000000e+000  1.000000e+000
    outer loop
      vertex  3.118934e+001  9.560660e+000  5.000000e+000
      vertex -2.893934e+001  9.560660e+000  5.000000e+000
      vertex  3.075000e+001  8.500000e+000  5.000000e+000
    endloop
  endfacet
  facet normal  0.000000e+000  0.000000e+000  1.000000e+000
    outer loop
      vertex  3.075000e+001  8.500000e+000  5.000000e+000
      vertex -2.893934e+001  9.560660e+000  5.000000e+000
      vertex -2.850000e+001  8.500000e+000  5.000000e+000
    endloop
  endfacet
  facet normal  -0.000000e+000  0.000000e+000  1.000000e+000
    outer loop
      vertex  3.075000e+001  8.500000e+000  5.000000e+000
      vertex -2.850000e+001  8.500000e+000  5.000000e+000
      vertex  3.118934e+001  7.439340e+000  5.000000e+000
    endloop
  endfacet
  facet normal  0.000000e+000  0.000000e+000  1.000000e+000
    outer loop
      vertex  3.118934e+001  7.439340e+000  5.000000e+000
      vertex -2.850000e+001  8.500000e+000  5.000000e+000
      vertex -2.893934e+001  7.439340e+000  5.000000e+000
    endloop
  endfacet
  facet normal  -0.000000e+000  0.000000e+000  1.000000e+000
    outer loop
      vertex  3.118934e+001  7.439340e+000  5.000000e+000
      vertex -2.893934e+001  7.439340e+000  5.000000e+000
      vertex  3.225000e+001  7.000000e+000  5.000000e+000
    endloop
  endfacet
  facet normal  0.000000e+000  0.000000e+000  1.000000e+000
    outer loop
      vertex  3.225000e+001  7.000000e+000  5.000000e+000
      vertex -2.893934e+001  7.439340e+000  5.000000e+000
      vertex -3.000000e+001  7.000000e+000  5.000000e+000
    endloop
  endfacet
  facet normal  -0.000000e+000  0.000000e+000  9.999999e-001
    outer loop
      vertex  3.225000e+001  7.000000e+000  5.000000e+000
      vertex -3.000000e+001  7.000000e+000  5.000000e+000
      vertex  3.225000e+001 -8.000000e+000  5.000000e+000
    endloop
  endfacet
  facet normal  0.000000e+000  0.000000e+000  9.999999e-001
    outer loop
      vertex  3.225000e+001 -8.000000e+000  5.000000e+000
      vertex -3.000000e+001  7.000000e+000  5.000000e+000
      vertex -3.000000e+001 -8.000000e+000  5.000000e+000
    endloop
  endfacet
  facet normal  -0.000000e+000  0.000000e+000  1.000000e+000
    outer loop
      vertex  3.225000e+001 -8.000000e+000  5.000000e+000
      vertex -3.000000e+001 -8.000000e+000  5.000000e+000
      vertex  3.118934e+001 -8.439340e+000  5.000000e+000
    endloop
  endfacet
  facet normal  0.000000e+000  0.000000e+000  1.000000e+000
    outer loop
      vertex  3.118934e+001 -8.439340e+000  5.000000e+000
      vertex -3.000000e+001 -8.000000e+000  5.000000e+000
      vertex -2.893934e+001 -8.439340e+000  5.000000e+000
    endloop
  endfacet
  facet normal  -0.000000e+000  0.000000e+000  1.000000e+000
    outer loop
      vertex  3.118934e+001 -8.439340e+000  5.000000e+000
      vertex -2.893934e+001 -8.439340e+000  5.000000e+000
      vertex  3.075000e+001 -9.500000e+000  5.000000e+000
    endloop
  endfacet
  facet normal  0.000000e+000  0.000000e+000  1.000000e+000
    outer loop
      vertex  3.075000e+001 -9.500000e+000  5.000000e+000
      vertex -2.893934e+001 -8.439340e+000  5.000000e+000
      vertex -2.850000e+001 -9.500000e+000  5.000000e+000
    endloop
  endfacet
  facet normal  -0.000000e+000  0.000000e+000  1.000000e+000
    outer loop
      vertex  3.075000e+001 -9.500000e+000  5.000000e+000
      vertex -2.850000e+001 -9.500000e+000  5.000000e+000
      vertex  3.118934e+001 -1.056066e+001  5.000000e+000
    endloop
  endfacet
  facet normal  0.000000e+000  0.000000e+000  1.000000e+000
    outer loop
      vertex  3.118934e+001 -1.056066e+001  5.000000e+000
      vertex -2.850000e+001 -9.500000e+000  5.000000e+000
      vertex -2.893934e+001 -1.056066e+001  5.000000e+000
    endloop
  endfacet
  facet normal  -0.000000e+000  0.000000e+000  1.000000e+000
    outer loop
      vertex  3.118934e+001 -1.056066e+001  5.000000e+000
      vertex -2.893934e+001 -1.056066e+001  5.000000e+000
      vertex  3.225000e+001 -1.100000e+001  5.000000e+000
    endloop
  endfacet
  facet normal  0.000000e+000  0.000000e+000  1.000000e+000
    outer loop
      vertex  3.225000e+001 -1.100000e+001  5.000000e+000
      vertex -2.893934e+001 -1.056066e+001  5.000000e+000
      vertex -3.000000e+001 -1.100000e+001  5.000000e+000
    endloop
  endfacet
  facet normal -3.826835e-001  9.238794e-001  0.000000e+000
    outer loop
      vertex -3.000000e+001  7.000000e+000  0.000000e+000
      vertex -2.893934e+001  7.439340e+000  5.000000e+000
      vertex -2.893934e+001  7.439340e+000  0.000000e+000
    endloop
  endfacet
  facet normal -9.238793e-001  3.826840e-001  0.000000e+000
    outer loop
      vertex -2.893934e+001  7.439340e+000  0.000000e+000
      vertex -2.893934e+001  7.439340e+000  5.000000e+000
      vertex -2.850000e+001  8.500000e+000  5.000000e+000
    endloop
  endfacet
  facet normal -9.238793e-001  3.826840e-001  0.000000e+000
    outer loop
      vertex -2.893934e+001  7.439340e+000  0.000000e+000
      vertex -2.850000e+001  8.500000e+000  5.000000e+000
      vertex -2.850000e+001  8.500000e+000  0.000000e+000
    endloop
  endfacet
  facet normal -3.826835e-001  9.238794e-001  0.000000e+000
    outer loop
      vertex -2.893934e+001  7.439340e+000  5.000000e+000
      vertex -3.000000e+001  7.000000e+000  0.000000e+000
      vertex -3.000000e+001  7.000000e+000  5.000000e+000
    endloop
  endfacet
  facet normal  3.826835e-001  9.238794e-001  0.000000e+000
    outer loop
      vertex -3.000000e+001  7.000000e+000  5.000000e+000
      vertex -3.000000e+001  7.000000e+000  0.000000e+000
      vertex -3.106066e+001  7.439340e+000  0.000000e+000
    endloop
  endfacet
  facet normal  3.826835e-001  9.238794e-001  -0.000000e+000
    outer loop
      vertex -3.000000e+001  7.000000e+000  5.000000e+000
      vertex -3.106066e+001  7.439340e+000  0.000000e+000
      vertex -3.106066e+001  7.439340e+000  5.000000e+000
    endloop
  endfacet
  facet normal  9.238793e-001  3.826840e-001  0.000000e+000
    outer loop
      vertex -3.106066e+001  7.439340e+000  5.000000e+000
      vertex -3.106066e+001  7.439340e+000  0.000000e+000
      vertex -3.150000e+001  8.500000e+000  0.000000e+000
    endloop
  endfacet
  facet normal  9.238793e-001  3.826840e-001  -0.000000e+000
    outer loop
      vertex -3.106066e+001  7.439340e+000  5.000000e+000
      vertex -3.150000e+001  8.500000e+000  0.000000e+000
      vertex -3.150000e+001  8.500000e+000  5.000000e+000
    endloop
  endfacet
  facet normal  3.826835e-001 -9.238794e-001  0.000000e+000
    outer loop
      vertex -3.000000e+001  1.000000e+001  0.000000e+000
      vertex -3.106066e+001  9.560660e+000  5.000000e+000
      vertex -3.106066e+001  9.560660e+000  0.000000e+000
    endloop
  endfacet
  facet normal  9.238793e-001 -3.826840e-001  0.000000e+000
    outer loop
      vertex -3.106066e+001  9.560660e+000  0.000000e+000
      vertex -3.106066e+001  9.560660e+000  5.000000e+000
      vertex -3.150000e+001  8.500000e+000  5.000000e+000
    endloop
  endfacet
  facet normal  9.238793e-001 -3.826840e-001  0.000000e+000
    outer loop
      vertex -3.106066e+001  9.560660e+000  0.000000e+000
      vertex -3.150000e+001  8.500000e+000  5.000000e+000
      vertex -3.150000e+001  8.500000e+000  0.000000e+000
    endloop
  endfacet
  facet normal  3.826835e-001 -9.238794e-001  0.000000e+000
    outer loop
      vertex -3.106066e+001  9.560660e+000  5.000000e+000
      vertex -3.000000e+001  1.000000e+001  0.000000e+000
      vertex -3.000000e+001  1.000000e+001  5.000000e+000
    endloop
  endfacet
  facet normal -3.826835e-001 -9.238794e-001  -0.000000e+000
    outer loop
      vertex -3.000000e+001  1.000000e+001  5.000000e+000
      vertex -3.000000e+001  1.000000e+001  0.000000e+000
      vertex -2.893934e+001  9.560660e+000  0.000000e+000
    endloop
  endfacet
  facet normal -3.826835e-001 -9.238794e-001  0.000000e+000
    outer loop
      vertex -3.000000e+001  1.000000e+001  5.000000e+000
      vertex -2.893934e+001  9.560660e+000  0.000000e+000
      vertex -2.893934e+001  9.560660e+000  5.000000e+000
    endloop
  endfacet
  facet normal -9.238793e-001 -3.826840e-001  -0.000000e+000
    outer loop
      vertex -2.893934e+001  9.560660e+000  5.000000e+000
      vertex -2.893934e+001  9.560660e+000  0.000000e+000
      vertex -2.850000e+001  8.500000e+000  0.000000e+000
    endloop
  endfacet
  facet normal -9.238793e-001 -3.826840e-001  0.000000e+000
    outer loop
      vertex -2.893934e+001  9.560660e+000  5.000000e+000
      vertex -2.850000e+001  8.500000e+000  0.000000e+000
      vertex -2.850000e+001  8.500000e+000  5.000000e+000
    endloop
  endfacet
  facet normal -3.826835e-001  9.238794e-001  0.000000e+000
    outer loop
      vertex -3.000000e+001 -1.100000e+001  0.000000e+000
      vertex -2.893934e+001 -1.056066e+001  5.000000e+000
      vertex -2.893934e+001 -1.056066e+001  0.000000e+000
    endloop
  endfacet
  facet normal -9.238793e-001  3.826840e-001  0.000000e+000
    outer loop
      vertex -2.893934e+001 -1.056066e+001  0.000000e+000
      vertex -2.893934e+001 -1.056066e+001  5.000000e+000
      vertex -2.850000e+001 -9.500000e+000  5.000000e+000
    endloop
  endfacet
  facet normal -9.238793e-001  3.826840e-001  0.000000e+000
    outer loop
      vertex -2.893934e+001 -1.056066e+001  0.000000e+000
      vertex -2.850000e+001 -9.500000e+000  5.000000e+000
      vertex -2.850000e+001 -9.500000e+000  0.000000e+000
    endloop
  endfacet
  facet normal -3.826835e-001  9.238794e-001  0.000000e+000
    outer loop
      vertex -2.893934e+001 -1.056066e+001  5.000000e+000
      vertex -3.000000e+001 -1.100000e+001  0.000000e+000
      vertex -3.000000e+001 -1.100000e+001  5.000000e+000
    endloop
  endfacet
  facet normal  3.826835e-001  9.238794e-001  0.000000e+000
    outer loop
      vertex -3.000000e+001 -1.100000e+001  5.000000e+000
      vertex -3.000000e+001 -1.100000e+001  0.000000e+000
      vertex -3.106066e+001 -1.056066e+001  0.000000e+000
    endloop
  endfacet
  facet normal  3.826835e-001  9.238794e-001  -0.000000e+000
    outer loop
      vertex -3.000000e+001 -1.100000e+001  5.000000e+000
      vertex -3.106066e+001 -1.056066e+001  0.000000e+000
      vertex -3.106066e+001 -1.056066e+001  5.000000e+000
    endloop
  endfacet
  facet normal  9.238793e-001  3.826840e-001  0.000000e+000
    outer loop
      vertex -3.106066e+001 -1.056066e+001  5.000000e+000
      vertex -3.106066e+001 -1.056066e+001  0.000000e+000
      vertex -3.150000e+001 -9.500000e+000  0.000000e+000
    endloop
  endfacet
  facet normal  9.238793e-001  3.826840e-001  -0.000000e+000
    outer loop
      vertex -3.106066e+001 -1.056066e+001  5.000000e+000
      vertex -3.150000e+001 -9.500000e+000  0.000000e+000
      vertex -3.150000e+001 -9.500000e+000  5.000000e+000
    endloop
  endfacet
  facet normal  3.826835e-001 -9.238794e-001  0.000000e+000
    outer loop
      vertex -3.000000e+001 -8.000000e+000  0.000000e+000
      vertex -3.106066e+001 -8.439340e+000  5.000000e+000
      vertex -3.106066e+001 -8.439340e+000  0.000000e+000
    endloop
  endfacet
  facet normal  9.238793e-001 -3.826840e-001  0.000000e+000
    outer loop
      vertex -3.106066e+001 -8.439340e+000  0.000000e+000
      vertex -3.106066e+001 -8.439340e+000  5.000000e+000
      vertex -3.150000e+001 -9.500000e+000  5.000000e+000
    endloop
  endfacet
  facet normal  9.238793e-001 -3.826840e-001  0.000000e+000
    outer loop
      vertex -3.106066e+001 -8.439340e+000  0.000000e+000
      vertex -3.150000e+001 -9.500000e+000  5.000000e+000
      vertex -3.150000e+001 -9.500000e+000  0.000000e+000
    endloop
  endfacet
  facet normal  3.826835e-001 -9.238794e-001  0.000000e+000
    outer loop
      vertex -3.106066e+001 -8.439340e+000  5.000000e+000
      vertex -3.000000e+001 -8.000000e+000  0.000000e+000
      vertex -3.000000e+001 -8.000000e+000  5.000000e+000
    endloop
  endfacet
  facet normal -3.826835e-001 -9.238794e-001  -0.000000e+000
    outer loop
      vertex -3.000000e+001 -8.000000e+000  5.000000e+000
      vertex -3.000000e+001 -8.000000e+000  0.000000e+000
      vertex -2.893934e+001 -8.439340e+000  0.000000e+000
    endloop
  endfacet
  facet normal -3.826835e-001 -9.238794e-001  0.000000e+000
    outer loop
      vertex -3.000000e+001 -8.000000e+000  5.000000e+000
      vertex -2.893934e+001 -8.439340e+000  0.000000e+000
      vertex -2.893934e+001 -8.439340e+000  5.000000e+000
    endloop
  endfacet
  facet normal -9.238793e-001 -3.826840e-001  -0.000000e+000
    outer loop
      vertex -2.893934e+001 -8.439340e+000  5.000000e+000
      vertex -2.893934e+001 -8.439340e+000  0.000000e+000
      vertex -2.850000e+001 -9.500000e+000  0.000000e+000
    endloop
  endfacet
  facet normal -9.238793e-001 -3.826840e-001  0.000000e+000
    outer loop
      vertex -2.893934e+001 -8.439340e+000  5.000000e+000
      vertex -2.850000e+001 -9.500000e+000  0.000000e+000
      vertex -2.850000e+001 -9.500000e+000  5.000000e+000
    endloop
  endfacet
  facet normal -3.826829e-001  9.238798e-001  0.000000e+000
    outer loop
      vertex  3.225000e+001  7.000000e+000  0.000000e+000
      vertex  3.331066e+001  7.439340e+000  5.000000e+000
      vertex  3.331066e+001  7.439340e+000  0.000000e+000
    endloop
  endfacet
  facet normal -9.238799e-001  3.826825e-001  0.000000e+000
    outer loop
      vertex  3.331066e+001  7.439340e+000  0.000000e+000
      vertex  3.331066e+001  7.439340e+000  5.000000e+000
      vertex  3.375000e+001  8.500000e+000  5.000000e+000
    endloop
  endfacet
  facet normal -9.238799e-001  3.826825e-001  0.000000e+000
    outer loop
      vertex  3.331066e+001  7.439340e+000  0.000000e+000
      vertex  3.375000e+001  8.500000e+000  5.000000e+000
      vertex  3.375000e+001  8.500000e+000  0.000000e+000
    endloop
  endfacet
  facet normal -3.826829e-001  9.238798e-001  0.000000e+000
    outer loop
      vertex  3.331066e+001  7.439340e+000  5.000000e+000
      vertex  3.225000e+001  7.000000e+000  0.000000e+000
      vertex  3.225000e+001  7.000000e+000  5.000000e+000
    endloop
  endfacet
  facet normal  3.826835e-001  9.238794e-001  0.000000e+000
    outer loop
      vertex  3.225000e+001  7.000000e+000  5.000000e+000
      vertex  3.225000e+001  7.000000e+000  0.000000e+000
      vertex  3.118934e+001  7.439340e+000  0.000000e+000
    endloop
  endfacet
  facet normal  3.826835e-001  9.238794e-001  -0.000000e+000
    outer loop
      vertex  3.225000e+001  7.000000e+000  5.000000e+000
      vertex  3.118934e+001  7.439340e+000  0.000000e+000
      vertex  3.118934e+001  7.439340e+000  5.000000e+000
    endloop
  endfacet
  facet normal  9.238793e-001  3.826840e-001  0.000000e+000
    outer loop
      vertex  3.118934e+001  7.439340e+000  5.000000e+000
      vertex  3.118934e+001  7.439340e+000  0.000000e+000
      vertex  3.075000e+001  8.500000e+000  0.000000e+000
    endloop
  endfacet
  facet normal  9.238793e-001  3.826840e-001  -0.000000e+000
    outer loop
      vertex  3.118934e+001  7.439340e+000  5.000000e+000
      vertex  3.075000e+001  8.500000e+000  0.000000e+000
      vertex  3.075000e+001  8.500000e+000  5.000000e+000
    endloop
  endfacet
  facet normal  3.826835e-001 -9.238794e-001  0.000000e+000
    outer loop
      vertex  3.225000e+001  1.000000e+001  0.000000e+000
      vertex  3.118934e+001  9.560660e+000  5.000000e+000
      vertex  3.118934e+001  9.560660e+000  0.000000e+000
    endloop
  endfacet
  facet normal  9.238793e-001 -3.826840e-001  0.000000e+000
    outer loop
      vertex  3.118934e+001  9.560660e+000  0.000000e+000
      vertex  3.118934e+001  9.560660e+000  5.000000e+000
      vertex  3.075000e+001  8.500000e+000  5.000000e+000
    endloop
  endfacet
  facet normal  9.238793e-001 -3.826840e-001  0.000000e+000
    outer loop
      vertex  3.118934e+001  9.560660e+000  0.000000e+000
      vertex  3.075000e+001  8.500000e+000  5.000000e+000
      vertex  3.075000e+001  8.500000e+000  0.000000e+000
    endloop
  endfacet
  facet normal  3.826835e-001 -9.238794e-001  0.000000e+000
    outer loop
      vertex  3.118934e+001  9.560660e+000  5.000000e+000
      vertex  3.225000e+001  1.000000e+001  0.000000e+000
      vertex  3.225000e+001  1.000000e+001  5.000000e+000
    endloop
  endfacet
  facet normal -3.826829e-001 -9.238798e-001  -0.000000e+000
    outer loop
      vertex  3.225000e+001  1.000000e+001  5.000000e+000
      vertex  3.225000e+001  1.000000e+001  0.000000e+000
      vertex  3.331066e+001  9.560660e+000  0.000000e+000
    endloop
  endfacet
  facet normal -3.826829e-001 -9.238798e-001  0.000000e+000
    outer loop
      vertex  3.225000e+001  1.000000e+001  5.000000e+000
      vertex  3.331066e+001  9.560660e+000  0.000000e+000
      vertex  3.331066e+001  9.560660e+000  5.000000e+000
    endloop
  endfacet
  facet normal -9.238799e-001 -3.826825e-001  -0.000000e+000
    outer loop
      vertex  3.331066e+001  9.560660e+000  5.000000e+000
      vertex  3.331066e+001  9.560660e+000  0.000000e+000
      vertex  3.375000e+001  8.500000e+000  0.000000e+000
    endloop
  endfacet
  facet normal -9.238799e-001 -3.826825e-001  0.000000e+000
    outer loop
      vertex  3.331066e+001  9.560660e+000  5.000000e+000
      vertex  3.375000e+001  8.500000e+000  0.000000e+000
      vertex  3.375000e+001  8.500000e+000  5.000000e+000
    endloop
  endfacet
  facet normal -3.826829e-001  9.238798e-001  0.000000e+000
    outer loop
      vertex  3.225000e+001 -1.100000e+001  0.000000e+000
      vertex  3.331066e+001 -1.056066e+001  5.000000e+000
      vertex  3.331066e+001 -1.056066e+001  0.000000e+000
    endloop
  endfacet
  facet normal -9.238799e-001  3.826825e-001  0.000000e+000
    outer loop
      vertex  3.331066e+001 -1.056066e+001  0.000000e+000
      vertex  3.331066e+001 -1.056066e+001  5.000000e+000
      vertex  3.375000e+001 -9.500000e+000  5.000000e+000
    endloop
  endfacet
  facet normal -9.238799e-001  3.826825e-001  0.000000e+000
    outer loop
      vertex  3.331066e+001 -1.056066e+001  0.000000e+000
      vertex  3.375000e+001 -9.500000e+000  5.000000e+000
      vertex  3.375000e+001 -9.500000e+000  0.000000e+000
    endloop
  endfacet
  facet normal -3.826829e-001  9.238798e-001  0.000000e+000
    outer loop
      vertex  3.331066e+001 -1.056066e+001  5.000000e+000
      vertex  3.225000e+001 -1.100000e+001  0.000000e+000
      vertex  3.225000e+001 -1.100000e+001  5.000000e+000
    endloop
  endfacet
  facet normal  3.826835e-001  9.238794e-001  0.000000e+000
    outer loop
      vertex  3.225000e+001 -1.100000e+001  5.000000e+000
      vertex  3.225000e+001 -1.100000e+001  0.000000e+000
      vertex  3.118934e+001 -1.056066e+001  0.000000e+000
    endloop
  endfacet
  facet normal  3.826835e-001  9.238794e-001  -0.000000e+000
    outer loop
      vertex  3.225000e+001 -1.100000e+001  5.000000e+000
      vertex  3.118934e+001 -1.056066e+001  0.000000e+000
      vertex  3.118934e+001 -1.056066e+001  5.000000e+000
    endloop
  endfacet
  facet normal  9.238793e-001  3.826840e-001  0.000000e+000
    outer loop
      vertex  3.118934e+001 -1.056066e+001  5.000000e+000
      vertex  3.118934e+001 -1.056066e+001  0.000000e+000
      vertex  3.075000e+001 -9.500000e+000  0.000000e+000
    endloop
  endfacet
  facet normal  9.238793e-001  3.826840e-001  -0.000000e+000
    outer loop
      vertex  3.118934e+001 -1.056066e+001  5.000000e+000
      vertex  3.075000e+001 -9.500000e+000  0.000000e+000
      vertex  3.075000e+001 -9.500000e+000  5.000000e+000
    endloop
  endfacet
  facet normal  3.826835e-001 -9.238794e-001  0.000000e+000
    outer loop
      vertex  3.225000e+001 -8.000000e+000  0.000000e+000
      vertex  3.118934e+001 -8.439340e+000  5.000000e+000
      vertex  3.118934e+001 -8.439340e+000  0.000000e+000
    endloop
  endfacet
  facet normal  9.238793e-001 -3.826840e-001  0.000000e+000
    outer loop
      vertex  3.118934e+001 -8.439340e+000  0.000000e+000
      vertex  3.118934e+001 -8.439340e+000  5.000000e+000
      vertex  3.075000e+001 -9.500000e+000  5.000000e+000
    endloop
  endfacet
  facet normal  9.238793e-001 -3.826840e-001  0.000000e+000
    outer loop
      vertex  3.118934e+001 -8.439340e+000  0.000000e+000
      vertex  3.075000e+001 -9.500000e+000  5.000000e+000
      vertex  3.075000e+001 -9.500000e+000  0.000000e+000
    endloop
  endfacet
  facet normal  3.826835e-001 -9.238794e-001  0.000000e+000
    outer loop
      vertex  3.118934e+001 -8.439340e+000  5.000000e+000
      vertex  3.225000e+001 -8.000000e+000  0.000000e+000
      vertex  3.225000e+001 -8.000000e+000  5.000000e+000
    endloop
  endfacet
  facet normal -3.826829e-001 -9.238798e-001  -0.000000e+000
    outer loop
      vertex  3.225000e+001 -8.000000e+000  5.000000e+000
      vertex  3.225000e+001 -8.000000e+000  0.000000e+000
      vertex  3.331066e+001 -8.439340e+000  0.000000e+000
    endloop
  endfacet
  facet normal -3.826829e-001 -9.238798e-001  0.000000e+000
    outer loop
      vertex  3.225000e+001 -8.000000e+000  5.000000e+000
      vertex  3.331066e+001 -8.439340e+000  0.000000e+000
      vertex  3.331066e+001 -8.439340e+000  5.000000e+000
    endloop
  endfacet
  facet normal -9.238799e-001 -3.826825e-001  -0.000000e+000
    outer loop
      vertex  3.331066e+001 -8.439340e+000  5.000000e+000
      vertex  3.331066e+001 -8.439340e+000  0.000000e+000
      vertex  3.375000e+001 -9.500000e+000  0.000000e+000
    endloop
  endfacet
  facet normal -9.238799e-001 -3.826825e-001  0.000000e+000
    outer loop
      vertex  3.331066e+001 -8.439340e+000  5.000000e+000
      vertex  3.375000e+001 -9.500000e+000  0.000000e+000
      vertex  3.375000e+001 -9.500000e+000  5.000000e+000
    endloop
  endfacet
  facet normal  1.000000e+000  -0.000000e+000  0.000000e+000
    outer loop
      vertex  3.575000e+001  2.100000e+001  5.000000e+000
      vertex  3.575000e+001 -2.100000e+001  5.000000e+000
      vertex  3.575000e+001  2.100000e+001  0.000000e+000
    endloop
  endfacet
  facet normal  1.000000e+000  0.000000e+000  0.000000e+000
    outer loop
      vertex  3.575000e+001  2.100000e+001  0.000000e+000
      vertex  3.575000e+001 -2.100000e+001  5.000000e+000
      vertex  3.575000e+001 -2.100000e+001  0.000000e+000
    endloop
  endfacet
  facet normal  0.000000e+000 -1.000000e+000  0.000000e+000
    outer loop
      vertex  3.575000e+001 -2.100000e+001  5.000000e+000
      vertex -3.575000e+001 -2.100000e+001  5.000000e+000
      vertex  3.575000e+001 -2.100000e+001  0.000000e+000
    endloop
  endfacet
  facet normal  0.000000e+000 -1.000000e+000  0.000000e+000
    outer loop
      vertex  3.575000e+001 -2.100000e+001  0.000000e+000
      vertex -3.575000e+001 -2.100000e+001  5.000000e+000
      vertex -3.575000e+001 -2.100000e+001  0.000000e+000
    endloop
  endfacet
  facet normal -1.000000e+000  -0.000000e+000  0.000000e+000
    outer loop
      vertex -3.575000e+001 -2.100000e+001  5.000000e+000
      vertex -3.575000e+001  2.100000e+001  5.000000e+000
      vertex -3.575000e+001 -2.100000e+001  0.000000e+000
    endloop
  endfacet
  facet normal -1.000000e+000  0.000000e+000  0.000000e+000
    outer loop
      vertex -3.575000e+001 -2.100000e+001  0.000000e+000
      vertex -3.575000e+001  2.100000e+001  5.000000e+000
      vertex -3.575000e+001  2.100000e+001  0.000000e+000
    endloop
  endfacet
  facet normal  0.000000e+000  1.000000e+000  0.000000e+000
    outer loop
      vertex -3.575000e+001  2.100000e+001  5.000000e+000
      vertex  3.575000e+001  2.100000e+001  5.000000e+000
      vertex -3.575000e+001  2.100000e+001  0.000000e+000
    endloop
  endfacet
  facet normal  0.000000e+000  1.000000e+000  0.000000e+000
    outer loop
      vertex -3.575000e+001  2.100000e+001  0.000000e+000
      vertex  3.575000e+001  2.100000e+001  5.000000e+000
      vertex  3.575000e+001  2.100000e+001  0.000000e+000
    endloop
  endfacet
endsolid CATIA STL
